<svg width="463" height="52" viewBox="0 0 463 52" fill="none" xmlns="http://www.w3.org/2000/svg">
<g clip-path="url(#clip0)">
<path d="M14.73 40.4446C11.9433 40.4446 9.35555 39.8469 7.16595 38.4522C4.97635 37.2568 3.18487 35.4637 1.99054 33.2722C0.796217 31.0806 0 28.6898 0 25.9005C0 23.1112 0.597163 20.7204 1.99054 18.5289C3.38392 16.3373 4.97635 14.7434 7.16595 13.3488C9.35555 12.1534 11.9433 11.3564 14.73 11.3564C17.5168 11.3564 20.1045 11.9541 22.2941 13.3488C24.4837 14.5442 26.2752 16.3373 27.4695 18.5289C28.6638 20.7204 29.46 23.1112 29.46 25.9005C29.46 28.6898 28.8629 31.0806 27.4695 33.2722C26.2752 35.4637 24.4837 37.2568 22.2941 38.4522C20.1045 39.8469 17.5168 40.4446 14.73 40.4446ZM14.73 34.2683C16.3224 34.2683 17.5168 33.8699 18.7111 33.2722C19.7064 32.4752 20.7016 31.6783 21.2988 30.2836C21.896 29.0882 22.095 27.6936 22.095 26.299C22.095 24.7051 21.896 23.5097 21.2988 22.3143C20.7016 21.1189 19.7064 19.9235 18.7111 19.1266C17.5168 18.3296 16.3224 18.1304 14.73 18.1304C13.1376 18.1304 11.9433 18.5289 10.7489 19.1266C9.75365 19.9235 8.75838 20.7204 8.16122 22.1151C7.56406 23.3105 7.365 24.7051 7.365 26.0997C7.365 27.6936 7.56406 28.889 8.16122 30.0844C8.75838 31.2798 9.5546 32.276 10.7489 33.0729C11.9433 33.8699 13.3366 34.2683 14.73 34.2683Z" fill="#2E68FB"/>
<path d="M55.138 12.9503C56.9295 13.7472 58.5219 14.7434 59.7162 15.9388C60.9106 17.3334 61.9058 18.9273 62.503 20.7204C63.1002 22.5135 63.4983 24.5058 63.4983 26.6974C63.4983 29.4867 62.9011 31.8775 61.9058 33.8698C60.9106 35.8621 59.3181 37.456 57.3276 38.6514C55.337 39.8468 52.9484 40.4445 50.3607 40.4445C49.1664 40.4445 48.1711 40.2453 46.9768 40.046C45.9815 39.6476 44.9862 39.2491 44.19 38.6514C43.3938 38.0537 42.5976 37.2568 42.0004 36.4598V51.6016H34.6354V26.6974C34.6354 23.7089 35.2326 21.1188 36.4269 18.9273C37.6212 16.7357 39.2137 14.9426 41.4032 13.7472C43.5928 12.5518 46.1805 11.9541 48.9673 11.9541C51.356 11.7549 53.3465 12.1533 55.138 12.9503ZM45.3843 19.1265C44.3891 19.9234 43.5928 20.7204 42.9957 22.115C42.3985 23.3104 42.1995 24.7051 42.1995 26.0997C42.1995 27.6936 42.3985 28.889 42.9957 30.0844C43.5928 31.2798 44.3891 32.2759 45.3843 33.0729C46.3796 33.8698 47.773 34.069 49.1664 34.069C50.5597 34.069 51.9531 33.6706 52.9484 33.0729C53.9437 32.2759 54.7399 31.479 55.337 30.0844C55.9342 28.889 56.1333 27.4943 56.1333 26.0997C56.1333 24.5058 55.9342 23.3104 55.337 22.115C54.7399 20.9196 53.9437 19.9234 52.9484 19.1265C51.9531 18.3296 50.5597 18.1303 49.1664 18.1303C47.5739 18.1303 46.3796 18.5288 45.3843 19.1265Z" fill="#2E68FB"/>
<path d="M82.6075 39.8466C79.4226 39.8466 76.8349 39.2489 74.4463 38.0535C72.0576 36.8581 70.2661 35.2642 69.0718 33.0726C67.8775 31.0803 67.0813 28.6895 67.0813 26.0995C67.0813 23.111 67.6784 20.7202 68.8727 18.5286C70.0671 16.337 71.6595 14.7431 73.65 13.5477C75.6406 12.3523 78.0292 11.7546 80.6169 11.7546C83.6027 11.7546 86.1904 12.3523 88.181 13.747C90.1715 14.9424 91.5649 16.7355 92.3611 18.9271C93.1573 21.1186 93.7545 23.5094 93.7545 26.0995C93.7545 26.4979 93.7545 26.8964 93.7545 27.2949C93.7545 27.6933 93.7545 28.0918 93.5554 28.4903H75.0434C75.2425 29.6857 75.8396 30.4826 76.4368 31.2795C77.233 32.0765 78.0292 32.6742 79.0245 32.8734C80.0198 33.2719 81.2141 33.4711 82.6075 33.4711H90.1715V39.8466H82.6075ZM75.0434 23.5094H86.3895C86.3895 22.9117 86.1904 22.1148 85.9914 21.5171C85.7923 20.9194 85.5933 20.3217 85.1952 19.9232C84.7971 19.5248 84.399 19.1263 84.0009 18.7278C83.6027 18.3294 83.0056 18.1301 82.4084 17.9309C82.2094 17.9309 81.6122 17.9309 80.816 17.9309C79.8207 17.9309 79.2236 18.1301 78.4273 18.3294C77.6311 18.7278 77.233 19.1263 76.6358 19.5248C76.2377 20.1225 75.8396 20.7202 75.4415 21.3179C75.2425 22.1148 75.2425 22.9117 75.0434 23.5094Z" fill="#2E68FB"/>
<path d="M142.324 35.2646C144.314 35.2646 145.907 36.8585 145.907 38.8509V40.0463C145.907 42.2378 145.31 44.2302 144.314 46.0233C143.319 47.8164 141.727 49.211 139.935 50.4064C137.945 51.4026 135.755 52.0003 132.968 52.0003C130.181 52.0003 127.992 51.4026 126.001 50.4064C124.011 49.4102 122.617 47.8164 121.622 46.0233C120.627 44.2302 120.03 42.2378 120.03 40.0463V38.8509C120.03 36.8585 121.622 35.2646 123.613 35.2646C125.603 35.2646 127.196 36.8585 127.196 38.8509V40.0463C127.196 41.0424 127.395 42.0386 127.992 43.0348C128.589 43.8317 129.186 44.6286 130.181 45.2263C130.978 45.824 131.973 46.0233 133.167 46.0233C134.163 46.0233 135.158 45.824 136.153 45.2263C136.949 44.6286 137.745 44.0309 138.343 43.0348C138.94 42.2378 139.139 41.2417 139.139 40.0463V38.8509C138.741 36.8585 140.333 35.2646 142.324 35.2646Z" fill="#2E68FB"/>
<path d="M104.902 38.4522C102.911 38.4522 101.319 36.8584 101.319 34.866V23.3105C101.319 21.1189 101.916 19.1266 102.911 17.3335C103.906 15.5404 105.499 14.1457 107.29 12.9503C109.281 11.9541 111.47 11.3564 114.257 11.3564C117.044 11.3564 119.233 11.9541 121.224 12.9503C123.215 13.9465 124.608 15.5404 125.603 17.3335C126.598 19.1266 127.196 21.1189 127.196 23.3105V24.5059C127.196 26.4982 125.603 28.0921 123.613 28.0921C121.622 28.0921 120.03 26.4982 120.03 24.5059V23.3105C120.03 22.3143 119.831 21.3181 119.233 20.322C118.636 19.525 118.039 18.7281 117.044 18.1304C116.248 17.5327 115.252 17.3335 114.058 17.3335C113.063 17.3335 112.067 17.5327 111.072 18.1304C110.276 18.7281 109.48 19.3258 108.883 20.322C108.285 21.1189 108.086 22.1151 108.086 23.3105V34.866C108.485 36.8584 106.892 38.4522 104.902 38.4522Z" fill="#2E68FB"/>
<path d="M142.324 28.2913C140.333 28.2913 138.741 26.6974 138.741 24.7051V23.5097C138.741 21.3181 139.338 19.3258 140.333 17.5327C141.328 15.7396 142.921 14.3449 144.712 13.1495C146.703 12.1534 148.892 11.5557 151.679 11.5557C154.466 11.5557 156.656 12.1534 158.646 13.1495C160.637 14.1457 162.03 15.7396 163.025 17.5327C164.021 19.3258 164.618 21.3181 164.618 23.5097V35.0652C164.618 37.0576 163.025 38.6514 161.035 38.6514C159.044 38.6514 157.452 37.0576 157.452 35.0652V23.5097C157.452 22.5135 157.253 21.5173 156.656 20.5212C156.058 19.7242 155.461 18.9273 154.466 18.3296C153.67 17.7319 152.675 17.5327 151.48 17.5327C150.485 17.5327 149.49 17.7319 148.494 18.3296C147.698 18.9273 146.902 19.525 146.305 20.5212C145.708 21.3181 145.509 22.3143 145.509 23.5097V24.7051C145.907 26.6974 144.314 28.2913 142.324 28.2913Z" fill="#2E68FB"/>
<path d="M185.319 39.8466C182.135 39.8466 179.547 39.2489 177.158 38.0535C174.77 36.8581 172.978 35.2642 171.784 33.0726C170.589 31.0803 169.793 28.6895 169.793 26.0995C169.793 23.111 170.39 20.7202 171.585 18.5286C172.779 16.337 174.371 14.7431 176.362 13.5477C178.353 12.3523 180.741 11.7546 183.329 11.7546C186.315 11.7546 188.902 12.3523 190.893 13.747C192.883 14.9424 194.277 16.7355 195.073 18.9271C195.869 21.1186 196.466 23.5094 196.466 26.0995C196.466 26.4979 196.466 26.8964 196.466 27.2949C196.466 27.6933 196.466 28.0918 196.267 28.4903H177.755C177.954 29.6857 178.552 30.4826 179.149 31.2795C179.945 32.0765 180.741 32.6742 181.736 32.8734C182.732 33.2719 183.926 33.4711 185.319 33.4711H193.083V39.8466H185.319ZM177.755 23.7087H189.101C189.101 23.111 188.902 22.314 188.703 21.7163C188.504 21.1186 188.305 20.5209 187.907 20.1225C187.509 19.724 187.111 19.3255 186.713 18.9271C186.315 18.5286 185.718 18.3294 185.12 18.1301C184.921 18.1301 184.125 17.9309 183.528 17.9309C182.533 17.9309 181.936 18.1301 181.139 18.3294C180.343 18.7278 179.945 19.1263 179.348 19.5248C178.95 20.1225 178.552 20.7202 178.153 21.3179C177.954 22.314 177.755 22.9117 177.755 23.7087Z" fill="#2E68FB"/>
<path d="M215.178 40.6435C212.391 40.6435 210.002 40.0458 208.012 39.0496C206.021 37.8542 204.429 36.4596 203.433 34.6665C202.438 32.8734 201.841 30.6818 201.841 28.4902V12.5515H209.206V28.291C209.206 29.4864 209.405 30.4825 210.002 31.2795C210.599 32.2757 211.196 32.8734 212.192 33.4711C213.187 34.0688 214.182 34.268 215.178 34.268C216.372 34.268 217.367 34.0688 218.163 33.4711C219.159 32.8734 219.756 32.2757 220.353 31.2795C220.95 30.2833 221.149 29.2871 221.149 28.291V12.5515H228.514V28.291C228.514 30.4825 227.917 32.6741 226.922 34.4672C225.926 36.2603 224.334 37.8542 222.343 38.8504C220.353 40.0458 217.964 40.6435 215.178 40.6435Z" fill="#2E68FB"/>
<path d="M235.083 39.8465V20.3216C235.083 17.9308 235.68 15.9385 237.074 14.5439C238.467 13.1492 240.258 12.5515 242.846 12.5515H250.41V18.927H244.04C243.642 18.927 243.244 19.1262 242.846 19.3255C242.448 19.7239 242.249 20.1224 242.249 20.5209V39.8465H235.083Z" fill="#2E68FB"/>
<path d="M267.728 40.6435C264.941 40.6435 262.353 40.0458 260.164 38.6512C257.974 37.4558 256.183 35.6627 254.988 33.4711C253.794 31.2796 252.998 28.8888 252.998 26.0995C252.998 23.3102 253.595 20.9194 254.988 18.7278C256.183 16.5363 257.974 14.9424 260.164 13.5478C262.353 12.3524 264.941 11.5554 267.728 11.5554C270.515 11.5554 273.102 12.1531 275.292 13.5478C277.482 14.7432 279.273 16.5363 280.467 18.7278C281.662 20.9194 282.458 23.3102 282.458 26.0995C282.458 28.8888 281.861 31.2796 280.467 33.4711C279.074 35.6627 277.482 37.4558 275.292 38.6512C273.102 39.8466 270.515 40.6435 267.728 40.6435ZM267.728 34.2681C269.32 34.2681 270.515 33.8696 271.709 33.2719C272.704 32.475 273.699 31.678 274.297 30.2834C274.894 29.088 275.093 27.6934 275.093 26.2987C275.093 24.7048 274.894 23.5094 274.297 22.314C273.699 21.1186 272.903 20.1225 271.709 19.3255C270.515 18.5286 269.32 18.3294 267.728 18.3294C266.135 18.3294 264.941 18.7278 263.747 19.3255C262.751 20.1225 261.756 20.9194 261.159 22.314C260.562 23.5094 260.363 24.9041 260.363 26.2987C260.363 27.8926 260.562 29.088 261.159 30.2834C261.756 31.4788 262.552 32.475 263.747 33.2719C264.941 33.8696 266.135 34.2681 267.728 34.2681Z" fill="#2E68FB"/>
<path d="M288.031 39.8468V33.4713H301.368C301.766 33.4713 302.164 33.4713 302.562 33.2721C302.96 33.0728 303.159 32.8736 303.359 32.4751C303.558 32.0766 303.558 31.8774 303.558 31.4789C303.558 31.0805 303.359 30.682 303.359 30.2835C303.159 29.8851 302.96 29.6858 302.562 29.4866C302.164 29.2874 301.766 29.2874 301.368 29.2874H296.193C294.401 29.2874 292.809 29.0881 291.415 28.4904C290.022 27.8927 288.828 27.0958 288.031 25.9004C287.235 24.705 286.837 23.1111 286.837 21.1188C286.837 19.5249 287.235 18.1303 288.031 16.9349C288.828 15.7395 289.823 14.7433 291.216 13.9464C292.61 13.1494 294.003 12.751 295.595 12.751H308.335V19.1265H296.193C295.595 19.1265 295.197 19.3257 294.799 19.7242C294.401 20.1226 294.202 20.5211 294.202 21.1188C294.202 21.7165 294.401 22.115 294.799 22.5134C295.197 22.9119 295.595 23.1111 296.193 23.1111H301.368C303.359 23.1111 304.951 23.5096 306.543 23.9081C307.937 24.5058 309.131 25.5019 309.927 26.6973C310.724 27.8927 311.122 29.6858 311.122 31.6782C311.122 33.2721 310.724 34.6667 309.927 36.0613C309.131 37.456 308.136 38.4521 306.742 39.2491C305.349 40.046 303.956 40.4445 302.363 40.4445H288.031V39.8468Z" fill="#2E68FB"/>
<path d="M329.634 39.847C326.847 39.847 324.259 39.2493 322.07 38.0539C319.88 36.8585 318.089 35.2647 316.894 33.0731C315.7 30.8815 314.904 28.69 314.904 26.0999C314.904 23.5099 315.501 21.1191 316.894 19.1267C318.089 17.1344 319.88 15.3413 322.07 14.1459C324.259 12.9505 326.847 12.3528 329.634 12.3528H333.018V18.7283H329.634C328.041 18.7283 326.847 19.1267 325.653 19.7244C324.458 20.3221 323.662 21.3183 323.065 22.3145C322.468 23.5099 322.269 24.7053 322.269 26.0999C322.269 27.4945 322.468 28.6899 323.065 29.8854C323.662 31.0808 324.458 31.8777 325.653 32.4754C326.648 33.0731 328.041 33.4716 329.634 33.4716H333.018V39.847H329.634Z" fill="#2E68FB"/>
<path d="M341.975 9.16475C340.781 9.16475 339.586 8.76628 338.79 7.77011C337.795 6.77395 337.397 5.77778 337.397 4.58237C337.397 3.38697 337.795 2.19157 338.79 1.39464C339.785 0.398467 340.781 0 341.975 0C343.169 0 344.364 0.398467 345.16 1.39464C346.155 2.3908 346.553 3.38697 346.553 4.58237C346.553 5.77778 346.155 6.97318 345.16 7.77011C344.364 8.76628 343.169 9.16475 341.975 9.16475ZM338.193 39.8467V12.5517H345.558V39.8467H338.193Z" fill="#2E68FB"/>
<path d="M366.26 39.8466C363.075 39.8466 360.487 39.2489 358.098 38.0535C355.71 36.8581 353.918 35.2642 352.724 33.0726C351.53 31.0803 350.733 28.6895 350.733 26.0995C350.733 23.111 351.331 20.7202 352.525 18.5286C353.719 16.337 355.312 14.7431 357.302 13.5477C359.293 12.3523 361.681 11.7546 364.269 11.7546C367.255 11.7546 369.843 12.3523 371.833 13.747C373.824 14.9424 375.217 16.7355 376.013 18.9271C376.81 21.1186 377.407 23.5094 377.407 26.0995C377.407 26.4979 377.407 26.8964 377.407 27.2949C377.407 27.6933 377.407 28.0918 377.208 28.4903H358.696C358.895 29.6857 359.492 30.4826 360.089 31.2795C360.885 32.0765 361.681 32.6742 362.677 32.8734C363.672 33.2719 364.866 33.4711 366.26 33.4711H373.824V39.8466H366.26ZM358.696 23.7087H370.042C370.042 23.111 369.843 22.314 369.644 21.7163C369.445 21.1186 369.245 20.5209 368.847 20.1225C368.449 19.724 368.051 19.3255 367.653 18.9271C367.255 18.5286 366.658 18.3294 366.061 18.1301C365.463 17.9309 364.866 17.9309 364.269 17.9309C363.274 17.9309 362.677 18.1301 361.88 18.3294C361.084 18.7278 360.686 19.1263 360.089 19.5248C359.691 20.1225 359.293 20.7202 358.895 21.3179C359.094 22.314 358.895 22.9117 358.696 23.7087Z" fill="#2E68FB"/>
<path d="M382.781 39.8468V24.1074C382.781 21.9158 383.378 19.7242 384.374 17.9311C385.369 16.138 386.961 14.5441 388.952 13.548C390.942 12.3526 393.331 11.9541 396.118 11.9541C398.905 11.9541 401.293 12.5518 403.284 13.548C405.274 14.7434 406.867 16.138 407.862 17.9311C408.857 19.7242 409.454 21.9158 409.454 24.1074V39.8468H402.089V24.1074C402.089 22.912 401.89 21.9158 401.293 21.1189C400.696 20.1227 400.099 19.525 399.104 18.9273C398.108 18.3296 397.113 18.1303 396.118 18.1303C394.923 18.1303 393.928 18.3296 393.132 18.9273C392.137 19.525 391.54 20.1227 390.942 21.1189C390.345 22.115 390.146 23.1112 390.146 24.1074V39.8468H382.781Z" fill="#2E68FB"/>
<path d="M429.559 39.847C426.772 39.847 424.184 39.2493 421.995 38.0539C419.805 36.8585 418.014 35.2647 416.819 33.0731C415.625 30.8815 414.829 28.69 414.829 26.0999C414.829 23.5099 415.426 21.1191 416.819 19.1267C418.014 17.1344 419.805 15.3413 421.995 14.1459C424.184 12.9505 426.772 12.3528 429.559 12.3528H432.943V18.7283H429.559C427.966 18.7283 426.772 19.1267 425.578 19.7244C424.583 20.3221 423.587 21.3183 422.99 22.3145C422.393 23.5099 422.194 24.7053 422.194 26.0999C422.194 27.4945 422.393 28.6899 422.99 29.8854C423.587 31.0808 424.383 31.8777 425.578 32.4754C426.573 33.0731 427.966 33.4716 429.559 33.4716H432.943V39.847H429.559Z" fill="#2E68FB"/>
<path d="M451.853 39.8466C448.668 39.8466 446.08 39.2489 443.692 38.0535C441.303 36.8581 439.512 35.2642 438.317 33.0726C437.123 31.0803 436.327 28.6895 436.327 26.0995C436.327 23.111 436.924 20.7202 438.118 18.5286C439.313 16.337 440.905 14.7431 442.896 13.5477C444.886 12.3523 447.275 11.7546 449.862 11.7546C452.848 11.7546 455.436 12.3523 457.426 13.747C459.417 14.9424 460.81 16.7355 461.607 18.9271C462.403 21.1186 463 23.5094 463 26.0995C463 26.4979 463 26.8964 463 27.2949C463 27.6933 463 28.0918 462.801 28.4903H444.289C444.488 29.6857 445.085 30.4826 445.682 31.2795C446.478 32.0765 447.275 32.6742 448.27 32.8734C449.265 33.2719 450.46 33.4711 451.853 33.4711H459.417V39.8466H451.853ZM444.289 23.7087H455.635C455.635 23.111 455.436 22.314 455.237 21.7163C455.038 21.1186 454.839 20.5209 454.441 20.1225C454.043 19.724 453.644 19.3255 453.246 18.9271C452.848 18.5286 452.251 18.3294 451.654 18.1301C451.057 17.9309 450.46 17.9309 449.862 17.9309C448.867 17.9309 448.27 18.1301 447.474 18.3294C446.678 18.7278 446.279 19.1263 445.682 19.5248C445.284 20.1225 444.886 20.7202 444.488 21.3179C444.488 22.314 444.488 22.9117 444.289 23.7087Z" fill="#2E68FB"/>
</g>
<defs>
<clipPath id="clip0">
<rect width="463" height="52" fill="white"/>
</clipPath>
</defs>
</svg>
