<?xml version="1.0" encoding="UTF-8" standalone="no"?>
<svg
   xmlns:dc="http://purl.org/dc/elements/1.1/"
   xmlns:cc="http://creativecommons.org/ns#"
   xmlns:rdf="http://www.w3.org/1999/02/22-rdf-syntax-ns#"
   xmlns:svg="http://www.w3.org/2000/svg"
   xmlns="http://www.w3.org/2000/svg"
   xmlns:sodipodi="http://sodipodi.sourceforge.net/DTD/sodipodi-0.dtd"
   xmlns:inkscape="http://www.inkscape.org/namespaces/inkscape"
   width="105.83334mm"
   height="105.83334mm"
   viewBox="0 0 105.83334 105.83334"
   version="1.1"
   id="svg8"
   inkscape:version="1.0.1 (1.0.1+r75)"
   sodipodi:docname="drawing.svg">
  <defs
     id="defs2">
    <filter
       id="filter0_ddd"
       x="0"
       y="0"
       width="88"
       height="89"
       filterUnits="userSpaceOnUse"
       color-interpolation-filters="sRGB">
      <feFlood
         flood-opacity="0"
         result="BackgroundImageFix"
         id="feFlood22" />
      <feColorMatrix
         in="SourceAlpha"
         type="matrix"
         values="0 0 0 0 0 0 0 0 0 0 0 0 0 0 0 0 0 0 127 0"
         id="feColorMatrix24" />
      <feOffset
         dy="5"
         id="feOffset26" />
      <feGaussianBlur
         stdDeviation="2.5"
         id="feGaussianBlur28" />
      <feColorMatrix
         type="matrix"
         values="0 0 0 0 0.0068 0 0 0 0 0.0102133 0 0 0 0 0.0132 0 0 0 0.04 0"
         id="feColorMatrix30" />
      <feBlend
         mode="normal"
         in2="BackgroundImageFix"
         result="effect1_dropShadow"
         id="feBlend32" />
      <feColorMatrix
         in="SourceAlpha"
         type="matrix"
         values="0 0 0 0 0 0 0 0 0 0 0 0 0 0 0 0 0 0 127 0"
         id="feColorMatrix34" />
      <feOffset
         dy="3"
         id="feOffset36" />
      <feGaussianBlur
         stdDeviation="7"
         id="feGaussianBlur38" />
      <feColorMatrix
         type="matrix"
         values="0 0 0 0 0.0068 0 0 0 0 0.0102133 0 0 0 0 0.0132 0 0 0 0.02 0"
         id="feColorMatrix40" />
      <feBlend
         mode="normal"
         in2="effect1_dropShadow"
         result="effect2_dropShadow"
         id="feBlend42" />
      <feColorMatrix
         in="SourceAlpha"
         type="matrix"
         values="0 0 0 0 0 0 0 0 0 0 0 0 0 0 0 0 0 0 127 0"
         id="feColorMatrix44" />
      <feOffset
         dy="8"
         id="feOffset46" />
      <feGaussianBlur
         stdDeviation="5"
         id="feGaussianBlur48" />
      <feColorMatrix
         type="matrix"
         values="0 0 0 0 0.0068 0 0 0 0 0.0102325 0 0 0 0 0.0132 0 0 0 0.03 0"
         id="feColorMatrix50" />
      <feBlend
         mode="normal"
         in2="effect2_dropShadow"
         result="effect3_dropShadow"
         id="feBlend52" />
      <feBlend
         mode="normal"
         in="SourceGraphic"
         in2="effect3_dropShadow"
         result="shape"
         id="feBlend54" />
    </filter>
    <clipPath
       id="clip0">
      <rect
         width="320.53799"
         height="36"
         fill="#ffffff"
         id="rect96"
         x="0"
         y="0" />
    </clipPath>
  </defs>
  <sodipodi:namedview
     id="base"
     pagecolor="#ffffff"
     bordercolor="#666666"
     borderopacity="1.0"
     inkscape:pageopacity="0.0"
     inkscape:pageshadow="2"
     inkscape:zoom="1.4785648"
     inkscape:cx="61.74398"
     inkscape:cy="54.523561"
     inkscape:document-units="mm"
     inkscape:current-layer="layer1"
     inkscape:document-rotation="0"
     showgrid="false"
     inkscape:window-width="1920"
     inkscape:window-height="1009"
     inkscape:window-x="0"
     inkscape:window-y="34"
     inkscape:window-maximized="1"
     fit-margin-top="0"
     fit-margin-left="0"
     fit-margin-right="0"
     fit-margin-bottom="0" />
  <metadata
     id="metadata5">
    <rdf:RDF>
      <cc:Work
         rdf:about="">
        <dc:format>image/svg+xml</dc:format>
        <dc:type
           rdf:resource="http://purl.org/dc/dcmitype/StillImage" />
        <dc:title></dc:title>
      </cc:Work>
    </rdf:RDF>
  </metadata>
  <g
     inkscape:label="Layer 1"
     inkscape:groupmode="layer"
     id="layer1"
     transform="translate(-11.952559,-35.636528)">
    <rect
       style="fill:#e8f5ff;fill-opacity:1;stroke-width:2.04367;stroke-linecap:round;stroke-linejoin:round"
       id="rect10"
       width="105.83334"
       height="105.83334"
       x="11.952559"
       y="35.636528"
       ry="6.5265579" />
    <g
       id="g1118"
       transform="translate(-0.37360202)">
      <g
         filter="url(#filter0_ddd)"
         id="g14"
         style="fill:none"
         transform="matrix(0.50771767,0,0,0.50771767,42.903256,95.924692)">
        <circle
           cx="44"
           cy="41"
           r="30"
           fill="#e8f5ff"
           id="circle12" />
      </g>
      <path
         d="m 68.446427,118.04504 c 0.641707,0 1.164657,0.53178 1.164657,1.18445 v 0.4109 c 0,0.72517 -0.166373,1.37779 -0.499138,1.98213 -0.332758,0.60428 -0.808132,1.06356 -1.449888,1.42613 -0.617996,0.36256 -1.378607,0.53177 -2.258024,0.53177 -0.879468,0 -1.64003,-0.16922 -2.258026,-0.53177 -0.617992,-0.36257 -1.093368,-0.82185 -1.426125,-1.42613 -0.332757,-0.60434 -0.499139,-1.25696 -0.499139,-1.98213 v -0.4109 c 0,-0.65267 0.522899,-1.18445 1.164654,-1.18445 0.641756,0 1.164704,0.53178 1.164704,1.18445 v 0.4109 c 0,0.36261 0.09504,0.67684 0.261425,0.9669 0.166371,0.29005 0.404093,0.53178 0.689275,0.70095 0.285238,0.16922 0.594233,0.26589 0.950754,0.26589 0.356518,0 0.665519,-0.0967 0.95075,-0.26589 0.285238,-0.16918 0.522901,-0.4109 0.689278,-0.70095 0.166374,-0.29006 0.261476,-0.60429 0.261476,-0.9669 v -0.4109 c -0.07133,-0.65267 0.451615,-1.18445 1.093367,-1.18445 z"
         fill="#3a9ced"
         id="path16"
         style="stroke-width:0.507717" />
      <path
         d="m 56.253132,119.08438 c -0.641754,0 -1.164653,-0.50761 -1.164653,-1.16023 v -3.84332 c 0,-0.72518 0.166373,-1.3778 0.499139,-1.98213 0.332757,-0.60429 0.808132,-1.06357 1.449888,-1.42613 0.617993,-0.36256 1.378557,-0.53178 2.258025,-0.53178 0.879415,0 1.640028,0.16923 2.258021,0.53178 0.617947,0.36256 1.093322,0.82184 1.426079,1.42613 0.332757,0.60433 0.499139,1.25695 0.499139,1.98213 v 0.4109 c 0,0.65266 -0.522902,1.18445 -1.164654,1.18445 -0.641756,0 -1.164657,-0.53179 -1.164657,-1.18445 v -0.4109 c 0,-0.36261 -0.09504,-0.67684 -0.261423,-0.9669 -0.166373,-0.29006 -0.404092,-0.53178 -0.689328,-0.701 -0.285185,-0.16918 -0.59418,-0.2659 -0.9507,-0.2659 -0.35657,0 -0.665568,0.0967 -0.95075,0.2659 -0.285239,0.1692 -0.522951,0.41094 -0.689331,0.701 -0.166371,0.29006 -0.261423,0.60429 -0.261423,0.9669 v 3.84332 c 0.04753,0.65262 -0.475378,1.16023 -1.093372,1.16023 z"
         fill="#3a9ced"
         id="path18"
         style="stroke-width:0.507717" />
      <path
         d="m 68.446427,115.67618 c -0.641752,0 -1.164649,-0.53179 -1.164649,-1.18445 v -0.4109 c 0,-0.72518 0.166369,-1.3778 0.499138,-1.98213 0.332758,-0.60429 0.808132,-1.06357 1.449888,-1.42613 0.617943,-0.36256 1.378554,-0.53178 2.257972,-0.53178 0.879468,0 1.640078,0.16923 2.258024,0.53178 0.617994,0.36256 1.093368,0.82184 1.42613,1.42613 0.332757,0.60433 0.499134,1.25695 0.499134,1.98213 v 3.84332 c 0,0.65262 -0.522897,1.1844 -1.164653,1.1844 -0.641752,0 -1.164653,-0.53178 -1.164653,-1.1844 v -3.84332 c 0,-0.36261 -0.09511,-0.67684 -0.261476,-0.9669 -0.16637,-0.29006 -0.40404,-0.53178 -0.689279,-0.701 -0.285235,-0.16918 -0.594229,-0.2659 -0.950749,-0.2659 -0.356522,0 -0.665516,0.0967 -0.950751,0.2659 -0.285189,0.1692 -0.522897,0.41094 -0.689279,0.701 -0.166369,0.29006 -0.261422,0.60429 -0.261422,0.9669 v 0.4109 c 0.07129,0.65266 -0.451615,1.18445 -1.093375,1.18445 z"
         fill="#3a9ced"
         id="path20"
         style="stroke-width:0.507717" />
    </g>
    <text
       xml:space="preserve"
       style="font-style:normal;font-weight:normal;font-size:6.76956px;line-height:1.25;font-family:sans-serif;letter-spacing:0px;word-spacing:0px;fill:#3a9ced;fill-opacity:1;stroke:#000000;stroke-width:0.191893;stroke-miterlimit:4;stroke-dasharray:none"
       x="64.764297"
       y="63.81271"
       id="text92"><tspan
         sodipodi:role="line"
         x="64.764297"
         y="63.81271"
         style="font-style:normal;font-variant:normal;font-weight:normal;font-stretch:normal;font-family:MuseoModerno;-inkscape-font-specification:MuseoModerno;text-align:center;text-anchor:middle;fill:#3a9ced;fill-opacity:1;stroke:#000000;stroke-width:0.191893;stroke-miterlimit:4;stroke-dasharray:none"
         id="tspan135">Supporters </tspan><tspan
         sodipodi:role="line"
         x="64.764297"
         y="72.543007"
         style="font-style:normal;font-variant:normal;font-weight:normal;font-stretch:normal;font-family:MuseoModerno;-inkscape-font-specification:MuseoModerno;text-align:center;text-anchor:middle;fill:#3a9ced;fill-opacity:1;stroke:#000000;stroke-width:0.191893;stroke-miterlimit:4;stroke-dasharray:none"
         id="tspan133">November 2021</tspan></text>
    <text
       xml:space="preserve"
       style="font-style:normal;font-weight:normal;font-size:6.76956px;line-height:1.25;font-family:sans-serif;letter-spacing:0px;word-spacing:0px;fill:#3a9ced;fill-opacity:1;stroke:#000000;stroke-width:0.191893;stroke-miterlimit:4;stroke-dasharray:none"
       x="65.109543"
       y="86.932068"
       id="text92-3"><tspan
         sodipodi:role="line"
         x="65.109543"
         y="86.932068"
         style="font-style:normal;font-variant:normal;font-weight:normal;font-stretch:normal;font-family:MuseoModerno;-inkscape-font-specification:MuseoModerno;text-align:center;text-anchor:middle;fill:#3a9ced;fill-opacity:1;stroke:#000000;stroke-width:0.191893;stroke-miterlimit:4;stroke-dasharray:none"
         id="tspan34-6">Artemis Koumoundourou</tspan><tspan
         sodipodi:role="line"
         x="65.109543"
         y="95.662361"
         style="font-style:normal;font-variant:normal;font-weight:normal;font-stretch:normal;font-family:MuseoModerno;-inkscape-font-specification:MuseoModerno;text-align:center;text-anchor:middle;fill:#3a9ced;fill-opacity:1;stroke:#000000;stroke-width:0.191893;stroke-miterlimit:4;stroke-dasharray:none"
         id="tspan56">Vladimir Ghukasyan</tspan><tspan
         sodipodi:role="line"
         x="65.109543"
         y="104.39265"
         style="font-style:normal;font-variant:normal;font-weight:normal;font-stretch:normal;font-family:MuseoModerno;-inkscape-font-specification:MuseoModerno;fill:#3a9ced;fill-opacity:1;stroke:#000000;stroke-width:0.191893;stroke-miterlimit:4;stroke-dasharray:none"
         id="tspan58" /></text>
    <g
       style="fill:none"
       id="g127"
       transform="matrix(0.29817507,0,0,0.29817507,17.081012,40.728284)">
      <g
         clip-path="url(#clip0)"
         id="g94">
        <path
           d="m 10.1977,28.0001 c -1.9293,0 -3.72078,-0.4138 -5.23666,-1.3793 C 3.44517,25.7932 2.20491,24.5518 1.37807,23.0346 0.551227,21.5174 0,19.8622 0,17.9311 0,16.0001 0.41342,14.3449 1.37807,12.8277 2.34271,11.3105 3.44517,10.207 4.96104,9.24149 6.47692,8.41391 8.2684,7.86218 10.1977,7.86218 c 1.9293,0 3.7208,0.4138 5.2367,1.37931 1.5158,0.82761 2.7561,2.06901 3.5829,3.58621 0.8269,1.5172 1.3781,3.1724 1.3781,5.1034 0,1.9311 -0.4134,3.5863 -1.3781,5.1035 -0.8268,1.5172 -2.0671,2.7586 -3.5829,3.5862 -1.5159,0.9655 -3.3074,1.3793 -5.2367,1.3793 z m 0,-4.2759 c 1.1025,0 1.9293,-0.2758 2.7561,-0.6896 0.6891,-0.5517 1.3781,-1.1035 1.7915,-2.069 0.4134,-0.8276 0.5512,-1.7931 0.5512,-2.7586 0,-1.1034 -0.1378,-1.931 -0.5512,-2.7586 -0.4134,-0.8276 -1.1024,-1.6552 -1.7915,-2.2069 -0.8268,-0.5517 -1.6536,-0.6897 -2.7561,-0.6897 -1.10246,0 -1.9293,0.2759 -2.75614,0.6897 -0.68903,0.5517 -1.37806,1.1034 -1.79148,2.069 -0.41342,0.8275 -0.55123,1.7931 -0.55123,2.7586 0,1.1034 0.13781,1.931 0.55123,2.7586 0.41342,0.8276 0.96464,1.5172 1.79148,2.069 0.82684,0.5517 1.79149,0.8275 2.75614,0.8275 z"
           fill="#3a9ced"
           id="path60" />
        <path
           d="m 38.1724,8.96559 c 1.2402,0.55172 2.3427,1.24141 3.1695,2.06901 0.8269,0.9655 1.5159,2.0689 1.9293,3.3103 0.4134,1.2414 0.689,2.6207 0.689,4.1379 0,1.9311 -0.4134,3.5862 -1.1024,4.9655 -0.689,1.3794 -1.7915,2.4828 -3.1696,3.3104 -1.378,0.8276 -3.0317,1.2414 -4.8232,1.2414 -0.8268,0 -1.5159,-0.138 -2.3427,-0.2759 -0.689,-0.2759 -1.3781,-0.5517 -1.9293,-0.9655 -0.5512,-0.4138 -1.1025,-0.9655 -1.5159,-1.5172 v 7.9333 c 0,1.408 -1.1414,2.5494 -2.5494,2.5494 v 0 c -1.408,0 -2.5494,-1.1414 -2.5494,-2.5494 v -14.692 c 0,-2.0689 0.4134,-3.862 1.2402,-5.3793 0.8269,-1.5172 1.9293,-2.7586 3.4452,-3.58619 1.5159,-0.82758 3.3074,-1.24138 5.2367,-1.24138 1.6536,-0.13793 3.0317,0.13793 4.272,0.68966 z m -6.7526,4.27591 c -0.689,0.5517 -1.2402,1.1034 -1.6536,2.0689 -0.4135,0.8276 -0.5513,1.7931 -0.5513,2.7586 0,1.1035 0.1378,1.9311 0.5513,2.7587 0.4134,0.8275 0.9646,1.5172 1.6536,2.0689 0.6891,0.5517 1.6537,0.6897 2.6184,0.6897 0.9646,0 1.9293,-0.2759 2.6183,-0.6897 0.689,-0.5517 1.2402,-1.1034 1.6537,-2.0689 0.4134,-0.8276 0.5512,-1.7931 0.5512,-2.7587 0,-1.1034 -0.1378,-1.931 -0.5512,-2.7586 -0.4135,-0.8276 -0.9647,-1.5172 -1.6537,-2.0689 -0.689,-0.5518 -1.6537,-0.6897 -2.6183,-0.6897 -1.1025,0 -1.9293,0.2759 -2.6184,0.6897 z"
           fill="#3a9ced"
           id="path62" />
        <path
           d="m 57.1896,27.5862 c -2.2049,0 -3.9964,-0.4138 -5.6501,-1.2414 -1.6537,-0.8276 -2.8939,-1.9311 -3.7208,-3.4483 -0.8268,-1.3793 -1.378,-3.0345 -1.378,-4.8276 0,-2.069 0.4134,-3.7241 1.2402,-5.2414 0.8269,-1.5172 1.9293,-2.6207 3.3074,-3.44824 1.3781,-0.82759 3.0317,-1.24138 4.8232,-1.24138 2.0671,0 3.8586,0.41379 5.2367,1.37931 1.378,0.82761 2.3427,2.06901 2.8939,3.58621 0.5513,1.5172 0.9647,3.1724 0.9647,4.9655 0,0.2759 0,0.5517 0,0.8276 0,0.2759 0,0.5517 -0.1378,0.8276 H 51.9529 c 0.1378,0.8276 0.5513,1.3793 0.9647,1.931 0.5512,0.5517 1.1024,0.9655 1.7915,1.1035 0.689,0.2758 1.5158,0.4138 2.4805,0.4138 h 3.0297 c 1.2189,0 2.2069,0.988 2.2069,2.2069 v 0 c 0,1.2188 -0.988,2.2069 -2.2069,2.2069 z M 51.9529,16.2758 h 7.855 c 0,-0.4138 -0.1378,-0.9655 -0.2756,-1.3793 -0.1378,-0.4138 -0.2756,-0.8276 -0.5512,-1.1034 -0.2756,-0.2759 -0.5512,-0.5518 -0.8269,-0.8276 -0.2756,-0.2759 -0.689,-0.4138 -1.1024,-0.5518 -0.1378,0 -0.5512,0 -1.1025,0 -0.689,0 -1.1024,0.138 -1.6536,0.2759 -0.5513,0.2759 -0.8269,0.5517 -1.2403,0.8276 -0.2756,0.4138 -0.5512,0.8276 -0.8268,1.2414 -0.1379,0.5517 -0.1379,1.1034 -0.2757,1.5172 z"
           fill="#3a9ced"
           id="path64" />
        <path
           d="m 98.5318,24.4139 c 1.378,0 2.4802,1.1035 2.4802,2.4828 v 0.8276 c 0,1.5172 -0.413,2.8965 -1.1022,4.1379 -0.689,1.2414 -1.7914,2.2069 -3.0317,3.0345 -1.3781,0.6897 -2.894,1.1034 -4.8232,1.1034 -1.9293,0 -3.4452,-0.4137 -4.8233,-1.1034 -1.3781,-0.6897 -2.3427,-1.7931 -3.0317,-3.0345 -0.6891,-1.2414 -1.1025,-2.6207 -1.1025,-4.1379 v -0.8276 c 0,-1.3793 1.1025,-2.4828 2.4805,-2.4828 1.3781,0 2.4806,1.1035 2.4806,2.4828 v 0.8276 c 0,0.6896 0.1378,1.3793 0.5512,2.0689 0.4134,0.5518 0.8268,1.1035 1.5159,1.5173 0.5512,0.4138 1.2402,0.5517 2.0671,0.5517 0.689,0 1.378,-0.1379 2.0671,-0.5517 0.5512,-0.4138 1.1024,-0.8276 1.5158,-1.5173 0.4135,-0.5517 0.5513,-1.2413 0.5513,-2.0689 v -0.8276 c -0.2757,-1.3793 0.8268,-2.4828 2.2049,-2.4828 z"
           fill="#3a9ced"
           id="path66" />
        <path
           d="m 72.6241,26.6208 c -1.3781,0 -2.4805,-1.1034 -2.4805,-2.4828 v -8 c 0,-1.5172 0.4134,-2.8965 1.1024,-4.1379 0.689,-1.2414 1.7915,-2.20688 3.0318,-3.03447 1.378,-0.68965 2.8939,-1.10345 4.8232,-1.10345 1.9293,0 3.4452,0.4138 4.8232,1.10345 1.3781,0.68966 2.3427,1.79307 3.0318,3.03447 0.689,1.2414 1.1024,2.6207 1.1024,4.1379 v 0.8276 c 0,1.3793 -1.1024,2.4828 -2.4805,2.4828 -1.3781,0 -2.4805,-1.1035 -2.4805,-2.4828 V 16.138 c 0,-0.6896 -0.1378,-1.3793 -0.5512,-2.0689 -0.4135,-0.5517 -0.8269,-1.1035 -1.5159,-1.5173 -0.5512,-0.4138 -1.2403,-0.5517 -2.0671,-0.5517 -0.689,0 -1.3781,0.1379 -2.0671,0.5517 -0.5512,0.4138 -1.1025,0.8276 -1.5159,1.5173 -0.4134,0.5517 -0.5512,1.2414 -0.5512,2.0689 v 8 c 0.2756,1.3794 -0.8269,2.4828 -2.2049,2.4828 z"
           fill="#3a9ced"
           id="path68" />
        <path
           d="m 98.5318,19.5864 c -1.3781,0 -2.4805,-1.1035 -2.4805,-2.4828 V 16.276 c 0,-1.5172 0.4134,-2.8965 1.1024,-4.1379 0.6891,-1.2414 1.7915,-2.20688 3.0313,-3.03447 1.379,-0.68965 2.894,-1.10345 4.824,-1.10345 1.929,0 3.445,0.4138 4.823,1.10345 1.378,0.68966 2.343,1.79307 3.032,3.03447 0.689,1.2414 1.102,2.6207 1.102,4.1379 v 8 c 0,1.3794 -1.102,2.4828 -2.48,2.4828 -1.378,0 -2.481,-1.1034 -2.481,-2.4828 v -8 c 0,-0.6896 -0.138,-1.3793 -0.551,-2.0689 -0.414,-0.5517 -0.827,-1.1035 -1.516,-1.5173 -0.551,-0.4138 -1.24,-0.5517 -2.067,-0.5517 -0.689,0 -1.378,0.1379 -2.067,0.5517 -0.551,0.4138 -1.103,0.8276 -1.516,1.5173 -0.413,0.5517 -0.551,1.2414 -0.551,2.0689 v 0.8276 c 0.275,1.3793 -0.8271,2.4828 -2.2052,2.4828 z"
           fill="#3a9ced"
           id="path70" />
        <path
           d="m 128.298,27.5862 c -2.205,0 -3.996,-0.4138 -5.65,-1.2414 -1.654,-0.8276 -2.894,-1.9311 -3.721,-3.4483 -0.827,-1.3793 -1.378,-3.0345 -1.378,-4.8276 0,-2.069 0.413,-3.7241 1.24,-5.2414 0.827,-1.5172 1.93,-2.6207 3.308,-3.44824 1.378,-0.82759 3.031,-1.24138 4.823,-1.24138 2.067,0 3.859,0.41379 5.237,1.37931 1.378,0.82761 2.342,2.06901 2.894,3.58621 0.551,1.5172 0.964,3.1724 0.964,4.9655 0,0.2759 0,0.5517 0,0.8276 0,0.2759 0,0.5517 -0.138,0.8276 h -12.816 c 0.138,0.8276 0.552,1.3793 0.965,1.931 0.551,0.5517 1.102,0.9655 1.791,1.1035 0.69,0.2758 1.516,0.4138 2.481,0.4138 h 3.168 c 1.218,0 2.206,0.988 2.206,2.2069 v 0 c 0,1.2188 -0.988,2.2069 -2.206,2.2069 z m -5.237,-11.1725 h 7.855 c 0,-0.4138 -0.137,-0.9655 -0.275,-1.3793 -0.138,-0.4138 -0.276,-0.8276 -0.552,-1.1034 -0.275,-0.2759 -0.551,-0.5517 -0.826,-0.8276 -0.276,-0.2759 -0.689,-0.4138 -1.103,-0.5517 -0.138,0 -0.689,-0.138 -1.102,-0.138 -0.689,0 -1.103,0.138 -1.654,0.2759 -0.551,0.2759 -0.827,0.5517 -1.24,0.8276 -0.276,0.4138 -0.551,0.8276 -0.827,1.2414 -0.138,0.6896 -0.276,1.1034 -0.276,1.6551 z"
           fill="#3a9ced"
           id="path72" />
        <path
           d="m 148.969,28.1378 c -1.929,0 -3.583,-0.4138 -4.961,-1.1035 -1.378,-0.8275 -2.48,-1.7931 -3.169,-3.0344 -0.69,-1.2414 -1.103,-2.7587 -1.103,-4.2759 v -8.4851 c 0,-1.40797 1.141,-2.54939 2.55,-2.54939 v 0 c 1.408,0 2.549,1.14142 2.549,2.54939 v 8.3472 c 0,0.8275 0.138,1.5172 0.551,2.0689 0.414,0.6897 0.827,1.1035 1.516,1.5173 0.689,0.4138 1.378,0.5517 2.067,0.5517 0.827,0 1.516,-0.1379 2.067,-0.5517 0.689,-0.4138 1.103,-0.8276 1.516,-1.5173 0.414,-0.6896 0.551,-1.3793 0.551,-2.0689 v -8.3472 c 0,-1.40797 1.142,-2.54939 2.55,-2.54939 v 0 c 1.408,0 2.549,1.14142 2.549,2.54939 v 8.3472 c 0,1.5172 -0.413,3.0344 -1.102,4.2758 -0.689,1.2414 -1.792,2.3449 -3.17,3.0345 -1.378,0.8276 -3.032,1.2414 -4.961,1.2414 z"
           fill="#3a9ced"
           id="path74" />
        <path
           d="m 165.23,27.5861 c -1.37,0 -2.48,-1.1106 -2.48,-2.4806 V 14.0688 c 0,-1.6551 0.413,-3.0345 1.378,-4 0.964,-0.96549 2.205,-1.37929 3.996,-1.37929 h 3.03 c 1.219,0 2.207,0.98807 2.207,2.20689 v 0 c 0,1.2188 -0.988,2.2069 -2.207,2.2069 h -2.203 c -0.276,0 -0.551,0.1379 -0.827,0.2759 -0.275,0.2758 -0.413,0.5517 -0.413,0.8276 v 10.8987 c 0,1.37 -1.111,2.4806 -2.481,2.4806 z"
           fill="#3a9ced"
           id="path76" />
        <path
           d="m 185.35,28.1378 c -1.929,0 -3.721,-0.4138 -5.237,-1.3793 -1.515,-0.8276 -2.756,-2.069 -3.583,-3.5862 -0.826,-1.5172 -1.378,-3.1724 -1.378,-5.1035 0,-1.931 0.414,-3.5862 1.378,-5.1034 0.827,-1.5172 2.068,-2.6207 3.583,-3.58621 1.516,-0.82759 3.308,-1.37931 5.237,-1.37931 1.929,0 3.721,0.41379 5.237,1.37931 1.516,0.82761 2.756,2.06901 3.583,3.58621 0.827,1.5172 1.378,3.1724 1.378,5.1034 0,1.9311 -0.414,3.5863 -1.378,5.1035 -0.965,1.5172 -2.067,2.7586 -3.583,3.5862 -1.516,0.8276 -3.308,1.3793 -5.237,1.3793 z m 0,-4.4138 c 1.102,0 1.929,-0.2758 2.756,-0.6896 0.689,-0.5518 1.378,-1.1035 1.792,-2.069 0.413,-0.8276 0.551,-1.7931 0.551,-2.7586 0,-1.1035 -0.138,-1.9311 -0.551,-2.7586 -0.414,-0.8276 -0.965,-1.5173 -1.792,-2.069 -0.827,-0.5517 -1.654,-0.6897 -2.756,-0.6897 -1.102,0 -1.929,0.2759 -2.756,0.6897 -0.689,0.5517 -1.378,1.1034 -1.792,2.069 -0.413,0.8275 -0.551,1.7931 -0.551,2.7586 0,1.1034 0.138,1.931 0.551,2.7586 0.414,0.8276 0.965,1.5172 1.792,2.069 0.827,0.4138 1.654,0.6896 2.756,0.6896 z"
           fill="#3a9ced"
           id="path78" />
        <path
           d="m 199.406,25.5861 c 0,-1.3331 1.081,-2.4138 2.414,-2.4138 h 6.819 c 0.276,0 0.551,0 0.827,-0.1379 0.276,-0.1379 0.413,-0.2759 0.551,-0.5517 0.138,-0.2759 0.138,-0.4138 0.138,-0.6897 0,-0.2758 -0.138,-0.5517 -0.138,-0.8276 -0.138,-0.2758 -0.275,-0.4137 -0.551,-0.5517 -0.276,-0.1379 -0.551,-0.1379 -0.827,-0.1379 h -3.583 c -1.24,0 -2.342,-0.1379 -3.307,-0.5517 -0.965,-0.4138 -1.792,-0.9656 -2.343,-1.7931 -0.551,-0.8276 -0.827,-1.9311 -0.827,-3.3104 0,-1.1034 0.276,-2.0689 0.827,-2.8965 0.551,-0.8276 1.24,-1.5173 2.205,-2.069 0.965,-0.55172 1.929,-0.82759 3.032,-0.82759 h 6.613 c 1.218,0 2.206,0.98807 2.206,2.20689 v 0 c 0,1.2188 -0.988,2.2069 -2.206,2.2069 h -6.2 c -0.413,0 -0.689,0.1379 -0.964,0.4138 -0.276,0.2759 -0.414,0.5517 -0.414,0.9655 0,0.4138 0.138,0.6897 0.414,0.9655 0.275,0.2759 0.551,0.4138 0.964,0.4138 h 3.583 c 1.378,0 2.481,0.2759 3.583,0.5518 0.965,0.4137 1.792,1.1034 2.343,1.931 0.551,0.8276 0.827,2.069 0.827,3.4483 0,1.1034 -0.276,2.0689 -0.827,3.0344 -0.551,0.9656 -1.24,1.6552 -2.205,2.2069 -0.965,0.5518 -1.929,0.8276 -3.032,0.8276 h -7.508 c -1.333,0 -2.414,-1.0807 -2.414,-2.4138 z"
           fill="#3a9ced"
           id="path80" />
        <path
           d="m 228.208,27.5864 c -1.929,0 -3.721,-0.4138 -5.237,-1.2414 -1.516,-0.8276 -2.756,-1.931 -3.583,-3.4483 -0.827,-1.5172 -1.378,-3.0345 -1.378,-4.8276 0,-1.7931 0.414,-3.4483 1.378,-4.8276 0.827,-1.3793 2.067,-2.6207 3.583,-3.44824 1.516,-0.82759 3.308,-1.24138 5.237,-1.24138 h 0.136 c 1.219,0 2.207,0.98806 2.207,2.20692 v 0 c 0,1.2188 -0.988,2.2069 -2.207,2.2069 h -0.136 c -1.102,0 -1.929,0.2758 -2.756,0.6896 -0.827,0.4138 -1.378,1.1035 -1.792,1.7931 -0.413,0.8276 -0.551,1.6552 -0.551,2.6207 0,0.9655 0.138,1.7931 0.551,2.6207 0.414,0.8276 0.965,1.3793 1.792,1.7931 0.689,0.4138 1.654,0.6897 2.756,0.6897 h 0.136 c 1.219,0 2.207,0.988 2.207,2.2069 v 0 c 0,1.2188 -0.988,2.2069 -2.207,2.2069 z"
           fill="#3a9ced"
           id="path82" />
        <path
           d="m 236.752,6.34483 c -0.827,0 -1.654,-0.27586 -2.205,-0.96552 C 233.858,4.68966 233.583,4 233.583,3.17241 c 0,-0.82758 0.275,-1.65517 0.964,-2.206893 C 235.236,0.275862 235.925,0 236.752,0 c 0.827,0 1.654,0.275862 2.205,0.965517 0.689,0.689653 0.965,1.379313 0.965,2.206893 0,0.82759 -0.276,1.65518 -0.965,2.2069 -0.551,0.68966 -1.378,0.96552 -2.205,0.96552 z m -0.069,21.24137 c -1.408,0 -2.549,-1.1414 -2.549,-2.5494 V 11.2391 c 0,-1.40803 1.141,-2.54944 2.549,-2.54944 v 0 c 1.408,0 2.55,1.14141 2.55,2.54944 v 13.7977 c 0,1.408 -1.142,2.5494 -2.55,2.5494 z"
           fill="#3a9ced"
           id="path84" />
        <path
           d="m 253.564,27.5862 c -2.205,0 -3.996,-0.4138 -5.65,-1.2414 -1.653,-0.8276 -2.894,-1.9311 -3.721,-3.4483 -0.826,-1.3793 -1.378,-3.0345 -1.378,-4.8276 0,-2.069 0.414,-3.7241 1.241,-5.2414 0.827,-1.5172 1.929,-2.6207 3.307,-3.44824 1.378,-0.82759 3.032,-1.24138 4.823,-1.24138 2.067,0 3.859,0.41379 5.237,1.37931 1.378,0.82761 2.343,2.06901 2.894,3.58621 0.551,1.5172 0.965,3.1724 0.965,4.9655 0,0.2759 0,0.5517 0,0.8276 0,0.2759 0,0.5517 -0.138,0.8276 h -12.816 c 0.138,0.8276 0.551,1.3793 0.964,1.931 0.552,0.5517 1.103,0.9655 1.792,1.1035 0.689,0.2758 1.516,0.4138 2.48,0.4138 h 3.03 c 1.219,0 2.207,0.988 2.207,2.2069 v 0 c 0,1.2188 -0.988,2.2069 -2.207,2.2069 z m -5.236,-11.1725 h 7.855 c 0,-0.4138 -0.138,-0.9655 -0.276,-1.3793 -0.138,-0.4138 -0.276,-0.8276 -0.551,-1.1034 -0.276,-0.2759 -0.551,-0.5517 -0.827,-0.8276 -0.276,-0.2759 -0.689,-0.4138 -1.102,-0.5517 -0.414,-0.138 -0.827,-0.138 -1.241,-0.138 -0.689,0 -1.102,0.138 -1.653,0.2759 -0.552,0.2759 -0.827,0.5517 -1.241,0.8276 -0.275,0.4138 -0.551,0.8276 -0.826,1.2414 0.137,0.6896 0,1.1034 -0.138,1.6551 z"
           fill="#3a9ced"
           id="path86" />
        <path
           d="m 267.552,27.5862 c -1.408,0 -2.55,-1.1415 -2.55,-2.5495 v -8.3471 c 0,-1.5172 0.414,-3.0345 1.103,-4.2759 0.689,-1.2413 1.791,-2.3448 3.169,-3.03443 1.378,-0.82759 3.032,-1.10345 4.961,-1.10345 1.93,0 3.583,0.41379 4.961,1.10345 1.378,0.82763 2.481,1.79313 3.17,3.03443 0.689,1.2414 1.102,2.7587 1.102,4.2759 v 8.3471 c 0,1.408 -1.141,2.5495 -2.549,2.5495 v 0 c -1.408,0 -2.55,-1.1415 -2.55,-2.5495 v -8.3471 c 0,-0.8276 -0.137,-1.5172 -0.551,-2.069 -0.413,-0.6896 -0.827,-1.1034 -1.516,-1.5172 -0.689,-0.4138 -1.378,-0.5517 -2.067,-0.5517 -0.827,0 -1.516,0.1379 -2.067,0.5517 -0.689,0.4138 -1.102,0.8276 -1.516,1.5172 -0.413,0.6897 -0.551,1.3794 -0.551,2.069 v 8.3471 c 0,1.408 -1.141,2.5495 -2.549,2.5495 z"
           fill="#3a9ced"
           id="path88" />
        <path
           d="m 297.387,27.5864 c -1.929,0 -3.721,-0.4138 -5.237,-1.2414 -1.516,-0.8276 -2.756,-1.931 -3.583,-3.4483 -0.827,-1.5172 -1.378,-3.0345 -1.378,-4.8276 0,-1.7931 0.414,-3.4483 1.378,-4.8276 0.827,-1.3793 2.067,-2.6207 3.583,-3.44824 1.516,-0.82759 3.308,-1.24138 5.237,-1.24138 h 0.136 c 1.219,0 2.207,0.98806 2.207,2.20692 v 0 c 0,1.2188 -0.988,2.2069 -2.207,2.2069 h -0.136 c -1.103,0 -1.929,0.2758 -2.756,0.6896 -0.689,0.4138 -1.378,1.1035 -1.792,1.7931 -0.413,0.8276 -0.551,1.6552 -0.551,2.6207 0,0.9655 0.138,1.7931 0.551,2.6207 0.414,0.8276 0.965,1.3793 1.792,1.7931 0.689,0.4138 1.653,0.6897 2.756,0.6897 h 0.136 c 1.219,0 2.207,0.988 2.207,2.2069 v 0 c 0,1.2188 -0.988,2.2069 -2.207,2.2069 z"
           fill="#3a9ced"
           id="path90" />
        <path
           d="m 312.821,27.5862 c -2.205,0 -3.996,-0.4138 -5.65,-1.2414 -1.654,-0.8276 -2.894,-1.9311 -3.721,-3.4483 -0.827,-1.3793 -1.378,-3.0345 -1.378,-4.8276 0,-2.069 0.414,-3.7241 1.241,-5.2414 0.826,-1.5172 1.929,-2.6207 3.307,-3.44824 1.378,-0.82759 3.032,-1.24138 4.823,-1.24138 2.067,0 3.859,0.41379 5.237,1.37931 1.378,0.82761 2.342,2.06901 2.894,3.58621 0.551,1.5172 0.964,3.1724 0.964,4.9655 0,0.2759 0,0.5517 0,0.8276 0,0.2759 0,0.5517 -0.137,0.8276 h -12.816 c 0.137,0.8276 0.551,1.3793 0.964,1.931 0.551,0.5517 1.103,0.9655 1.792,1.1035 0.689,0.2758 1.516,0.4138 2.48,0.4138 h 3.03 c 1.219,0 2.207,0.988 2.207,2.2069 v 0 c 0,1.2188 -0.988,2.2069 -2.207,2.2069 z m -5.236,-11.1725 h 7.854 c 0,-0.4138 -0.137,-0.9655 -0.275,-1.3793 -0.138,-0.4138 -0.276,-0.8276 -0.551,-1.1034 -0.276,-0.2759 -0.552,-0.5517 -0.827,-0.8276 -0.276,-0.2759 -0.689,-0.4138 -1.103,-0.5517 -0.413,-0.138 -0.826,-0.138 -1.24,-0.138 -0.689,0 -1.102,0.138 -1.654,0.2759 -0.551,0.2759 -0.826,0.5517 -1.24,0.8276 -0.275,0.4138 -0.551,0.8276 -0.827,1.2414 0,0.6896 0,1.1034 -0.137,1.6551 z"
           fill="#3a9ced"
           id="path92" />
      </g>
    </g>
  </g>
</svg>
