<svg width="200" height="176" viewBox="0 0 200 176" fill="none" xmlns="http://www.w3.org/2000/svg">
<circle cx="90" cy="84" r="84" fill="#E8F5FF"/>
<g opacity="0.5">
<path opacity="0.5" d="M76.7548 53.2146L50.6201 70.2203C50.3644 69.1684 49.7683 68.2301 48.9244 67.5509C49.2306 66.7314 49.2803 65.8383 49.0668 64.9899C49.0276 64.7457 48.9324 64.5138 48.7887 64.3124C48.6537 64.1858 48.49 64.0939 48.3116 64.0443C48.1333 63.9948 47.9455 63.9891 47.7645 64.0278L43.6133 64.2988C43.13 64.2756 42.6527 64.4139 42.2567 64.6918C41.6734 65.1796 41.497 66.2026 40.9001 66.6363C40.5 66.9208 39.9912 66.8937 39.5436 67.1173C38.5872 67.6254 38.3769 69.1499 38.3023 70.3897C38.2005 72.0835 38.2073 74.0754 39.3129 75.1324C40.1201 75.8844 41.2393 75.8099 42.2567 75.7557L43.281 75.6744C43.5398 75.8278 43.8123 75.9571 44.0949 76.0606V77.5037H43.905C43.905 77.5037 32.1908 74.1161 19.3236 109.51H19.0997C19.0997 109.51 17.2005 115.946 20.2393 114.815C22.8846 113.825 22.9525 110.526 22.905 109.699H23.0813C23.0813 109.699 28.3924 94.1706 36.7354 92.2736C36.7354 92.2736 42.8062 99.8483 32.9437 114.998H40.6627C40.6383 116.692 40.9808 118.373 41.6666 119.923C43.9389 124.469 37.1153 167.648 37.1153 167.648H42.8062L45.6686 153.338L46.0281 167.648H50.1996L54.3711 140.134L53.8013 106.989V98.4051L54.561 99.4146V86.1556H65.5562L67.4554 71.3857H67.2587C67.3052 70.3541 67.2621 69.3204 67.1298 68.2962L81.3062 65.3219C83.5378 55.8569 76.7548 53.2146 76.7548 53.2146ZM64.342 71.616L61.0184 80.1053C61.0184 80.1053 51.9157 75.9386 48.5038 77.4562H48.3139V75.654C49.0117 75.2513 49.5999 74.6836 50.0268 74.0008C50.4538 73.318 50.7064 72.541 50.7626 71.738L64.4302 68.8721C64.2533 69.7736 64.2212 70.6976 64.3353 71.6092L64.342 71.616Z" fill="url(#paint0_linear)"/>
</g>
<path d="M20.5715 109.495C20.5715 109.495 18.7673 115.627 21.6568 114.55C24.5464 113.472 24.1869 109.495 24.1869 109.495H20.5715Z" fill="#FDA57D"/>
<path d="M48.3964 76.6565H44.4216V80.2677H48.3964V76.6565Z" fill="#FDA57D"/>
<path d="M44.4143 96.5073H41.1653V112.748H44.4143V96.5073Z" fill="#4D8AF0"/>
<path opacity="0.1" d="M44.4143 96.5073H41.1653V112.748H44.4143V96.5073Z" fill="black"/>
<path d="M45.9679 79.0071H49.7257C50.7601 79.0071 51.7521 79.4175 52.4835 80.1481C53.215 80.8787 53.6259 81.8696 53.6259 82.9028V107.151H42.0948V82.9028C42.0948 81.8743 42.502 80.8875 43.2276 80.1577C43.9532 79.4278 44.9382 79.0142 45.9679 79.0071Z" fill="white"/>
<path d="M46.0418 77.9164C48.6342 77.9164 50.7356 75.8173 50.7356 73.228C50.7356 70.6386 48.6342 68.5396 46.0418 68.5396C43.4495 68.5396 41.348 70.6386 41.348 73.228C41.348 75.8173 43.4495 77.9164 46.0418 77.9164Z" fill="#FDA57D"/>
<path d="M44.2373 79.0071C44.2373 79.0071 33.0387 75.7618 20.7548 109.678H24.3701C24.3701 109.678 29.4302 94.8813 37.373 93.0791C37.373 93.0791 43.1521 100.295 33.7577 114.76H41.3478V109.922C41.3036 102.59 42.2156 95.284 44.061 88.1875C44.9312 85.1967 44.9921 82.029 44.2373 79.0071V79.0071Z" fill="#4D8AF0"/>
<path d="M48.5724 79.0076V80.0916C48.5724 80.0916 51.1024 91.2774 53.2662 98.493L54.3718 99.9632V87.3072H64.8515L66.6557 73.2351H63.7662L60.4765 81.5279C60.4765 81.5279 51.8214 77.5577 48.5724 79.0076Z" fill="#4D8AF0"/>
<path d="M42.0677 107.151C42.0677 107.151 39.8972 115.092 42.0677 119.421C44.2383 123.751 37.7334 164.89 37.7334 164.89H43.1598L50.9262 126.095L52.1879 107.124L42.0677 107.151Z" fill="#333333"/>
<path d="M53.6328 107.151L54.1754 138.724L50.2006 164.89H46.2258L44.781 107.151H53.6328Z" fill="#333333"/>
<path d="M45.2759 71.4391C45.3722 71.2826 45.491 71.141 45.6286 71.0191C45.7644 70.9395 45.9189 70.8975 46.0763 70.8971C47.0598 70.8158 48.1926 70.7955 48.7895 69.8673C49.2281 69.034 49.3347 68.0658 49.0879 67.1572C49.0558 66.9134 48.965 66.6809 48.8234 66.4797C48.6946 66.359 48.5385 66.2713 48.3684 66.2241C48.1983 66.1769 48.0193 66.1716 47.8466 66.2087L43.8922 66.4661C43.44 66.4489 42.9946 66.5798 42.6238 66.8388C42.0676 67.3063 41.9048 68.2751 41.3214 68.6952C40.9348 68.9662 40.4532 68.9391 40.0462 69.1559C39.1373 69.6369 38.9406 71.0733 38.866 72.2725C38.771 73.885 38.771 75.782 39.8292 76.7644C40.5957 77.4826 41.6606 77.442 42.6305 77.3607L44.4348 77.2116C44.6169 77.2165 44.7955 77.1618 44.9435 77.0558C45.0577 76.9034 45.1384 76.7287 45.1805 76.5431C45.2226 76.3575 45.225 76.1651 45.1877 75.9785C45.1402 75.0706 45.0453 74.0408 44.4484 73.4852C44.306 73.3784 44.1763 73.2556 44.0617 73.1194C43.4174 72.1167 44.9367 71.8863 45.2759 71.4391Z" fill="#333333"/>
<path d="M75.4866 55.9241C75.4866 55.9241 81.9914 58.4512 79.8209 67.4419L50.5592 73.5734V72.1303L75.4866 55.9241Z" fill="#F55F44"/>
<path d="M45.0003 168.875L55.3472 168.874V168.752C55.3472 168.26 55.243 167.772 55.0406 167.316C54.8382 166.861 54.5416 166.447 54.1676 166.099C53.7936 165.751 53.3497 165.474 52.861 165.286C52.3724 165.097 51.8487 165 51.3198 165H51.3196L45.0001 165L45.0003 168.875Z" fill="#2F2E41"/>
<path d="M37.0002 167.735L45.7282 170.141L45.7606 170.024C45.8916 169.549 45.9334 169.054 45.8837 168.568C45.834 168.082 45.6937 167.614 45.4708 167.191C45.248 166.769 44.9469 166.399 44.5849 166.103C44.2229 165.808 43.8069 165.593 43.3608 165.47L43.3605 165.47L38.0298 164L37.0002 167.735Z" fill="#2F2E41"/>
<path d="M66.6012 73C66.6012 73 67.8943 68.2664 65.8234 69.098C63.7526 69.9297 64.0102 73 64.0102 73L66.6012 73Z" fill="#FDA57D"/>
<path d="M97.0634 58.1334L97.2973 58.0111L97.236 58.0127L97.2519 58L97.2178 58.0127L90 58.2208L90.554 59.8376L91.1307 61.2591L91.528 61.051L92.0866 61.6434L97.0634 58.1334Z" fill="url(#paint1_linear)"/>
<path d="M90 60.0585L90.6136 61.6434L97.2973 58L90.9665 58.9026L90 60.0585Z" fill="#6C63FF"/>
<path opacity="0.2" d="M90 60.0585L90.6136 61.6434L97.2973 58L90.9665 58.9026L90 60.0585Z" fill="black"/>
<path d="M90 58.3056L97.2973 58L90.5435 60.429L90 58.3056Z" fill="#6C63FF"/>
<path d="M93.4064 61.6434L97.2972 58L92.4324 60.2707L93.4064 61.6434Z" fill="#6C63FF"/>
<g opacity="0.2">
<path opacity="0.2" d="M93.3578 64.9515L93.5761 64.7864L93.5189 64.7885L93.5359 64.7737L93.502 64.7906L86.7662 65.0658L87.2834 67.221L87.8196 69.1179L88.1905 68.8405L88.714 69.6302L93.3578 64.9515Z" fill="url(#paint2_linear)"/>
<path opacity="0.2" d="M87.4952 67.1424L87.9891 68.8762L93.3684 64.8877L88.2731 65.8764L87.4952 67.1424Z" fill="#6C63FF"/>
<path opacity="0.2" d="M87.4952 67.1424L87.9891 68.8762L93.3684 64.8877L88.2731 65.8764L87.4952 67.1424Z" fill="black"/>
<path opacity="0.2" d="M87.0231 65.1714L93.3688 64.8877L87.4957 67.1424L87.0231 65.1714Z" fill="#6C63FF"/>
<path opacity="0.2" d="M88.8182 69.3425L93.3305 64.8755L87.6885 67.6594L88.8182 69.3425Z" fill="#6C63FF"/>
</g>
<g opacity="0.3">
<path opacity="0.3" d="M111.306 88.4635L111.522 88.3005L111.465 88.3026L111.482 88.2856L111.448 88.3026L104.712 88.5799L105.23 90.7351L105.768 92.6319L106.137 92.3525L106.66 93.1443L111.306 88.4635Z" fill="url(#paint3_linear)"/>
<path opacity="0.3" d="M105.441 90.6543L105.935 92.3903L111.317 88.3997L106.219 89.3883L105.441 90.6543Z" fill="#6C63FF"/>
<path opacity="0.2" d="M105.441 90.6543L105.935 92.3903L111.317 88.3997L106.219 89.3883L105.441 90.6543Z" fill="black"/>
<path opacity="0.3" d="M104.969 88.6833L111.317 88.3997L105.441 90.6543L104.969 88.6833Z" fill="#6C63FF"/>
<path opacity="0.3" d="M106.764 92.8538L111.277 88.3889L105.635 91.1707L106.764 92.8538Z" fill="#6C63FF"/>
</g>
<g opacity="0.3">
<path opacity="0.3" d="M166.775 100.105L166.993 99.9399L166.936 99.9421L166.953 99.9272L166.919 99.9421L160.183 100.219L160.7 102.375L161.237 104.271L161.608 103.994L162.129 104.784L166.775 100.105Z" fill="url(#paint4_linear)"/>
<path opacity="0.3" d="M160.913 102.296L161.407 104.03L166.786 100.04L161.691 101.028L160.913 102.296Z" fill="#6C63FF"/>
<path opacity="0.2" d="M160.913 102.296L161.407 104.03L166.786 100.04L161.691 101.028L160.913 102.296Z" fill="black"/>
<path opacity="0.3" d="M160.44 100.325L166.786 100.04L160.913 102.296L160.44 100.325Z" fill="#6C63FF"/>
<path opacity="0.3" d="M162.235 104.496L166.748 100.029L161.105 102.811L162.235 104.496Z" fill="#6C63FF"/>
</g>
<g opacity="0.5">
<path opacity="0.5" d="M147.023 115.784L147.197 115.744L147.163 115.729L147.176 115.725H147.151L143.043 114.125L142.784 115.551L142.609 116.828L142.903 116.758L143.009 117.37L147.023 115.784Z" fill="url(#paint5_linear)"/>
<path opacity="0.5" d="M142.933 115.56L142.774 116.728L147.047 115.75L143.732 115.005L142.933 115.56Z" fill="#6C63FF"/>
<path opacity="0.2" d="M142.933 115.56L142.774 116.728L147.047 115.75L143.732 115.005L142.933 115.56Z" fill="black"/>
<path opacity="0.5" d="M143.168 114.254L147.047 115.751L142.933 115.56L143.168 114.254Z" fill="#6C63FF"/>
<path opacity="0.5" d="M143.147 117.224L147.026 115.731L142.914 115.92L143.147 117.224Z" fill="#6C63FF"/>
</g>
<g opacity="0.5">
<path opacity="0.5" d="M142.363 86.4519L142.537 86.4096L142.501 86.3969L142.516 86.3905L142.49 86.3926L138.381 84.79L138.124 86.2169L137.948 87.4956L138.243 87.4258L138.349 88.0355L142.363 86.4519Z" fill="url(#paint6_linear)"/>
<path opacity="0.5" d="M138.273 86.2253L138.112 87.3939L142.387 86.4159L139.072 85.6707L138.273 86.2253Z" fill="#6C63FF"/>
<path opacity="0.2" d="M138.273 86.2253L138.112 87.3939L142.387 86.4159L139.072 85.6707L138.273 86.2253Z" fill="black"/>
<path opacity="0.5" d="M138.508 84.9216L142.386 86.4163L138.272 86.2257L138.508 84.9216Z" fill="#6C63FF"/>
<path opacity="0.5" d="M138.487 87.8914L142.365 86.3989L138.251 86.5852L138.487 87.8914Z" fill="#6C63FF"/>
</g>
<g opacity="0.2">
<path opacity="0.2" d="M181.052 62.0062L181.226 61.966L181.192 61.9533L181.205 61.9469L181.18 61.949L177.07 60.3464L176.813 61.7733L176.637 63.052L176.932 62.9822L177.038 63.5919L181.052 62.0062Z" fill="url(#paint7_linear)"/>
<path opacity="0.2" d="M176.962 61.7817L176.801 62.9503L181.076 61.9723L177.761 61.2271L176.962 61.7817Z" fill="#6C63FF"/>
<path opacity="0.2" d="M176.962 61.7817L176.801 62.9503L181.076 61.9723L177.761 61.2271L176.962 61.7817Z" fill="black"/>
<path opacity="0.2" d="M177.197 60.4758L181.076 61.9726L176.962 61.7821L177.197 60.4758Z" fill="#6C63FF"/>
<path opacity="0.2" d="M177.176 63.448L181.055 61.9534L176.943 62.1418L177.176 63.448Z" fill="#6C63FF"/>
</g>
<path d="M120.602 66.719L120.866 66.7742L120.823 66.7344L120.845 66.7368L120.81 66.7229L115.646 62.1606L114.667 63.8003L113.866 65.3007L114.317 65.3938L114.204 66.2289L120.602 66.719Z" fill="url(#paint8_linear)"/>
<path d="M114.192 64.2104L113.42 65.6744L120.501 67.29L115.684 64.0118L114.192 64.2104Z" fill="#6C63FF"/>
<path opacity="0.2" d="M114.192 64.2104L113.42 65.6744L120.501 67.29L115.684 64.0118L114.192 64.2104Z" fill="black"/>
<path d="M115.646 62.1606L120.988 66.6023L114.965 63.3749L115.646 62.1606Z" fill="#6C63FF"/>
<path d="M114.02 66.0989L120.501 67.29L114.057 64.4014L114.02 66.0989Z" fill="#6C63FF"/>
<path d="M135.888 99.3332L136.486 99.3717L136.387 99.2904L136.438 99.2862L136.356 99.2648L124.709 89.6489L122.49 94.2057L120.676 98.3436L121.692 98.4077L121.435 100.579L135.888 99.3332Z" fill="url(#paint9_linear)"/>
<path d="M122.457 94.1605L120.676 97.2731L136.486 98.1502L125.807 93.2922L122.457 94.1605Z" fill="#6C63FF"/>
<path opacity="0.2" d="M122.457 94.1605L120.676 97.2731L136.486 98.1502L125.807 93.2922L122.457 94.1605Z" fill="black"/>
<path d="M125.191 89.6489L136.487 98.1503L123.108 93.5773L125.191 89.6489Z" fill="#6C63FF"/>
<path d="M123.108 98.1503L136.487 97.3097L123.609 94.5068L123.108 98.1503Z" fill="#6C63FF"/>
<path d="M188.618 134.848L190 134.889L189.766 134.733L189.879 134.721L189.692 134.684L162.225 116.367L157.417 125.537L153.514 133.846L155.855 133.913L155.41 138.228L188.618 134.848Z" fill="url(#paint10_linear)"/>
<path d="M160.357 125.914L157.162 133.414L187.568 134.585L166.72 123.654L160.357 125.914Z" fill="#6C63FF"/>
<path opacity="0.2" d="M160.357 125.914L157.162 133.414L187.568 134.585L166.72 123.654L160.357 125.914Z" fill="black"/>
<path d="M162.607 116.367L187.568 134.585L158.378 125.262L162.607 116.367Z" fill="#6C63FF"/>
<path d="M158.378 138.228L187.568 134.676L159.192 127.298L158.378 138.228Z" fill="#6C63FF"/>
<path d="M163.919 62.2677L164.459 62.0148L164.336 61.992L164.379 61.965L164.298 61.9858L149.865 59.2869L149.933 64.2514L150.169 68.6605L151.086 68.2334L151.82 70.2172L163.919 62.2677Z" fill="url(#paint11_linear)"/>
<path d="M151.081 63.2111L151.298 67.7883L164.459 60.8872L153.31 60.5015L151.081 63.2111Z" fill="#6C63FF"/>
<path opacity="0.2" d="M151.081 63.2111L151.298 67.7883L164.459 60.8872L153.31 60.5015L151.081 63.2111Z" fill="black"/>
<path d="M151.081 59.2869L164.459 61.9532L151.142 64.1448L151.081 59.2869Z" fill="#6C63FF"/>
<path d="M152.684 70.2173L164.459 60.5015L151.081 64.7686L152.684 70.2173Z" fill="#6C63FF"/>
<path d="M183.286 79.2704L183.919 79.0195L183.775 78.9967L183.822 78.9677L183.731 78.9884L166.892 76.2896L166.972 81.2541L167.247 85.6631L168.317 85.2382L169.173 87.2199L183.286 79.2704Z" fill="url(#paint12_linear)"/>
<path d="M166.892 82.1911L167.107 86.0055L180.27 80.2546L169.12 79.9331L166.892 82.1911Z" fill="#6C63FF"/>
<path opacity="0.2" d="M166.892 82.1911L167.107 86.0055L180.27 80.2546L169.12 79.9331L166.892 82.1911Z" fill="black"/>
<path d="M166.892 76.2896L180.27 79.6224L166.955 82.362L166.892 76.2896Z" fill="#6C63FF"/>
<path d="M168.495 87.22L180.27 79.9331L166.892 83.1324L168.495 87.22Z" fill="#6C63FF"/>
<path d="M101.463 79.2399L101.751 79.2436L101.704 79.2075L101.726 79.2038L101.688 79.1955L96.2953 74.8596L95.132 77.1179L94.169 79.1616L94.6556 79.1669L94.4847 80.2226L101.463 79.2399Z" fill="url(#paint13_linear)"/>
<path d="M94.309 78.2138L93.5849 79.6915L98.4634 79.3564L95.4001 77.669L94.309 78.2138Z" fill="#6C63FF"/>
<path opacity="0.2" d="M94.309 78.2138L93.5849 79.6915L98.4634 79.3564L95.4001 77.669L94.309 78.2138Z" fill="black"/>
<path d="M96.2953 74.8596L99.3225 77.9055L94.96 77.2872L96.2953 74.8596Z" fill="#6C63FF"/>
<path d="M93.9648 79.9158L98.4634 79.3564L94.1901 78.4147L93.9648 79.9158Z" fill="#6C63FF"/>
<path d="M139.918 75.1177L140.135 74.9606L140.086 74.9499L140.101 74.9339L140.068 74.9472L134.054 73.8606L134.184 76.6438L134.373 79.11L134.742 78.8437L135.086 79.933L139.918 75.1177Z" fill="url(#paint14_linear)"/>
<path d="M134.054 76.3338L134.244 79.933L140.135 73.8606L135.021 74.0901L134.054 76.3338Z" fill="#6C63FF"/>
<path opacity="0.2" d="M134.054 76.3338L134.244 79.933L140.135 73.8606L135.021 74.0901L134.054 76.3338Z" fill="black"/>
<path d="M134.054 73.8606L140.135 74.8093L134.183 76.2896L134.054 73.8606Z" fill="#6C63FF"/>
<path d="M134.89 79.933L140.135 73.8606L134.054 76.8509L134.89 79.933Z" fill="#6C63FF"/>
<defs>
<linearGradient id="paint0_linear" x1="50.1385" y1="167.593" x2="50.1385" y2="53.2011" gradientUnits="userSpaceOnUse">
<stop stop-color="#808080" stop-opacity="0.25"/>
<stop offset="0.54" stop-color="#808080" stop-opacity="0.12"/>
<stop offset="1" stop-color="#808080" stop-opacity="0.1"/>
</linearGradient>
<linearGradient id="paint1_linear" x1="5225.73" y1="1056.01" x2="5211.61" y2="971.832" gradientUnits="userSpaceOnUse">
<stop stop-color="#808080" stop-opacity="0.25"/>
<stop offset="0.54" stop-color="#808080" stop-opacity="0.12"/>
<stop offset="1" stop-color="#808080" stop-opacity="0.1"/>
</linearGradient>
<linearGradient id="paint2_linear" x1="5034.39" y1="1568.33" x2="5008.25" y2="1459.18" gradientUnits="userSpaceOnUse">
<stop stop-color="#808080" stop-opacity="0.25"/>
<stop offset="0.54" stop-color="#808080" stop-opacity="0.12"/>
<stop offset="1" stop-color="#808080" stop-opacity="0.1"/>
</linearGradient>
<linearGradient id="paint3_linear" x1="5576.34" y1="2102.14" x2="5550.21" y2="1992.98" gradientUnits="userSpaceOnUse">
<stop stop-color="#808080" stop-opacity="0.25"/>
<stop offset="0.54" stop-color="#808080" stop-opacity="0.12"/>
<stop offset="1" stop-color="#808080" stop-opacity="0.1"/>
</linearGradient>
<linearGradient id="paint4_linear" x1="7362.99" y1="2256.46" x2="7336.87" y2="2147.35" gradientUnits="userSpaceOnUse">
<stop stop-color="#808080" stop-opacity="0.25"/>
<stop offset="0.54" stop-color="#808080" stop-opacity="0.12"/>
<stop offset="1" stop-color="#808080" stop-opacity="0.1"/>
</linearGradient>
<linearGradient id="paint5_linear" x1="3999" y1="3073.69" x2="4007.68" y2="3025.39" gradientUnits="userSpaceOnUse">
<stop stop-color="#808080" stop-opacity="0.25"/>
<stop offset="0.54" stop-color="#808080" stop-opacity="0.12"/>
<stop offset="1" stop-color="#808080" stop-opacity="0.1"/>
</linearGradient>
<linearGradient id="paint6_linear" x1="3867.25" y1="2583.35" x2="3875.93" y2="2535.08" gradientUnits="userSpaceOnUse">
<stop stop-color="#808080" stop-opacity="0.25"/>
<stop offset="0.54" stop-color="#808080" stop-opacity="0.12"/>
<stop offset="1" stop-color="#808080" stop-opacity="0.1"/>
</linearGradient>
<linearGradient id="paint7_linear" x1="4712.69" y1="2229.14" x2="4721.37" y2="2180.84" gradientUnits="userSpaceOnUse">
<stop stop-color="#808080" stop-opacity="0.25"/>
<stop offset="0.54" stop-color="#808080" stop-opacity="0.12"/>
<stop offset="1" stop-color="#808080" stop-opacity="0.1"/>
</linearGradient>
<linearGradient id="paint8_linear" x1="3583.69" y1="4890.51" x2="3634.75" y2="4809.19" gradientUnits="userSpaceOnUse">
<stop stop-color="#808080" stop-opacity="0.25"/>
<stop offset="0.54" stop-color="#808080" stop-opacity="0.12"/>
<stop offset="1" stop-color="#808080" stop-opacity="0.1"/>
</linearGradient>
<linearGradient id="paint9_linear" x1="8138.04" y1="13403.5" x2="8408.34" y2="12899.6" gradientUnits="userSpaceOnUse">
<stop stop-color="#808080" stop-opacity="0.25"/>
<stop offset="0.54" stop-color="#808080" stop-opacity="0.12"/>
<stop offset="1" stop-color="#808080" stop-opacity="0.1"/>
</linearGradient>
<linearGradient id="paint10_linear" x1="23525.7" y1="32824.2" x2="24495.8" y2="30575.2" gradientUnits="userSpaceOnUse">
<stop stop-color="#808080" stop-opacity="0.25"/>
<stop offset="0.54" stop-color="#808080" stop-opacity="0.12"/>
<stop offset="1" stop-color="#808080" stop-opacity="0.1"/>
</linearGradient>
<linearGradient id="paint11_linear" x1="14524.9" y1="6129.19" x2="14518.9" y2="5551.42" gradientUnits="userSpaceOnUse">
<stop stop-color="#808080" stop-opacity="0.25"/>
<stop offset="0.54" stop-color="#808080" stop-opacity="0.12"/>
<stop offset="1" stop-color="#808080" stop-opacity="0.1"/>
</linearGradient>
<linearGradient id="paint12_linear" x1="18220.3" y1="7024.01" x2="18215.2" y2="6446.22" gradientUnits="userSpaceOnUse">
<stop stop-color="#808080" stop-opacity="0.25"/>
<stop offset="0.54" stop-color="#808080" stop-opacity="0.12"/>
<stop offset="1" stop-color="#808080" stop-opacity="0.1"/>
</linearGradient>
<linearGradient id="paint13_linear" x1="2834.55" y1="5123.08" x2="2891.35" y2="5008.52" gradientUnits="userSpaceOnUse">
<stop stop-color="#808080" stop-opacity="0.25"/>
<stop offset="0.54" stop-color="#808080" stop-opacity="0.12"/>
<stop offset="1" stop-color="#808080" stop-opacity="0.1"/>
</linearGradient>
<linearGradient id="paint14_linear" x1="5616.97" y1="3192.92" x2="5604.2" y2="3053.52" gradientUnits="userSpaceOnUse">
<stop stop-color="#808080" stop-opacity="0.25"/>
<stop offset="0.54" stop-color="#808080" stop-opacity="0.12"/>
<stop offset="1" stop-color="#808080" stop-opacity="0.1"/>
</linearGradient>
</defs>
</svg>
