<svg width="370" height="248" viewBox="0 0 370 248" fill="none" xmlns="http://www.w3.org/2000/svg">
<g clip-path="url(#clip0)">
<path opacity="0.1" d="M219.257 39.6898C196.192 38.8882 174.225 31.4454 153.245 23.3008C132.265 15.1562 111.492 6.13159 88.98 1.81701C74.5005 -0.958431 57.9432 -1.35034 46.2755 6.40949C35.0497 13.8914 31.4218 26.771 29.4688 38.7314C28.0041 47.7347 27.1381 57.2047 31.1616 65.6307C33.952 71.4809 38.9092 76.3976 42.3376 82.0019C54.2619 101.498 45.8336 125.54 32.9078 144.576C26.8495 153.504 19.8146 162.034 15.1354 171.532C10.4562 181.031 8.29298 191.929 12.3842 201.627C16.4433 211.247 26.1118 218.458 36.5821 223.535C57.8541 233.846 82.9109 236.799 107.365 238.47C161.47 242.172 215.868 240.569 270.115 238.966C290.193 238.371 310.357 237.769 330.107 234.665C341.077 232.941 352.402 230.205 360.364 223.621C370.47 215.237 372.976 201.039 366.205 190.529C354.843 172.897 323.44 168.514 315.489 149.592C311.116 139.178 315.606 127.574 321.957 117.915C335.585 97.1902 358.425 79.0127 359.63 55.3235C360.456 39.0556 349.476 22.7628 332.499 15.0636C314.701 6.99379 290.026 8.0092 276.904 21.3662C263.376 35.1045 239.62 40.3953 219.257 39.6898Z" fill="#6C63FF"/>
<path d="M159.916 232.114C159.56 230.825 159.204 229.521 158.491 228.398C157.83 227.447 157.045 226.588 156.157 225.844C153.573 223.499 150.401 221.119 146.976 221.711C145.917 221.945 144.894 222.319 143.933 222.822C143.434 223.054 142.932 223.286 142.418 223.482C140.974 224.085 139.377 224.225 137.85 223.881C137.066 223.67 136.335 223.293 135.562 223.058C135.195 222.947 134.819 222.866 134.439 222.815C135.186 222.481 135.911 222.099 136.609 221.672C140.451 219.32 143.516 215.07 143.088 210.524C142.942 208.995 142.418 207.531 141.898 206.088L140.53 202.304C139.938 200.665 139.325 198.994 138.245 197.633C137.044 196.116 135.334 195.086 133.566 194.32C129.771 192.67 125.622 192.09 121.528 191.527L121.243 191.487V147.262C121.243 146.506 120.942 145.781 120.408 145.247C119.873 144.712 119.148 144.412 118.392 144.412H113.01C112.773 142.958 112.535 141.507 112.298 140.058C111.62 135.922 110.918 131.71 109.012 127.987C107.764 125.55 105.779 123.224 103.103 122.746C102.577 122.699 102.06 122.579 101.567 122.39C100.783 122.005 100.355 121.15 99.7531 120.52C98.1993 118.891 95.6726 118.866 93.5913 118.026C91.7524 117.295 90.2485 115.92 88.5736 114.862C86.8986 113.804 84.8174 113.052 82.9642 113.739C82.9642 113.875 82.9393 114.01 82.925 114.142L81.7347 113.593C80.4518 112.998 79.1439 112.389 78.1139 111.413C76.7918 110.166 76.0862 108.513 75.5373 106.756C75.4803 106.575 75.4269 106.4 75.3699 106.204C77.6478 103.881 79.1898 100.937 79.8032 97.7424L80.0918 98.6794C80.1568 98.89 80.2329 99.0969 80.3199 99.2994C80.4673 99.6909 80.7127 100.038 81.0327 100.308C81.124 100.379 81.2247 100.438 81.332 100.482C81.4304 100.521 81.5334 100.548 81.6385 100.561C81.7865 100.579 81.9366 100.568 82.0804 100.529C82.3214 100.454 82.5425 100.326 82.7276 100.155C82.9126 99.9834 83.0568 99.7726 83.1495 99.5381C83.2064 99.398 83.2482 99.2523 83.2743 99.1034C83.288 99.0137 83.2964 98.9233 83.2992 98.8326C83.2992 98.8041 83.2992 98.7756 83.2992 98.7471C83.2992 98.7186 83.2992 98.6224 83.2992 98.5619C83.2992 98.5013 83.2992 98.4977 83.2992 98.4621C83.2992 98.4265 83.2992 98.3445 83.2814 98.284V98.1913C83.2814 98.1201 83.26 98.0488 83.2458 97.9811C83.2315 97.9134 83.2458 97.9419 83.2458 97.9241C83.2279 97.8351 83.2066 97.7424 83.1887 97.6533C83.1887 97.632 83.1887 97.607 83.1887 97.5857C83.1887 97.5643 83.1567 97.4396 83.1388 97.3648C83.121 97.2899 83.1139 97.2686 83.1032 97.2187V97.1973C83.0676 97.0548 83.0355 96.9158 83.0034 96.7733C82.7444 95.5368 82.6783 94.2677 82.8074 93.011C83.0207 91.1667 83.3613 89.3394 83.8266 87.5421L83.9015 87.2178C83.93 87.0931 83.9585 86.9684 83.9834 86.8402C84.0405 86.5837 84.0975 86.3271 84.1509 86.0671L84.2792 85.4115L84.3755 84.8272V84.7524C84.5755 83.4283 84.6174 82.0852 84.5002 80.7513C84.3363 78.888 83.7589 77.1244 82.4938 75.7206C81.5993 74.7266 80.4197 73.9926 79.5893 72.9487C78.8124 71.9725 78.3741 70.7683 77.5687 69.8099C75.3449 67.1556 69.6358 65.1105 66.1326 64.7542C62.1198 64.3481 55.6373 65.3742 52.4014 67.7434C51.204 68.6163 50.3843 69.8811 49.5504 71.0783C48.018 73.305 46.2789 75.5282 43.8235 76.7788C42.8969 77.2491 41.8349 77.6053 41.2184 78.4248C40.8516 78.9803 40.6141 79.6109 40.5234 80.2703C40.0513 82.5902 39.8054 84.9503 39.7893 87.3176C39.7893 87.6133 39.7893 87.909 39.7893 88.2083C39.7966 89.0959 39.9858 89.9726 40.3452 90.7842C40.4023 90.9054 40.4664 91.0229 40.5341 91.1405L40.5769 91.2153C41.0079 91.8313 41.3893 92.4806 41.7173 93.1571C41.799 93.3465 41.8576 93.5451 41.8919 93.7485C41.953 94.2704 41.9192 94.7991 41.7921 95.309C41.7921 95.3874 41.7601 95.4658 41.7458 95.5442L41.7137 95.6974C41.7137 95.7508 41.7137 95.8042 41.6852 95.8541C41.6567 96.0073 41.6318 96.1605 41.6104 96.3102C41.5563 96.7223 41.583 97.141 41.6888 97.5429C41.7376 97.7669 41.8333 97.9779 41.9697 98.1621C42.1061 98.3464 42.28 98.4996 42.4799 98.6117C42.6829 98.7091 42.899 98.7763 43.1214 98.8113C43.3459 98.8505 43.574 98.8754 43.795 98.9253C44.0791 98.99 44.3535 99.0918 44.6111 99.2281C44.8578 99.3462 45.0889 99.4946 45.2989 99.6699C45.4028 99.7643 45.5015 99.8642 45.5947 99.9692C45.7829 100.185 45.9522 100.416 46.1007 100.66C46.1767 100.786 46.248 100.915 46.3145 101.045C46.5699 101.561 46.774 102.1 46.9239 102.656C47.0166 102.987 47.095 103.322 47.1627 103.657C47.1948 103.806 47.2233 103.956 47.2482 104.102C47.2732 104.248 47.2981 104.398 47.3195 104.544C47.4168 104.538 47.5127 104.519 47.6046 104.487C48.1285 104.298 48.4207 103.689 48.5846 103.097C48.6132 102.998 48.6381 102.901 48.6595 102.805C48.7415 102.449 48.827 102.057 48.909 101.683C50.3137 104.665 52.5788 107.159 55.4128 108.844C55.5126 109.14 55.6088 109.432 55.6943 109.731C56.1612 111.345 56.3857 113.034 55.5767 114.445C54.9994 115.446 54.0301 116.062 52.9467 116.49C52.7905 116.282 52.5895 116.111 52.3587 115.991C51.4214 115.521 50.2953 116.091 49.5077 116.793C48.0822 118.083 46.9204 119.932 45.0458 120.356C44.3687 120.512 43.6203 120.48 43.0573 120.894C42.6848 121.244 42.373 121.653 42.1342 122.105C41.7275 122.689 41.1805 123.161 40.5435 123.479C39.9064 123.796 39.1998 123.949 38.4885 123.922C37.8364 123.89 37.063 123.74 36.6176 124.218C36.2861 124.574 36.2612 125.137 35.9048 125.475C35.4273 125.946 34.6432 125.718 33.9768 125.689C32.7081 125.636 31.5285 126.455 30.8051 127.506C30.0816 128.557 29.7359 129.815 29.3796 131.069V131.09C29.2881 131.157 29.2012 131.23 29.1194 131.308C28.7739 131.676 28.506 132.11 28.3318 132.583C25.4498 139.143 23.7487 146.16 23.3069 153.312C23.314 153.66 23.2357 154.005 23.0788 154.316C22.9194 154.52 22.7442 154.711 22.555 154.887C22.3856 155.094 22.2596 155.333 22.1845 155.59C22.1093 155.847 22.0865 156.116 22.1174 156.382C22.1483 156.648 22.2323 156.905 22.3644 157.137C22.4965 157.37 22.674 157.574 22.8864 157.737C22.9889 157.551 23.1173 157.381 23.2677 157.231C23.2285 157.395 23.1929 157.555 23.1679 157.701C23.0248 158.741 23.0116 159.794 23.1287 160.836C23.4661 165.786 23.807 170.733 24.1515 175.676C24.2478 177.076 24.344 178.472 24.4723 179.869C24.7217 182.572 25.0781 185.264 25.5414 187.946C25.5628 188.067 25.5877 188.192 25.6198 188.302C22.7153 189.225 20.1316 190.892 19.0447 193.675C18.6669 194.637 18.4959 195.684 18.0326 196.607C17.5229 197.619 16.6855 198.428 16.1295 199.418C15.1709 201.121 15.1281 203.209 15.4773 205.119C16.1509 208.842 18.1644 212.17 20.823 214.877C20.7054 214.877 20.5842 214.877 20.4666 214.877C19.598 214.974 18.7642 215.273 18.0326 215.75C12.409 219.035 9.19444 226.082 10.3669 232.517C10.5986 233.775 11.0013 235.05 11.8423 236.008C12.5414 236.77 13.4403 237.321 14.4367 237.597C15.0599 237.785 15.7016 237.904 16.3505 237.954C20.7339 238.31 24.9783 236.279 29.3724 236.108C30.8281 236.085 32.2837 236.153 33.7309 236.311C35.8478 236.487 37.9682 236.599 40.0922 236.646C43.5455 236.728 45.4877 235.809 47.6901 233.229C48.2315 232.588 48.6834 231.876 49.0337 231.113C50.9082 231.006 52.9788 230.842 54.4755 230.721L54.4969 230.928C54.5789 231.64 54.7036 232.46 55.2738 232.909C55.5946 233.13 55.9592 233.279 56.3429 233.347C59.9423 234.231 63.5845 235.128 67.2908 235.128C69.0301 235.093 70.766 234.96 72.4903 234.729L79.0013 233.978C80.8986 234.218 82.771 234.626 84.5964 235.196C86.4781 235.834 88.235 236.782 90.0739 237.533C94.3504 239.265 98.9477 239.885 103.502 240.49C104.279 240.594 105.17 240.665 105.744 240.134C106.485 239.422 106.239 238.232 106.029 237.234C105.943 236.824 105.879 236.415 105.829 236.001C108.903 236.811 111.91 237.855 114.824 239.122L115.334 239.347C115.484 240.124 116.2 240.743 116.888 241.581C117.113 241.934 117.378 242.261 117.675 242.557C118.015 242.778 118.402 242.917 118.805 242.963C123.613 243.859 128.522 244.08 133.391 243.622C134.388 243.486 135.396 243.452 136.399 243.519C137.136 243.619 137.864 243.783 138.573 244.007L142.696 245.19C145.736 246.059 148.847 246.939 152.001 246.743C152.641 246.703 153.276 246.611 153.901 246.469C156.395 245.892 158.719 244.499 159.916 242.258C161.609 239.211 160.829 235.463 159.916 232.114Z" fill="url(#paint0_linear)"/>
<path d="M44.554 231.42C43.8021 229.709 43.0893 227.743 43.8413 226.033C44.3321 225.026 45.1753 224.233 46.2112 223.806C47.2362 223.388 48.3167 223.122 49.4185 223.015C52.877 222.561 56.3766 222.514 59.8461 222.872C60.0991 224.875 59.5646 226.906 59.1048 228.84C58.6879 230.622 58.4491 230.885 56.6102 230.978C55.4199 231.042 44.8356 232.05 44.554 231.42Z" fill="#FBBEBE"/>
<path d="M76.2894 219.883C104.435 219.883 127.251 213.503 127.251 205.632C127.251 197.761 104.435 191.381 76.2894 191.381C48.144 191.381 25.3276 197.761 25.3276 205.632C25.3276 213.503 48.144 219.883 76.2894 219.883Z" fill="#464353"/>
<path opacity="0.1" d="M76.2894 219.883C104.435 219.883 127.251 213.503 127.251 205.632C127.251 197.761 104.435 191.381 76.2894 191.381C48.144 191.381 25.3276 197.761 25.3276 205.632C25.3276 213.503 48.144 219.883 76.2894 219.883Z" fill="black"/>
<path d="M85.4269 130.399C83.68 133.774 80.7788 136.409 77.2516 137.824C75.1692 138.583 72.9776 138.999 70.762 139.057C68.3422 139.167 65.8725 139.011 63.5989 138.184C60.5483 137.08 58.0145 134.821 56.115 132.188C54.2155 129.555 52.9076 126.548 51.7707 123.516C51.172 121.938 50.6018 120.256 50.8834 118.589C52.7187 118.172 54.7287 117.559 55.6766 115.931C56.4856 114.534 56.2611 112.86 55.7942 111.263C55.6624 110.811 55.5091 110.362 55.3559 109.931C54.9995 108.898 53.77 106.935 54.6431 106.051C55.1884 105.492 57.4728 105.207 58.2604 104.843C60.6873 103.724 62.9253 102.107 65.591 101.576C67.8968 101.116 70.2773 101.548 72.5795 102.025C72.8849 102.069 73.1782 102.175 73.442 102.335C73.7427 102.588 73.9652 102.922 74.0834 103.297C74.7392 104.893 75.1241 106.657 75.6515 108.321C76.2003 110.063 76.9059 111.698 78.2281 112.934C79.258 113.9 80.5695 114.506 81.8524 115.093L85.0099 116.54C85.5716 116.75 86.081 117.08 86.5032 117.505C86.9161 118.073 87.1629 118.744 87.2159 119.444C87.7817 123.193 87.1559 127.025 85.4269 130.399Z" fill="#FBBEBE"/>
<path opacity="0.1" d="M75.637 108.32C73.1226 110.938 69.8105 112.646 66.22 113.179C62.6295 113.712 58.9638 113.038 55.7976 111.263C55.6657 110.811 55.5125 110.362 55.3592 109.931C55.0029 108.898 53.7734 106.935 54.6465 106.051C55.1917 105.492 57.4761 105.207 58.2637 104.843C60.6906 103.724 62.9287 102.107 65.5944 101.576C67.9001 101.116 70.2807 101.548 72.5829 102.025C72.8883 102.069 73.1816 102.175 73.4453 102.335C73.746 102.588 73.9685 102.922 74.0868 103.297C74.7247 104.893 75.1096 106.657 75.637 108.32Z" fill="black"/>
<path d="M63.8161 112.642C72.8699 112.642 80.2094 105.305 80.2094 96.2532C80.2094 87.2018 72.8699 79.8642 63.8161 79.8642C54.7624 79.8642 47.4229 87.2018 47.4229 96.2532C47.4229 105.305 54.7624 112.642 63.8161 112.642Z" fill="#FBBEBE"/>
<path d="M113.762 149.443L112.415 141.284C111.735 137.19 111.033 133.018 109.13 129.33C107.879 126.915 105.894 124.613 103.217 124.136C102.69 124.089 102.172 123.969 101.678 123.78C100.894 123.402 100.466 122.554 99.8638 121.927C98.31 120.317 95.7797 120.292 93.6985 119.472C91.8596 118.76 90.3557 117.388 88.6807 116.34C87.0058 115.293 84.921 114.559 83.0678 115.229C82.7685 118.418 82.4513 121.678 81.0971 124.581C80.2156 126.472 78.9227 128.141 77.3129 129.468C75.7031 130.794 73.817 131.744 71.7927 132.248C69.7684 132.752 67.6569 132.798 65.6128 132.381C63.5687 131.964 61.6436 131.096 59.9782 129.84C56.8029 127.449 54.768 123.762 53.82 119.903C53.5884 118.963 53.3247 117.883 52.4587 117.452C51.5214 116.982 50.3953 117.552 49.6077 118.243C48.1822 119.522 47.0168 121.353 45.1423 121.784C44.4652 121.941 43.7168 121.909 43.1537 122.319C42.7795 122.664 42.4662 123.07 42.2271 123.519C41.8169 124.099 41.2689 124.567 40.6324 124.882C39.9959 125.197 39.291 125.348 38.5814 125.322C37.9293 125.29 37.1559 125.141 36.7104 125.614C36.379 125.971 36.3541 126.527 35.9977 126.858C35.5166 127.325 34.7361 127.097 34.0661 127.072C32.7974 127.018 31.6178 127.83 30.8908 128.853C30.1638 129.876 29.8217 131.14 29.4653 132.366C33.3605 141.038 36.9243 149.72 40.8195 158.392C41.002 158.719 41.0988 159.087 41.101 159.461C41.0229 159.85 40.8571 160.215 40.6163 160.53C38.7062 163.598 38.7667 167.456 38.977 171.062C39.1873 174.667 39.4439 178.476 37.833 181.707C37.3947 182.595 36.8245 183.407 36.4075 184.294C35.4311 186.303 35.0782 192.731 35.6484 194.89H116.218C114.682 190.668 115.266 182.196 115.587 177.714C115.812 174.578 115.231 171.447 114.981 168.311C114.436 161.909 114.821 155.834 113.762 149.443Z" fill="#6C63FF"/>
<path d="M23.2929 158.777C23.1504 159.808 23.136 160.853 23.2502 161.888L24.273 176.591C24.3692 177.977 24.4654 179.36 24.5937 180.742C24.8396 183.425 25.2067 186.086 25.6628 188.744C25.6731 189.121 25.8327 189.479 26.1067 189.739C26.3806 189.999 26.7465 190.14 27.124 190.13C31.6321 191.085 36.29 191.046 40.8908 190.786C47.9114 190.394 54.9213 189.499 61.9526 189.653C63.763 189.692 65.8727 189.653 66.9703 188.228C68.068 186.802 67.4301 184.497 65.9974 183.346C64.5648 182.196 62.619 181.921 60.7801 181.921C58.346 181.896 55.912 182.242 53.4851 182.099C51.2577 181.968 49.0803 181.43 46.9206 180.892L40.8623 179.385C41.0939 177.55 41.7924 175.822 42.4553 174.08C43.6455 170.991 44.7574 167.798 44.7788 164.488C44.8002 161.179 43.5529 157.698 40.8409 155.802C38.61 154.245 35.7376 153.957 33.0184 154.021C31.0405 154.078 27.6229 153.604 25.8161 154.377C24.387 155.004 23.5602 157.377 23.2929 158.777Z" fill="#FBBEBE"/>
<path d="M117.886 192.396C119.072 191.944 120.38 192.107 121.653 192.278C125.747 192.838 129.903 193.411 133.698 195.047C135.48 195.809 137.176 196.828 138.381 198.328C139.45 199.678 140.074 201.332 140.665 202.96L142.034 206.708C142.554 208.133 143.081 209.587 143.228 211.101C143.655 215.586 140.587 219.815 136.727 222.146C132.868 224.476 128.324 225.306 123.898 226.175C119.472 227.044 115.028 228.006 110.619 229.025C108.563 229.559 106.477 229.969 104.372 230.255C99.6535 230.789 94.7213 230.002 90.238 231.562C88.4562 232.186 86.7064 233.112 84.8568 233.543C83.6282 233.801 82.386 233.991 81.1362 234.109L72.6509 235.079C70.9254 235.309 69.1883 235.443 67.4478 235.478C63.7415 235.478 60.0958 234.601 56.4964 233.725C56.1137 233.658 55.7494 233.511 55.4273 233.294C54.8571 232.845 54.7323 232.05 54.6504 231.33C54.2869 228.145 53.9685 224.957 53.6953 221.764C53.6097 220.728 53.5456 219.605 54.1122 218.732C54.825 217.664 56.2149 217.329 57.4836 217.122C62.8633 216.242 68.3131 215.864 73.7628 215.993C75.8333 213.923 79.2474 213.912 81.9594 212.786C82.9571 212.328 83.9227 211.803 84.8496 211.215C89.7009 208.385 95.1223 206.673 100.719 206.202C101.815 206.168 102.904 206.013 103.966 205.739C106.065 205.087 107.978 203.312 110.134 203.747C110.402 203.01 110.587 202.023 111.204 201.517C111.51 201.257 111.888 201.082 112.169 200.804C112.765 200.202 112.818 199.254 112.729 198.414C112.64 197.573 112.44 196.711 112.658 195.891C112.748 195.581 112.881 195.285 113.053 195.011C114.122 193.166 115.737 192.218 117.886 192.396Z" fill="#464353"/>
<path opacity="0.05" d="M117.886 192.396C119.072 191.944 120.38 192.107 121.653 192.278C125.747 192.838 129.903 193.411 133.698 195.047C135.48 195.809 137.176 196.828 138.381 198.328C139.45 199.678 140.074 201.332 140.665 202.96L142.034 206.708C142.554 208.133 143.081 209.587 143.228 211.101C143.655 215.586 140.587 219.815 136.727 222.146C132.868 224.476 128.324 225.306 123.898 226.175C119.472 227.044 115.028 228.006 110.619 229.025C108.563 229.559 106.477 229.969 104.372 230.255C99.6535 230.789 94.7213 230.002 90.238 231.562C88.4562 232.186 86.7064 233.112 84.8568 233.543C83.6282 233.801 82.386 233.991 81.1362 234.109L72.6509 235.079C70.9254 235.309 69.1883 235.443 67.4478 235.478C63.7415 235.478 60.0958 234.601 56.4964 233.725C56.1137 233.658 55.7494 233.511 55.4273 233.294C54.8571 232.845 54.7323 232.05 54.6504 231.33C54.2869 228.145 53.9685 224.957 53.6953 221.764C53.6097 220.728 53.5456 219.605 54.1122 218.732C54.825 217.664 56.2149 217.329 57.4836 217.122C62.8633 216.242 68.3131 215.864 73.7628 215.993C75.8333 213.923 79.2474 213.912 81.9594 212.786C82.9571 212.328 83.9227 211.803 84.8496 211.215C89.7009 208.385 95.1223 206.673 100.719 206.202C101.815 206.168 102.904 206.013 103.966 205.739C106.065 205.087 107.978 203.312 110.134 203.747C110.402 203.01 110.587 202.023 111.204 201.517C111.51 201.257 111.888 201.082 112.169 200.804C112.765 200.202 112.818 199.254 112.729 198.414C112.64 197.573 112.44 196.711 112.658 195.891C112.748 195.581 112.881 195.285 113.053 195.011C114.122 193.166 115.737 192.218 117.886 192.396Z" fill="black"/>
<path d="M47.8329 233.621C45.6269 236.176 43.6847 237.088 40.2314 237.006C38.1074 236.956 35.9857 236.846 33.8665 236.675C32.418 236.518 30.9613 236.45 29.5045 236.472C25.1068 236.643 20.8623 238.656 16.4754 238.303C15.8267 238.252 15.1852 238.132 14.5616 237.947C13.5664 237.673 12.6669 237.127 11.9636 236.372C11.1226 235.421 10.7199 234.159 10.4882 232.912C9.31577 226.521 12.5303 219.559 18.1575 216.306C18.8917 215.832 19.7263 215.536 20.5951 215.44C21.447 215.437 22.2891 215.622 23.0612 215.982L23.1146 216.003C25.4008 216.944 27.4772 218.329 29.2229 220.079C29.4878 220.382 29.8038 220.637 30.1566 220.831C30.5087 220.964 30.8815 221.034 31.2578 221.038L35.9406 221.333C36.734 221.357 37.5225 221.466 38.2927 221.657C39.1417 221.954 39.9683 222.311 40.7659 222.726C43.2855 223.852 46.0795 224.151 48.8022 224.586C49.0646 224.601 49.315 224.701 49.515 224.871C49.6236 225.006 49.6993 225.165 49.7359 225.334C50.1186 226.766 50.1452 228.27 49.8135 229.714C49.4818 231.158 48.8019 232.5 47.8329 233.621Z" fill="#3F3D56"/>
<path opacity="0.1" d="M23.1146 216.007C21.2978 217.741 19.7217 219.711 18.4283 221.864C16.3528 225.417 15.0487 229.367 14.6008 233.457C14.431 234.95 14.4179 236.455 14.5616 237.95C13.5664 237.676 12.6669 237.131 11.9636 236.375C11.1226 235.424 10.7199 234.163 10.4882 232.916C9.31577 226.524 12.5303 219.562 18.1575 216.31C18.8917 215.836 19.7263 215.539 20.5951 215.444C21.447 215.44 22.2891 215.625 23.0612 215.985L23.1146 216.007Z" fill="black"/>
<path d="M113.809 224.871C116.428 224.8 119.368 224.668 121.293 226.432C123.128 228.099 123.37 230.85 123.491 233.326L123.63 236.201C123.673 237.077 123.709 237.982 123.356 238.795C122.729 240.22 121.007 240.907 119.436 240.825C117.864 240.744 116.421 240.056 114.985 239.436C111.086 237.757 107.026 236.478 102.868 235.62C103.003 233.632 103.229 231.654 103.545 229.685C103.762 228.32 103.798 226.036 104.71 224.903C105.676 223.706 106.934 224.355 108.246 224.575C110.086 224.856 111.949 224.955 113.809 224.871Z" fill="#FBBEBE"/>
<path d="M44.5863 195.98C44.5863 196.336 44.0268 195.98 43.9769 195.599C43.5849 192.717 41.297 190.34 38.6313 189.186C35.9656 188.032 32.9293 187.971 30.0426 188.245C25.677 188.659 20.7769 190.33 19.1803 194.409C18.8025 195.364 18.6315 196.397 18.1682 197.313C17.655 198.317 16.8175 199.119 16.2616 200.095C15.3029 201.784 15.2637 203.854 15.6094 205.764C16.5395 210.859 20.0249 215.216 24.2479 218.234C28.471 221.251 33.4068 223.054 38.3284 224.679C51.342 228.97 64.6938 232.158 78.2424 234.209C80.4377 234.541 82.6544 234.847 84.757 235.552C86.6386 236.183 88.3991 237.127 90.238 237.868C94.5146 239.586 99.1154 240.198 103.673 240.8C104.45 240.9 105.341 240.971 105.915 240.444C106.656 239.757 106.41 238.559 106.2 237.573C105.426 233.82 106.076 229.914 108.021 226.613C108.784 225.331 109.775 224.016 109.632 222.53C109.461 220.799 107.736 219.573 106.018 219.295C104.301 219.017 102.554 219.427 100.83 219.652C100.234 219.73 99.5858 219.78 99.0655 219.477C98.8091 219.304 98.5767 219.098 98.3741 218.864C97.1858 217.718 95.6651 216.978 94.03 216.749C92.3948 216.521 90.7293 216.816 89.2723 217.592C88.6344 217.949 87.6686 217.154 87.0057 216.855L79.5111 213.463C70.9011 209.569 62.2483 205.657 53.1393 203.191C52.4125 203.049 51.7218 202.761 51.108 202.347C50.6554 201.991 50.3311 201.506 49.9141 201.111C49.0054 200.252 47.7402 199.91 46.6497 199.301C45.5592 198.692 44.3368 197.202 44.5863 195.98Z" fill="#464353"/>
<path d="M160.127 242.543C158.929 244.762 156.606 246.145 154.111 246.715C153.485 246.856 152.849 246.947 152.208 246.986C149.054 247.182 145.939 246.309 142.9 245.447L138.773 244.285C138.063 244.062 137.336 243.9 136.599 243.8C135.595 243.733 134.588 243.768 133.591 243.904C128.714 244.357 123.797 244.137 118.98 243.248C118.577 243.205 118.19 243.067 117.85 242.846C117.552 242.554 117.288 242.23 117.062 241.88C115.94 240.53 114.732 239.742 116.061 237.961C116.827 236.928 118.249 236.411 118.844 235.225C119.439 234.038 119.058 232.353 118.705 231.127C118.224 229.435 116.642 228.705 116.075 227.151C115.651 225.979 116.364 224.618 117.437 223.98C118.509 223.343 119.835 223.293 121.072 223.457C122.308 223.621 123.52 223.97 124.764 224.066C128.42 224.358 132.158 222.473 135.669 223.535C136.442 223.77 137.173 224.144 137.957 224.351C139.485 224.693 141.082 224.555 142.529 223.956C143.042 223.763 143.545 223.532 144.044 223.304C145.006 222.803 146.03 222.433 147.091 222.203C150.515 221.615 153.691 223.984 156.274 226.296C157.161 227.032 157.946 227.883 158.609 228.826C159.321 229.938 159.699 231.231 160.034 232.506C160.979 235.802 161.759 239.514 160.127 242.543Z" fill="#3F3D56"/>
<path opacity="0.1" d="M160.127 242.543C158.929 244.762 156.606 246.145 154.111 246.715C155.082 244.83 155.519 242.716 155.376 240.601C155.163 237.213 153.673 234.021 151.773 231.206C150.605 229.473 149.276 227.855 147.803 226.371C146.67 225.231 145.277 224.326 144.058 223.282C145.02 222.781 146.045 222.411 147.105 222.181C150.53 221.593 153.705 223.963 156.289 226.275C157.176 227.011 157.961 227.862 158.623 228.805C159.336 229.916 159.713 231.21 160.048 232.485C160.979 235.802 161.759 239.514 160.127 242.543Z" fill="black"/>
<path d="M29.262 132.63C28.9148 132.993 28.6456 133.423 28.4708 133.894C25.5901 140.385 23.8886 147.336 23.4459 154.423C23.4537 154.769 23.374 155.111 23.2143 155.417C23.0568 155.621 22.8815 155.811 22.6904 155.984C22.5169 156.19 22.3875 156.429 22.31 156.686C22.2326 156.944 22.2088 157.214 22.2402 157.482C22.2716 157.749 22.3575 158.007 22.4926 158.239C22.6276 158.472 22.809 158.674 23.0254 158.834C23.6134 157.726 25.0211 157.366 26.272 157.27C32.2627 156.796 38.1144 159.582 44.1229 159.372C43.6988 157.908 43.0894 156.501 42.7437 155.018C41.2148 148.438 45.0281 141.273 42.6902 134.935C42.2234 133.666 41.4429 132.419 40.2134 131.864C39.7044 131.658 39.1716 131.517 38.6276 131.443C37.1094 131.169 34.0873 129.997 32.6191 130.467C32.0774 130.642 31.8635 131.151 31.4145 131.457C30.7338 131.896 29.8286 132.056 29.262 132.63Z" fill="#6C63FF"/>
<path d="M118.531 145.598H44.7395C43.1708 145.598 41.8992 146.87 41.8992 148.438V193.351C41.8992 194.919 43.1708 196.19 44.7395 196.19H118.531C120.099 196.19 121.371 194.919 121.371 193.351V148.438C121.371 146.87 120.099 145.598 118.531 145.598Z" fill="#3F3D56"/>
<path d="M81.4566 173.032C82.6375 173.032 83.5949 172.075 83.5949 170.894C83.5949 169.714 82.6375 168.757 81.4566 168.757C80.2757 168.757 79.3184 169.714 79.3184 170.894C79.3184 172.075 80.2757 173.032 81.4566 173.032Z" fill="white"/>
<path d="M52.4908 69.6531C51.2934 70.5189 50.4738 71.7623 49.6398 72.9558C48.1039 75.1612 46.3647 77.3631 43.9093 78.5922C42.9792 79.059 41.9172 79.4117 41.3006 80.224C40.9347 80.7734 40.6972 81.3981 40.6057 82.0517C40.1353 84.3502 39.8895 86.6889 39.8716 89.0349C39.8716 90.2035 39.9215 91.4077 40.4382 92.4694C40.9265 93.467 41.8067 94.3114 41.9885 95.3981C42.1274 96.246 41.8138 97.0904 41.7034 97.9419C41.5929 98.7935 41.7853 99.8017 42.5729 100.208C42.9973 100.367 43.4405 100.472 43.8915 100.518C46.2614 101.045 47.0561 103.824 47.4161 106.122C48.2215 106.076 48.585 105.153 48.7525 104.401L51.2221 93.4243C51.4894 92.2343 51.9349 90.8555 53.1216 90.4386C53.9163 90.1643 54.7859 90.4208 55.6163 90.4921C58.8771 90.7593 61.6355 88.2404 64.825 87.5456C65.846 87.3396 66.8898 87.2701 67.929 87.339C70.4451 87.4637 73.3709 88.4969 73.9055 90.8448C73.9946 91.226 74.048 91.6821 74.4044 91.8709C74.7608 92.0597 75.135 91.8994 75.5092 91.8709C77.1057 91.7106 78.0466 93.5062 78.5063 94.9741L80.1812 100.318C80.4307 101.127 80.8512 102.078 81.7279 102.182C82.5369 102.281 83.2247 101.515 83.3459 100.757C83.467 99.9977 83.2033 99.2103 83.0287 98.4479C82.2411 94.9385 83.4456 91.3471 84.1798 87.8306C84.9139 84.3141 85.0458 80.2739 82.5832 77.5661C81.6887 76.5864 80.5127 75.856 79.6788 74.8228C78.9019 73.8537 78.4635 72.6637 77.6581 71.7124C75.4308 69.0866 69.7181 67.0594 66.2149 66.7245C62.2128 66.2898 55.7267 67.3052 52.4908 69.6531Z" fill="#3F3D56"/>
<g opacity="0.1">
<path opacity="0.1" d="M81.7422 99.6877C80.8655 99.5808 80.445 98.6189 80.1955 97.8244C79.6372 96.0406 79.0788 94.2592 78.5205 92.4801C78.0608 91.0087 77.12 89.213 75.5234 89.3769C75.1492 89.4161 74.7465 89.5622 74.4186 89.3769C74.0908 89.1916 74.0088 88.732 73.9197 88.3508C73.3851 85.9994 70.4593 84.9697 67.9433 84.845C66.9042 84.7768 65.8606 84.8451 64.8392 85.0481C61.6497 85.7606 58.8913 88.2546 55.6305 87.9945C54.7895 87.9268 53.9199 87.6703 53.1359 87.9447C51.9349 88.3579 51.5037 89.7261 51.2364 90.9303L48.7667 101.904C48.5992 102.659 48.2357 103.582 47.4303 103.625C47.0739 101.33 46.2756 98.5512 43.9057 98.0239C43.4553 97.9743 43.0125 97.8702 42.5871 97.7139C42.2771 97.5446 42.0344 97.2743 41.8993 96.9479C41.8352 97.2793 41.7604 97.6106 41.7176 97.9419C41.6107 98.7899 41.7996 99.8017 42.5871 100.208C43.0115 100.367 43.4547 100.472 43.9057 100.518C46.2756 101.045 47.0704 103.824 47.4303 106.122C48.2357 106.076 48.5992 105.153 48.7667 104.401L51.2364 93.4243C51.5037 92.2343 51.9491 90.8555 53.1359 90.4386C53.9306 90.1643 54.8001 90.4208 55.6305 90.4921C58.8913 90.7593 61.6497 88.2404 64.8392 87.5456C65.8602 87.3396 66.904 87.2701 67.9433 87.339C70.4593 87.4637 73.3851 88.4969 73.9197 90.8448C74.0088 91.226 74.0623 91.6821 74.4186 91.8709C74.775 92.0597 75.1492 91.8994 75.5234 91.8709C77.12 91.7106 78.0608 93.5062 78.5205 94.9741C79.0765 96.7579 79.6348 98.5393 80.1955 100.318C80.445 101.127 80.8655 102.078 81.7422 102.182C82.5511 102.281 83.2389 101.515 83.3601 100.757C83.4149 100.118 83.3422 99.475 83.1463 98.8647C83.0191 99.1248 82.8181 99.3415 82.5684 99.4879C82.3186 99.6343 82.0312 99.7038 81.7422 99.6877Z" fill="black"/>
<path opacity="0.1" d="M41.9919 92.9041C41.8101 91.8174 40.9227 90.973 40.4416 89.9755C40.1323 89.3026 39.9534 88.5772 39.9142 87.8378C39.9142 88.2368 39.8786 88.6358 39.875 89.0384C39.875 90.207 39.9249 91.4113 40.4416 92.473C40.8372 93.2817 41.4894 93.9943 41.8172 94.8173C41.9901 94.1953 42.0493 93.5471 41.9919 92.9041Z" fill="black"/>
<path opacity="0.1" d="M84.1938 85.3224C83.5452 88.4292 82.533 91.593 82.8467 94.7069C83.0498 92.4089 83.7198 90.0966 84.1938 87.8164C84.5891 86.0848 84.7284 84.3047 84.6071 82.5327C84.5298 83.4706 84.3917 84.4024 84.1938 85.3224Z" fill="black"/>
</g>
<g opacity="0.8">
<path opacity="0.8" d="M117.618 103.496H340.375" stroke="#3F3D56" stroke-width="3" stroke-miterlimit="10"/>
<path opacity="0.8" d="M137.408 103.493C137.408 103.493 148.06 104.971 142.543 93.5454C137.027 82.1195 157.511 84.2821 157.511 84.2821" stroke="#3F3D56" stroke-width="3" stroke-miterlimit="10"/>
<path opacity="0.8" d="M208.352 103.493C208.352 103.493 219.004 102.018 213.487 113.444C207.971 124.87 228.455 122.707 228.455 122.707" stroke="#3F3D56" stroke-width="3" stroke-miterlimit="10"/>
<path opacity="0.8" d="M310.5 103.493C310.5 103.493 299.844 102.018 305.364 113.444C310.884 124.87 290.396 122.707 290.396 122.707" stroke="#3F3D56" stroke-width="3" stroke-miterlimit="10"/>
<path opacity="0.8" d="M290.397 122.704H231.62" stroke="#3F3D56" stroke-width="3" stroke-miterlimit="10"/>
<path opacity="0.8" d="M117.618 109.999C121.21 109.999 124.122 107.087 124.122 103.496C124.122 99.9054 121.21 96.9943 117.618 96.9943C114.026 96.9943 111.115 99.9054 111.115 103.496C111.115 107.087 114.026 109.999 117.618 109.999Z" fill="#6C63FF"/>
<path opacity="0.8" d="M157.622 90.6916C161.214 90.6916 164.126 87.7804 164.126 84.1894C164.126 80.5984 161.214 77.6873 157.622 77.6873C154.03 77.6873 151.118 80.5984 151.118 84.1894C151.118 87.7804 154.03 90.6916 157.622 90.6916Z" fill="#3ACC6C"/>
<path opacity="0.8" d="M157.622 109.999C161.214 109.999 164.126 107.087 164.126 103.496C164.126 99.9054 161.214 96.9943 157.622 96.9943C154.03 96.9943 151.118 99.9054 151.118 103.496C151.118 107.087 154.03 109.999 157.622 109.999Z" fill="#6C63FF"/>
<path opacity="0.8" d="M183.437 109.999C187.029 109.999 189.941 107.087 189.941 103.496C189.941 99.9054 187.029 96.9943 183.437 96.9943C179.845 96.9943 176.934 99.9054 176.934 103.496C176.934 107.087 179.845 109.999 183.437 109.999Z" fill="#6C63FF"/>
<path opacity="0.8" d="M228.562 129.11C232.154 129.11 235.066 126.198 235.066 122.607C235.066 119.016 232.154 116.105 228.562 116.105C224.97 116.105 222.058 119.016 222.058 122.607C222.058 126.198 224.97 129.11 228.562 129.11Z" fill="#FF6584"/>
<path opacity="0.8" d="M262.66 129.11C266.252 129.11 269.164 126.198 269.164 122.607C269.164 119.016 266.252 116.105 262.66 116.105C259.068 116.105 256.156 119.016 256.156 122.607C256.156 126.198 259.068 129.11 262.66 129.11Z" fill="#FF6584"/>
<path opacity="0.8" d="M260.881 109.999C264.473 109.999 267.385 107.087 267.385 103.496C267.385 99.9054 264.473 96.9943 260.881 96.9943C257.289 96.9943 254.377 99.9054 254.377 103.496C254.377 107.087 257.289 109.999 260.881 109.999Z" fill="#6C63FF"/>
<path opacity="0.8" d="M338.728 109.999C342.32 109.999 345.232 107.087 345.232 103.496C345.232 99.9054 342.32 96.9943 338.728 96.9943C335.136 96.9943 332.224 99.9054 332.224 103.496C332.224 107.087 335.136 109.999 338.728 109.999Z" fill="#6C63FF"/>
<path opacity="0.8" d="M306.882 109.999C310.474 109.999 313.386 107.087 313.386 103.496C313.386 99.9054 310.474 96.9943 306.882 96.9943C303.29 96.9943 300.378 99.9054 300.378 103.496C300.378 107.087 303.29 109.999 306.882 109.999Z" fill="#6C63FF"/>
<path opacity="0.8" d="M128.513 43.7015H106.692V58.7367H128.513V43.7015Z" fill="#6C63FF"/>
<path opacity="0.8" d="M168.612 43.7015H146.791V58.7367H168.612V43.7015Z" fill="#3ACC6C"/>
<path opacity="0.8" d="M239.381 43.7015H217.56V58.7367H239.381V43.7015Z" fill="#FF6584"/>
</g>
<g opacity="0.1">
<path opacity="0.1" d="M30.773 106.657C30.773 106.657 4.12679 95.4552 0.634312 115.667C0.634312 115.667 -1.18677 118.817 1.34706 121.418C1.34706 121.418 1.89232 120.021 4.46535 121.464C5.38436 121.972 6.36056 122.369 7.37338 122.647C8.74119 123.024 10.1946 122.946 11.5145 122.426C11.5145 122.426 20.2777 121.952 27.6476 110.49C27.6476 110.49 30.8086 108.538 30.9655 107.804L25.684 108.16C25.684 108.16 26.0902 112.026 23.9021 114.345C23.9021 114.345 25.8408 108.346 24.9106 108.178C24.7217 108.142 22.1202 108.484 22.1202 108.484C22.1202 108.484 22.7938 115.208 19.2692 118.685C19.2692 118.685 22.5407 111.848 21.1188 108.606L17.22 109.357C17.22 109.357 18.2892 116.43 14.4332 120.541C14.4332 120.541 17.6049 113.273 16.379 109.582L12.6477 110.836C12.6477 110.836 13.5458 117.751 10.3206 121.168C10.3206 121.168 13.136 112.4 11.8103 111.192C11.8103 111.192 8.4532 112.553 7.73688 113.33C7.73688 113.33 8.26788 118.318 6.21872 120.117C6.21872 120.117 7.47673 114.06 6.85307 113.811C6.85307 113.811 2.95432 116.747 1.76402 119.28C1.76402 119.28 3.24655 115.411 6.36483 113.223C6.36483 113.223 3.74547 112.781 1.73195 113.875C1.73195 113.875 3.07905 111.306 7.30923 112.525C7.30923 112.525 10.4418 110.355 11.069 110.387C11.069 110.387 7.0669 108.606 4.17669 108.826C4.17669 108.826 7.27716 107.045 12.0455 110.02L15.7696 108.677C15.7696 108.677 10.6021 106.03 8.01485 106.04C8.01485 106.04 11.4574 104.708 16.7354 108.413L20.5486 107.637C20.5486 107.637 16.2721 105.018 13.389 104.409C13.389 104.409 16.8458 103.86 21.6498 107.455L24.2549 107.237C24.2549 107.237 21.101 105.378 20.1459 104.925C19.1908 104.473 19.2336 104.181 19.2336 104.181C21.5 104.569 23.6145 105.578 25.3418 107.095C25.3418 107.095 30.7516 106.988 30.773 106.657Z" fill="#6C63FF"/>
</g>
<g opacity="0.1">
<path opacity="0.1" d="M29.7895 86.5766C29.7895 86.5766 20.3526 64.7472 6.75689 74.7588C6.75689 74.7588 3.8845 75.5925 3.90588 78.571C3.90588 78.571 5.0249 78.0508 5.73409 80.3773C5.99413 81.2026 6.35312 81.9933 6.80322 82.7323C7.3981 83.7368 8.30556 84.5189 9.38694 84.9591C9.38694 84.9591 14.8644 89.6692 25.7802 87.0576C25.7802 87.0576 28.7738 87.6954 29.2834 87.3533L25.9477 84.5494C25.9477 84.5494 23.9841 87.079 21.354 87.2001C21.354 87.2001 25.9263 84.7418 25.4702 84.1112C25.3775 83.9829 23.6348 82.7074 23.6348 82.7074C23.6348 82.7074 20.2065 87.0825 16.151 87.1502C16.151 87.1502 21.992 84.9484 22.9934 82.2157L20.2493 80.4343C20.2493 80.4343 16.7889 85.2477 12.156 85.4971C12.156 85.4971 18.1823 82.9853 19.5579 80.0923L16.6249 78.7135C16.6249 78.7135 13.218 83.3451 9.36556 83.5197C9.36556 83.5197 16.0369 79.9142 15.9336 78.4427C15.9336 78.4427 13.1645 77.3382 12.2843 77.4024C12.2843 77.4024 9.7647 80.6623 7.51597 80.5697C7.51597 80.5697 11.7176 77.6874 11.4896 77.185C11.4896 77.185 7.49815 76.7076 5.3492 77.5413C5.3492 77.5413 8.43542 76.0877 11.5323 76.5651C11.5323 76.5651 10.228 74.8086 8.41403 74.3205C8.41403 74.3205 10.6806 73.5617 12.4981 76.6898C12.4981 76.6898 15.5914 77.1886 15.9549 77.5591C15.9549 77.5591 14.5972 74.2137 12.7476 72.7066C12.7476 72.7066 15.5986 73.4191 16.739 77.8976L19.7183 79.2194C19.7183 79.2194 18.1573 74.7018 16.6107 73.2374C16.6107 73.2374 19.4154 74.406 20.4417 79.6149L23.1502 81.3215C23.1502 81.3215 22.1024 77.3311 20.7375 75.3252C20.7375 75.3252 23.1038 76.9713 23.9057 81.8416L25.5807 83.1955C25.5807 83.1955 24.7646 80.2954 24.4545 79.4831C24.1445 78.6707 24.3369 78.5211 24.3369 78.5211C25.4627 80.0488 26.1402 81.86 26.2934 83.7513C26.2934 83.7513 29.5863 86.7583 29.7895 86.5766Z" fill="#6C63FF"/>
</g>
</g>
<defs>
<linearGradient id="paint0_linear" x1="85.5551" y1="246.782" x2="85.5551" y2="64.6509" gradientUnits="userSpaceOnUse">
<stop stop-color="#808080" stop-opacity="0.25"/>
<stop offset="0.54" stop-color="#808080" stop-opacity="0.12"/>
<stop offset="1" stop-color="#808080" stop-opacity="0.1"/>
</linearGradient>
<clipPath id="clip0">
<rect width="370" height="247.014" fill="white"/>
</clipPath>
</defs>
</svg>
