<svg width="149" height="160" viewBox="0 0 149 160" fill="none" xmlns="http://www.w3.org/2000/svg">
<g clip-path="url(#clip0)">
<path d="M94.3247 90.7787L30.0472 107.331C27.8669 107.89 25.5539 107.561 23.6156 106.417C21.6774 105.272 20.2723 103.406 19.7085 101.227L0.269332 25.7378C-0.289512 23.5575 0.0393363 21.2445 1.18374 19.3062C2.32814 17.368 4.19463 15.9629 6.37373 15.3991L66.1735 3.05176e-05L81.4794 6.85199L100.429 80.44C100.988 82.6204 100.659 84.9334 99.5147 86.8716C98.3703 88.8098 96.5038 90.215 94.3247 90.7787Z" fill="#F2F2F2"/>
<path d="M6.9829 17.7659C5.43111 18.1674 4.10195 19.168 3.28699 20.5482C2.47204 21.9285 2.23786 23.5756 2.63583 25.1283L22.075 100.617C22.4765 102.169 23.4771 103.498 24.8574 104.313C26.2376 105.128 27.8847 105.362 29.4374 104.964L93.715 88.4119C95.2667 88.0104 96.5959 87.0098 97.4108 85.6296C98.2258 84.2493 98.46 82.6022 98.062 81.0495L79.4059 8.60165L65.9547 2.57999L6.9829 17.7659Z" fill="white"/>
<path d="M81.3158 7.24139L71.368 9.80307C70.6418 9.99008 69.871 9.88094 69.2253 9.49966C68.5795 9.11838 68.1117 8.4962 67.9247 7.76998L66.0327 0.422663C66.0244 0.390496 66.0253 0.356646 66.0354 0.324995C66.0455 0.293344 66.0643 0.265173 66.0896 0.243712C66.115 0.222251 66.1459 0.20837 66.1788 0.20366C66.2116 0.19895 66.2452 0.203601 66.2755 0.217081L81.3435 6.90874C81.377 6.92364 81.4051 6.9486 81.4238 6.98016C81.4425 7.01173 81.4509 7.04833 81.4479 7.08489C81.4448 7.12146 81.4305 7.15617 81.4068 7.18421C81.3832 7.21226 81.3514 7.23224 81.3158 7.24139Z" fill="#F2F2F2"/>
<path d="M76.0822 71.7071L46.8176 79.2431C46.6378 79.2894 46.4507 79.2999 46.2668 79.2738C46.083 79.2478 45.9061 79.1858 45.7462 79.0914C45.5864 78.997 45.4466 78.8721 45.3351 78.7237C45.2235 78.5753 45.1422 78.4064 45.0959 78.2266C45.0496 78.0468 45.0392 77.8596 45.0652 77.6758C45.0913 77.492 45.1532 77.3151 45.2476 77.1552C45.342 76.9953 45.467 76.8556 45.6154 76.7441C45.7638 76.6325 45.9327 76.5512 46.1125 76.5049L75.3771 68.9689C75.5569 68.9226 75.7441 68.9122 75.9279 68.9382C76.1117 68.9642 76.2886 69.0262 76.4485 69.1206C76.6084 69.215 76.7481 69.34 76.8597 69.4884C76.9712 69.6368 77.0525 69.8057 77.0988 69.9855C77.1451 70.1653 77.1555 70.3524 77.1295 70.5362C77.1035 70.7201 77.0415 70.897 76.9471 71.0568C76.8527 71.2167 76.7277 71.3564 76.5793 71.468C76.4309 71.5796 76.262 71.6608 76.0822 71.7071Z" fill="#CCCCCC"/>
<path d="M82.9198 74.8735L48.0075 83.8638C47.6444 83.9573 47.2591 83.9028 46.9362 83.7121C46.6133 83.5215 46.3794 83.2104 46.2859 82.8473C46.1924 82.4842 46.2469 82.0988 46.4376 81.7759C46.6282 81.453 46.9393 81.2191 47.3024 81.1256L82.2146 72.1353C82.5776 72.0422 82.9627 72.097 83.2853 72.2877C83.6079 72.4783 83.8416 72.7893 83.9351 73.1522C84.0285 73.5151 83.9741 73.9002 83.7837 74.223C83.5933 74.5458 83.2826 74.7798 82.9198 74.8735Z" fill="#CCCCCC"/>
<path d="M34.8736 88.3195C37.6333 88.3195 39.8705 86.0823 39.8705 83.3226C39.8705 80.5628 37.6333 78.3257 34.8736 78.3257C32.1139 78.3257 29.8767 80.5628 29.8767 83.3226C29.8767 86.0823 32.1139 88.3195 34.8736 88.3195Z" fill="#E6E6E6"/>
<path d="M72.9706 58.6299L34.1043 68.6347C32.981 68.9225 31.7895 68.753 30.7911 68.1634C29.7926 67.5737 29.0689 66.6121 28.7785 65.4895L20.6336 33.8483C20.3458 32.7251 20.5153 31.5335 21.1049 30.5351C21.6946 29.5367 22.6562 28.8129 23.7788 28.5226L62.6451 18.5178C63.7684 18.23 64.9599 18.3995 65.9584 18.9891C66.9568 19.5788 67.6805 20.5404 67.9709 21.663L76.1158 53.3042C76.4036 54.4274 76.2341 55.6189 75.6445 56.6174C75.0548 57.6158 74.0932 58.3396 72.9706 58.6299Z" fill="white"/>
<path d="M72.9706 58.6299L34.1043 68.6347C32.981 68.9225 31.7895 68.753 30.7911 68.1634C29.7926 67.5737 29.0689 66.6121 28.7785 65.4895L20.6336 33.8483C20.3458 32.7251 20.5153 31.5335 21.1049 30.5351C21.6946 29.5367 22.6562 28.8129 23.7788 28.5226L62.6451 18.5178C63.7684 18.23 64.9599 18.3995 65.9584 18.9891C66.9568 19.5788 67.6805 20.5404 67.9709 21.663L76.1158 53.3042C76.4036 54.4274 76.2341 55.6189 75.6445 56.6174C75.0548 57.6158 74.0932 58.3396 72.9706 58.6299ZM23.907 29.0209C22.9165 29.2771 22.0681 29.9157 21.5478 30.7966C21.0275 31.6776 20.878 32.7289 21.1319 33.72L29.2768 65.3613C29.533 66.3518 30.1716 67.2002 31.0526 67.7205C31.9335 68.2408 32.9849 68.3903 33.976 68.1364L72.8424 58.1316C73.8329 57.8754 74.6814 57.2368 75.2016 56.3558C75.7219 55.4749 75.8715 54.4235 75.6175 53.4324L67.4726 21.7912C67.2164 20.8007 66.5778 19.9522 65.6968 19.432C64.8159 18.9117 63.7645 18.7621 62.7734 19.0161L23.907 29.0209Z" fill="#E6E6E6"/>
<path d="M60.6734 29.1568L41.0581 34.2061C40.8866 34.254 40.7033 34.235 40.5453 34.1529C40.3873 34.0708 40.2664 33.9318 40.2069 33.764C40.1792 33.6763 40.1697 33.5839 40.1789 33.4925C40.1882 33.401 40.2159 33.3124 40.2605 33.232C40.3051 33.1516 40.3657 33.0811 40.4384 33.0249C40.5111 32.9687 40.5946 32.9278 40.6836 32.9049L60.6508 27.765C61.4574 28.1737 61.2452 29.0096 60.6732 29.1569L60.6734 29.1568Z" fill="#F2F2F2"/>
<path d="M61.5591 32.5975L41.9438 37.6468C41.7723 37.6946 41.589 37.6756 41.431 37.5935C41.273 37.5115 41.1521 37.3725 41.0926 37.2046C41.065 37.117 41.0555 37.0246 41.0647 36.9331C41.0739 36.8416 41.1017 36.753 41.1463 36.6726C41.1909 36.5922 41.2514 36.5218 41.3241 36.4655C41.3969 36.4093 41.4803 36.3685 41.5693 36.3456L61.5365 31.2057C62.3431 31.6144 62.1309 32.4503 61.5589 32.5975L61.5591 32.5975Z" fill="#F2F2F2"/>
<path d="M38.2077 40.6973L32.2213 42.2383C32.0258 42.2885 31.8184 42.259 31.6446 42.1563C31.4708 42.0537 31.3448 41.8863 31.2943 41.6909L29.4758 34.6264C29.4257 34.4309 29.4552 34.2235 29.5578 34.0497C29.6604 33.8759 29.8278 33.75 30.0232 33.6995L36.0096 32.1585C36.2051 32.1084 36.4125 32.1379 36.5863 32.2406C36.7601 32.3432 36.8861 32.5105 36.9366 32.7059L38.7551 39.7704C38.8053 39.9659 38.7758 40.1733 38.6731 40.3471C38.5705 40.5209 38.4031 40.6468 38.2077 40.6973V40.6973Z" fill="#E6E6E6"/>
<path d="M63.3155 39.6569L33.3789 47.3631C33.2074 47.4109 33.0241 47.3919 32.8661 47.3098C32.7081 47.2278 32.5872 47.0888 32.5277 46.921C32.5 46.8333 32.4905 46.7409 32.4997 46.6494C32.509 46.5579 32.5367 46.4693 32.5813 46.3889C32.6259 46.3085 32.6865 46.2381 32.7592 46.1818C32.8319 46.1256 32.9153 46.0848 33.0044 46.0619L63.2931 38.2651C64.0997 38.6738 63.8874 39.5097 63.3155 39.6569L63.3155 39.6569Z" fill="#F2F2F2"/>
<path d="M64.2015 43.0986L34.2649 50.8048C34.0934 50.8526 33.9101 50.8336 33.7521 50.7515C33.5941 50.6695 33.4731 50.5305 33.4137 50.3626C33.386 50.275 33.3765 50.1826 33.3857 50.0911C33.395 49.9996 33.4227 49.911 33.4673 49.8306C33.5119 49.7502 33.5724 49.6798 33.6452 49.6235C33.7179 49.5673 33.8013 49.5265 33.8904 49.5036L64.1791 41.7068C64.9857 42.1154 64.7734 42.9514 64.2015 43.0986V43.0986Z" fill="#F2F2F2"/>
<path d="M65.087 46.538L35.1504 54.2442C34.9789 54.2921 34.7956 54.273 34.6376 54.191C34.4796 54.1089 34.3586 53.9699 34.2992 53.8021C34.2715 53.7144 34.262 53.622 34.2712 53.5305C34.2805 53.4391 34.3082 53.3504 34.3528 53.27C34.3974 53.1896 34.4579 53.1192 34.5307 53.063C34.6034 53.0067 34.6868 52.9659 34.7759 52.943L65.0646 45.1462C65.8712 45.5549 65.6589 46.3908 65.087 46.538Z" fill="#F2F2F2"/>
<path d="M65.9727 49.9794L36.0361 57.6856C35.8646 57.7335 35.6813 57.7145 35.5233 57.6324C35.3653 57.5503 35.2444 57.4113 35.1849 57.2435C35.1573 57.1558 35.1478 57.0634 35.157 56.972C35.1662 56.8805 35.194 56.7918 35.2386 56.7115C35.2832 56.6311 35.3437 56.5606 35.4164 56.5044C35.4892 56.4482 35.5726 56.4073 35.6616 56.3844L65.9503 48.5876C66.7569 48.9963 66.5447 49.8322 65.9727 49.9795L65.9727 49.9794Z" fill="#F2F2F2"/>
<path d="M66.8582 53.4191L36.9216 61.1253C36.7501 61.1732 36.5668 61.1541 36.4088 61.0721C36.2508 60.99 36.1299 60.851 36.0704 60.6832C36.0428 60.5955 36.0333 60.5031 36.0425 60.4116C36.0517 60.3201 36.0795 60.2315 36.1241 60.1511C36.1687 60.0707 36.2292 60.0003 36.3019 59.944C36.3746 59.8878 36.4581 59.847 36.5471 59.8241L66.8358 52.0273C67.6424 52.436 67.4302 53.2719 66.8582 53.4191Z" fill="#F2F2F2"/>
<path d="M35.2424 85.0741C35.1336 85.1023 35.0186 85.0944 34.9146 85.0515L34.9082 85.0489L33.547 84.4718C33.4838 84.445 33.4265 84.4061 33.3784 84.3572C33.3303 84.3083 33.2923 84.2504 33.2666 84.1868C33.2408 84.1232 33.2279 84.0551 33.2285 83.9865C33.2291 83.9179 33.2433 83.8501 33.2701 83.787C33.297 83.7239 33.336 83.6666 33.385 83.6186C33.434 83.5706 33.4919 83.5327 33.5556 83.5071C33.6192 83.4814 33.6873 83.4686 33.7559 83.4694C33.8245 83.4701 33.8923 83.4843 33.9554 83.5113L34.8374 83.8864L35.9933 81.1673C36.0201 81.1043 36.0591 81.0471 36.108 80.9992C36.1568 80.9512 36.2147 80.9133 36.2782 80.8877C36.3418 80.862 36.4097 80.8492 36.4782 80.8498C36.5467 80.8505 36.6144 80.8646 36.6775 80.8914L36.6776 80.8915L36.6707 80.9092L36.6779 80.8914C36.8052 80.9457 36.9057 81.0482 36.9574 81.1765C37.0091 81.3048 37.0078 81.4484 36.9538 81.5757L35.5939 84.7728C35.5624 84.8465 35.5143 84.912 35.4534 84.9641C35.3925 85.0163 35.3204 85.0536 35.2427 85.0734L35.2424 85.0741Z" fill="white"/>
<path d="M118.979 119.545H52.6045C50.3537 119.543 48.1957 118.648 46.6041 117.056C45.0126 115.465 44.1173 113.307 44.1147 111.056V33.1043C44.1173 30.8534 45.0126 28.6955 46.6041 27.1039C48.1957 25.5123 50.3537 24.6171 52.6045 24.6145H114.355L127.469 35.0669V111.056C127.466 113.307 126.571 115.465 124.979 117.056C123.388 118.648 121.23 119.543 118.979 119.545Z" fill="#E6E6E6"/>
<path d="M52.6043 27.0585C51.0015 27.0603 49.4647 27.6979 48.3313 28.8313C47.1979 29.9647 46.5604 31.5014 46.5586 33.1043V111.056C46.5604 112.659 47.1979 114.195 48.3313 115.329C49.4647 116.462 51.0015 117.1 52.6043 117.101H118.979C120.582 117.1 122.118 116.462 123.252 115.329C124.385 114.195 125.023 112.659 125.025 111.056V36.2443L113.5 27.0585H52.6043Z" fill="white"/>
<path d="M106.069 49.7247H75.8498C75.4748 49.7247 75.1153 49.5758 74.8501 49.3107C74.585 49.0455 74.436 48.6859 74.436 48.311C74.436 47.936 74.585 47.5764 74.8501 47.3113C75.1153 47.0462 75.4748 46.8972 75.8498 46.8972H106.069C106.444 46.8972 106.804 47.0462 107.069 47.3113C107.334 47.5764 107.483 47.936 107.483 48.311C107.483 48.6859 107.334 49.0455 107.069 49.3107C106.804 49.5758 106.444 49.7247 106.069 49.7247Z" fill="#6C63FF"/>
<path d="M111.901 54.4962H75.8499C75.4752 54.4957 75.1161 54.3466 74.8514 54.0815C74.5867 53.8164 74.438 53.4571 74.438 53.0825C74.438 52.7078 74.5867 52.3485 74.8514 52.0835C75.1161 51.8184 75.4752 51.6692 75.8499 51.6687H111.901C112.087 51.6685 112.271 51.7048 112.443 51.7758C112.614 51.8467 112.77 51.9508 112.902 52.0821C113.033 52.2134 113.138 52.3693 113.209 52.541C113.28 52.7127 113.317 52.8966 113.317 53.0825C113.317 53.2683 113.28 53.4523 113.209 53.6239C113.138 53.7956 113.033 53.9515 112.902 54.0828C112.77 54.2141 112.614 54.3182 112.443 54.3892C112.271 54.4601 112.087 54.4965 111.901 54.4962Z" fill="#6C63FF"/>
<path d="M106.069 68.2797H75.8509C75.476 68.2797 75.1164 68.4287 74.8513 68.6938C74.5862 68.9589 74.4373 69.3185 74.4373 69.6934C74.4373 70.0683 74.5862 70.4279 74.8513 70.693C75.1164 70.9581 75.476 71.1071 75.8509 71.1071H106.069C106.444 71.1071 106.804 70.9581 107.069 70.693C107.334 70.4279 107.483 70.0683 107.483 69.6934C107.483 69.3185 107.334 68.9589 107.069 68.6938C106.804 68.4287 106.444 68.2797 106.069 68.2797Z" fill="#CCCCCC"/>
<path d="M111.902 73.052H75.8509C75.476 73.052 75.1164 73.2009 74.8513 73.466C74.5862 73.7311 74.4373 74.0907 74.4373 74.4657C74.4373 74.8406 74.5862 75.2002 74.8513 75.4653C75.1164 75.7304 75.476 75.8793 75.8509 75.8793H111.902C112.276 75.8793 112.636 75.7304 112.901 75.4653C113.166 75.2002 113.315 74.8406 113.315 74.4657C113.315 74.0907 113.166 73.7311 112.901 73.466C112.636 73.2009 112.276 73.052 111.902 73.052Z" fill="#CCCCCC"/>
<path d="M106.069 92.4913H75.8498C75.4748 92.4913 75.1153 92.3424 74.8501 92.0772C74.585 91.8121 74.436 91.4525 74.436 91.0776C74.436 90.7026 74.585 90.343 74.8501 90.0779C75.1153 89.8127 75.4748 89.6638 75.8498 89.6638H106.069C106.444 89.6638 106.804 89.8127 107.069 90.0779C107.334 90.343 107.483 90.7026 107.483 91.0776C107.483 91.4525 107.334 91.8121 107.069 92.0772C106.804 92.3424 106.444 92.4913 106.069 92.4913Z" fill="#CCCCCC"/>
<path d="M111.901 97.2628H75.8499C75.4752 97.2623 75.1161 97.1132 74.8514 96.8481C74.5867 96.583 74.438 96.2237 74.438 95.8491C74.438 95.4744 74.5867 95.1151 74.8514 94.85C75.1161 94.585 75.4752 94.4358 75.8499 94.4353H111.901C112.087 94.435 112.271 94.4714 112.443 94.5423C112.614 94.6133 112.77 94.7174 112.902 94.8487C113.033 94.98 113.138 95.1359 113.209 95.3076C113.28 95.4792 113.317 95.6632 113.317 95.8491C113.317 96.0349 113.28 96.2189 113.209 96.3905C113.138 96.5622 113.033 96.7181 112.902 96.8494C112.77 96.9807 112.614 97.0848 112.443 97.1558C112.271 97.2267 112.087 97.2631 111.901 97.2628Z" fill="#CCCCCC"/>
<path d="M63.2657 55.6936C66.0254 55.6936 68.2626 53.4564 68.2626 50.6967C68.2626 47.937 66.0254 45.6998 63.2657 45.6998C60.506 45.6998 58.2688 47.937 58.2688 50.6967C58.2688 53.4564 60.506 55.6936 63.2657 55.6936Z" fill="#6C63FF"/>
<path d="M62.7704 52.6029C62.658 52.6031 62.5486 52.5667 62.4587 52.4993L62.4531 52.4951L61.2787 51.5968C61.2242 51.5551 61.1784 51.5031 61.1439 51.4438C61.1095 51.3844 61.0871 51.3188 61.0781 51.2508C61.069 51.1828 61.0734 51.1136 61.0911 51.0473C61.1088 50.981 61.1394 50.9188 61.1812 50.8644C61.2229 50.8099 61.275 50.7642 61.3345 50.7299C61.3939 50.6956 61.4595 50.6734 61.5276 50.6645C61.5956 50.6555 61.6648 50.6601 61.731 50.678C61.7973 50.6958 61.8594 50.7266 61.9138 50.7684L62.6744 51.3517L64.4718 49.0068C64.5135 48.9524 64.5655 48.9068 64.6248 48.8725C64.6841 48.8382 64.7496 48.816 64.8175 48.807C64.8854 48.798 64.9545 48.8025 65.0206 48.8202C65.0868 48.8379 65.1489 48.8685 65.2032 48.9102L65.2034 48.9103L65.1922 48.9258L65.2037 48.9103C65.3134 48.9946 65.3851 49.1189 65.4032 49.2561C65.4213 49.3932 65.3842 49.5319 65.3002 49.6418L63.186 52.3987C63.1371 52.4623 63.0742 52.5137 63.0022 52.549C62.9302 52.5843 62.8511 52.6025 62.7709 52.6023L62.7704 52.6029Z" fill="white"/>
<path d="M68.7762 72.0795C68.7764 72.7358 68.6474 73.3857 68.3964 73.9921C68.1455 74.5985 67.7775 75.1496 67.3136 75.6137C66.8496 76.0779 66.2988 76.4462 65.6925 76.6974C65.0862 76.9487 64.4364 77.0781 63.7801 77.0782C63.7372 77.079 63.6942 77.0773 63.6515 77.073C62.669 77.0478 61.7157 76.7334 60.911 76.1692C60.1062 75.6049 59.4858 74.8158 59.1273 73.9007C58.7687 72.9856 58.6881 71.9851 58.8953 71.0243C59.1026 70.0636 59.5886 69.1853 60.2925 68.4994C60.9965 67.8135 61.887 67.3504 62.8528 67.1681C63.8186 66.9859 64.8167 67.0924 65.7222 67.4746C66.6277 67.8567 67.4005 68.4974 67.9437 69.3165C68.4869 70.1356 68.7765 71.0967 68.7762 72.0795Z" fill="#CCCCCC"/>
<path d="M63.2657 98.4602C66.0254 98.4602 68.2626 96.223 68.2626 93.4633C68.2626 90.7036 66.0254 88.4664 63.2657 88.4664C60.506 88.4664 58.2688 90.7036 58.2688 93.4633C58.2688 96.223 60.506 98.4602 63.2657 98.4602Z" fill="#CCCCCC"/>
<path d="M127.214 35.4033H116.941C116.191 35.4033 115.472 35.1054 114.942 34.5752C114.412 34.0449 114.114 33.3257 114.114 32.5758V24.9888C114.114 24.9555 114.123 24.923 114.141 24.8949C114.158 24.8667 114.184 24.8441 114.214 24.8297C114.243 24.8152 114.277 24.8095 114.31 24.8131C114.343 24.8167 114.374 24.8296 114.4 24.8502L127.323 35.0881C127.352 35.1109 127.373 35.142 127.383 35.1773C127.394 35.2125 127.393 35.25 127.381 35.2847C127.369 35.3193 127.346 35.3494 127.316 35.3707C127.286 35.3919 127.25 35.4033 127.214 35.4033Z" fill="#CCCCCC"/>
<path d="M68.7759 72.0795C68.7762 72.7358 68.6472 73.3857 68.3962 73.9921C68.1452 74.5986 67.7773 75.1496 67.3133 75.6138C66.8494 76.078 66.2985 76.4462 65.6923 76.6975C65.086 76.9487 64.4361 77.0781 63.7799 77.0782C63.7369 77.0791 63.694 77.0773 63.6512 77.0731C63.0057 75.4629 62.7568 73.7211 62.9256 71.9946C63.0944 70.2681 63.6759 68.6075 64.6211 67.1529C65.7835 67.3521 66.838 67.9559 67.5983 68.8574C68.3586 69.7589 68.7757 70.9002 68.7759 72.0795Z" fill="#6C63FF"/>
<path d="M74.4358 69.6947C74.4365 69.3196 74.5857 68.9601 74.851 68.6949C75.1162 68.4297 75.4757 68.2804 75.8507 68.2797H83.3809C83.8207 69.1743 84.1333 70.126 84.3096 71.1071H75.8507C75.476 71.107 75.1165 70.9582 74.8512 70.6935C74.586 70.4287 74.4366 70.0695 74.4358 69.6947Z" fill="#6C63FF"/>
<path d="M84.4848 73.052C84.4853 74.0069 84.359 74.9577 84.1092 75.8793H75.8509C75.476 75.8793 75.1164 75.7304 74.8513 75.4653C74.5862 75.2002 74.4373 74.8406 74.4373 74.4657C74.4373 74.0907 74.5862 73.7311 74.8513 73.466C75.1164 73.2009 75.476 73.052 75.8509 73.052H84.4848Z" fill="#6C63FF"/>
<path d="M103.116 90.4887C102.903 90.8382 102.56 91.0887 102.162 91.1851C101.764 91.2815 101.344 91.2159 100.995 91.0027L82.9849 80.0174C82.8119 79.9119 82.6613 79.7733 82.5418 79.6095C82.4223 79.4458 82.3362 79.2601 82.2885 79.0631C82.2408 78.8661 82.2323 78.6616 82.2636 78.4613C82.2949 78.261 82.3654 78.0689 82.4709 77.8958C82.5765 77.7228 82.7151 77.5722 82.8788 77.4527C83.0426 77.3332 83.2283 77.2472 83.4253 77.1994C83.6223 77.1517 83.8268 77.1432 84.027 77.1745C84.2273 77.2058 84.4195 77.2763 84.5925 77.3818L102.602 88.3671C102.952 88.5803 103.202 88.9236 103.299 89.3215C103.395 89.7194 103.33 90.1392 103.116 90.4887Z" fill="#3F3D56"/>
<path d="M85.1064 79.5035C83.8346 81.5885 81.9731 83.2497 79.7572 84.2768C77.5413 85.3039 75.0706 85.6508 72.6575 85.2737C70.2445 84.8966 67.9974 83.8125 66.2005 82.1583C64.4036 80.5041 63.1376 78.3543 62.5625 75.9806C61.9875 73.6069 62.1292 71.116 62.9698 68.8229C63.8104 66.5297 65.3121 64.5374 67.285 63.0977C69.258 61.658 71.6135 60.8358 74.0538 60.7348C76.494 60.6339 78.9094 61.2589 80.9945 62.5307C83.7876 64.2387 85.7892 66.9849 86.56 70.1668C87.3309 73.3487 86.8081 76.7065 85.1064 79.5035ZM66.6573 68.2502C65.7035 69.814 65.2347 71.6256 65.3104 73.4558C65.3861 75.286 66.0029 77.0526 67.0826 78.5323C68.1623 80.012 69.6566 81.1383 71.3765 81.7688C73.0963 82.3992 74.9645 82.5055 76.7448 82.0742C78.525 81.6429 80.1374 80.6934 81.378 79.3457C82.6186 77.9981 83.4318 76.3128 83.7146 74.503C83.9974 72.6932 83.7372 70.8401 82.9669 69.1782C82.1966 67.5163 80.9507 66.1201 79.3869 65.1663C77.2892 63.89 74.7709 63.4979 72.3844 64.0761C69.998 64.6542 67.9383 66.1554 66.6573 68.2502Z" fill="#3F3D56"/>
<path d="M124.672 75.053C128.161 75.053 130.99 72.224 130.99 68.7343C130.99 65.2446 128.161 62.4156 124.672 62.4156C121.182 62.4156 118.353 65.2446 118.353 68.7343C118.353 72.224 121.182 75.053 124.672 75.053Z" fill="#A0616A"/>
<path d="M124.263 104.158C124.141 103.778 124.101 103.377 124.145 102.98C124.189 102.584 124.316 102.201 124.519 101.858C124.721 101.514 124.993 101.217 125.318 100.986C125.643 100.755 126.013 100.595 126.404 100.517C126.528 100.493 126.654 100.477 126.78 100.471L133.436 89.7881L127.356 84.0082C127.124 83.7873 126.937 83.5227 126.808 83.2294C126.678 82.9362 126.608 82.6203 126.602 82.2998C126.595 81.9793 126.652 81.6608 126.769 81.3624C126.886 81.0641 127.061 80.7919 127.284 80.5616C127.507 80.3313 127.774 80.1475 128.068 80.0207C128.362 79.894 128.679 79.8268 129 79.823C129.32 79.8193 129.638 79.8791 129.935 79.999C130.233 80.1189 130.503 80.2965 130.731 80.5215L139.126 88.7987L139.143 88.8193C139.402 89.2144 139.528 89.6827 139.5 90.1547C139.473 90.6267 139.294 91.0772 138.99 91.4395L129.664 102.469C129.692 102.558 129.715 102.647 129.733 102.738C129.811 103.129 129.806 103.533 129.717 103.921C129.628 104.31 129.459 104.676 129.219 104.994C128.979 105.313 128.674 105.577 128.325 105.77C127.976 105.963 127.59 106.079 127.193 106.113C127.113 106.12 127.033 106.123 126.953 106.123C126.355 106.121 125.773 105.929 125.29 105.576C124.807 105.223 124.447 104.727 124.263 104.158Z" fill="#A0616A"/>
<path d="M114.265 156.675L111.11 156.675L109.61 144.509L114.265 144.509L114.265 156.675Z" fill="#A0616A"/>
<path d="M115.069 159.732L104.899 159.732V159.603C104.899 159.083 105.001 158.569 105.2 158.088C105.399 157.608 105.691 157.172 106.058 156.804C106.426 156.437 106.862 156.145 107.343 155.946C107.823 155.747 108.338 155.645 108.857 155.645H108.858L115.069 155.645L115.069 159.732Z" fill="#2F2E41"/>
<path d="M145.614 152.314L142.904 153.928L135.391 144.243L139.39 141.861L145.614 152.314Z" fill="#A0616A"/>
<path d="M147.869 154.529L139.131 159.732L139.065 159.622C138.799 159.175 138.624 158.68 138.549 158.166C138.474 157.652 138.501 157.127 138.629 156.624C138.757 156.12 138.983 155.646 139.294 155.229C139.605 154.813 139.994 154.461 140.441 154.195L140.441 154.195L145.778 151.018L147.869 154.529Z" fill="#2F2E41"/>
<path d="M109.213 151.317C107.1 126.438 105.843 103.326 113.567 93.8973L113.626 93.8242L126.625 99.0238L126.646 99.0702C126.69 99.1657 131.013 108.675 130.005 115.071L133.211 129.819L143.665 147.324C143.749 147.465 143.802 147.622 143.821 147.785C143.84 147.948 143.824 148.113 143.774 148.27C143.724 148.426 143.642 148.57 143.532 148.692C143.422 148.814 143.288 148.911 143.137 148.977L138.594 150.976C138.338 151.088 138.05 151.103 137.783 151.02C137.516 150.937 137.288 150.76 137.141 150.522L125.769 131.978L119.346 117.755C119.311 117.678 119.251 117.614 119.177 117.574C119.102 117.534 119.016 117.52 118.933 117.533C118.849 117.547 118.772 117.587 118.714 117.649C118.656 117.71 118.619 117.789 118.61 117.873L115.05 151.343C115.02 151.627 114.886 151.89 114.673 152.082C114.46 152.273 114.184 152.378 113.898 152.378H110.367C110.077 152.376 109.798 152.267 109.585 152.071C109.371 151.874 109.239 151.606 109.213 151.317Z" fill="#2F2E41"/>
<path d="M113.61 94.0946L113.548 94.0649L113.539 93.9968C113.053 90.5983 113.628 86.8223 115.247 82.7736C116.045 80.7921 117.528 79.1632 119.427 78.1837C121.325 77.2041 123.512 76.9392 125.589 77.4371C126.786 77.732 127.908 78.2721 128.885 79.0234C129.862 79.7746 130.672 80.7206 131.265 81.8013C131.849 82.871 132.206 84.0505 132.311 85.265C132.416 86.4795 132.267 87.7026 131.875 88.8568C129.834 94.8254 127.186 100.41 127.16 100.466L127.104 100.582L113.61 94.0946Z" fill="#6C63FF"/>
<path d="M99.428 85.6296C99.7409 85.3825 100.103 85.2043 100.489 85.1067C100.876 85.0091 101.279 84.9944 101.672 85.0633C102.064 85.1323 102.438 85.2835 102.768 85.507C103.099 85.7305 103.378 86.0212 103.588 86.3602C103.654 86.4678 103.712 86.5799 103.763 86.6957L116.1 89.1891L119.384 81.4702C119.51 81.1753 119.693 80.9082 119.922 80.6842C120.151 80.4603 120.423 80.284 120.72 80.1656C121.018 80.0471 121.337 79.9888 121.657 79.9941C121.978 79.9994 122.294 80.0681 122.588 80.1963C122.881 80.3244 123.147 80.5096 123.369 80.7409C123.591 80.9723 123.764 81.2453 123.88 81.5442C123.996 81.8431 124.051 82.1619 124.043 82.4823C124.035 82.8028 123.963 83.1184 123.832 83.411L119.019 94.1724L119.006 94.1955C118.726 94.5771 118.332 94.8585 117.88 94.998C117.428 95.1375 116.943 95.1276 116.498 94.9698L102.901 90.097C102.828 90.154 102.752 90.2072 102.673 90.2563C102.334 90.4663 101.954 90.6023 101.559 90.6554C101.164 90.7085 100.762 90.6774 100.379 90.5643C99.997 90.4512 99.6428 90.2586 99.3401 89.9991C99.0373 89.7395 98.7928 89.4189 98.6226 89.0583C98.5878 88.9855 98.5565 88.9119 98.5287 88.8374C98.3215 88.2761 98.2969 87.6638 98.4584 87.0878C98.6199 86.5117 98.9592 86.0014 99.428 85.6296Z" fill="#A0616A"/>
<path d="M147.499 75.501C146.89 74.4226 146.003 73.4349 144.831 73.0363C143.317 72.5215 141.678 73.0696 140.121 73.4356C138.922 73.7175 137.669 73.8901 136.46 73.6522C135.251 73.4142 134.085 72.7108 133.535 71.6084C132.726 69.9867 133.408 68.0529 133.359 66.2412C133.333 65.255 133.085 64.2874 132.631 63.4114C132.177 62.5354 131.531 61.7737 130.74 61.1839C129.949 60.5941 129.035 60.1915 128.066 60.0064C127.097 59.8213 126.098 59.8587 125.146 60.1156C123.655 59.6854 122.306 59.6457 121.384 60.7915C120.224 60.7915 119.112 61.2522 118.291 62.0724C117.471 62.8926 117.011 64.005 117.01 65.165H121.192C120.994 66.2313 121.221 67.3329 121.824 68.2344C122.562 69.319 123.846 70.1036 124.093 71.3921C124.332 72.6407 123.484 73.8255 122.593 74.7331C121.703 75.6408 120.67 76.5401 120.392 77.7808C120.222 78.7226 120.415 79.6939 120.933 80.4987C121.45 81.2937 122.092 82.0004 122.834 82.5917C126.174 85.4537 130.145 87.4849 134.42 88.5192C137.431 89.2442 140.725 89.4321 143.52 88.0985C144.638 87.565 145.635 86.8073 146.448 85.8724C147.261 84.9375 147.873 83.8454 148.246 82.664C148.619 81.4826 148.745 80.2371 148.617 79.0049C148.488 77.7726 148.107 76.58 147.499 75.501Z" fill="#2F2E41"/>
<path d="M148.442 160H99.562C99.4937 160 99.4283 159.973 99.38 159.925C99.3318 159.876 99.3047 159.811 99.3047 159.743C99.3047 159.674 99.3318 159.609 99.38 159.561C99.4283 159.513 99.4937 159.485 99.562 159.485H148.442C148.511 159.485 148.576 159.513 148.624 159.561C148.673 159.609 148.7 159.674 148.7 159.743C148.7 159.811 148.673 159.876 148.624 159.925C148.576 159.973 148.511 160 148.442 160Z" fill="#CCCCCC"/>
</g>
<defs>
<clipPath id="clip0">
<rect width="148.7" height="160" fill="white"/>
</clipPath>
</defs>
</svg>
