<svg width="370" height="245" viewBox="0 0 370 245" fill="none" xmlns="http://www.w3.org/2000/svg">
<g clip-path="url(#clip0)">
<path d="M155.716 90.7828L149.217 86.7209L153.211 76.5825C153.594 75.6084 154.25 74.7653 155.1 74.1535C155.949 73.5418 156.957 73.1873 158.002 73.1322C159.047 73.0773 160.086 73.3237 160.994 73.8422C161.903 74.3607 162.644 75.1295 163.128 76.0569C163.612 76.9843 163.82 78.0314 163.726 79.0734C163.632 80.1154 163.24 81.1085 162.598 81.9343L155.716 90.7828Z" fill="#FEB8B8"/>
<path d="M121.528 200.63L112.58 196.749L117.435 186.756L124.662 190.985L121.528 200.63Z" fill="#FEB8B8"/>
<path d="M118.055 216.604L107.763 206.108C106.78 205.113 106.232 203.769 106.236 202.371C106.241 200.973 106.798 199.633 107.787 198.644L112.969 193.462C113.156 193.274 113.384 193.132 113.636 193.049C113.888 192.965 114.156 192.942 114.418 192.981C114.68 193.02 114.93 193.121 115.146 193.274C115.362 193.428 115.539 193.63 115.663 193.865C116.939 196.344 118.676 197.681 120.926 197.749C122.275 197.79 122.488 197.74 122.839 199.043L122.406 208.862L124.187 210.888C124.854 211.647 125.225 212.623 125.23 213.634C125.235 214.645 124.875 215.624 124.215 216.391C123.838 216.83 123.373 217.186 122.851 217.436C122.329 217.687 121.761 217.827 121.182 217.847C120.603 217.867 120.027 217.767 119.488 217.553C118.95 217.339 118.462 217.016 118.055 216.604Z" fill="#2F2E41"/>
<path d="M125.252 192.736L115.91 188.268L123.627 139.525L85.8995 142.669C73.971 143.663 64.1249 132.996 66.5427 121.273C67.2466 117.725 69.1971 114.546 72.0413 112.311L109.411 116.779L133.623 120.108C136.053 120.442 138.322 121.513 140.124 123.177C141.927 124.84 143.176 127.016 143.703 129.412C144.123 131.32 144.07 133.302 143.55 135.186L125.252 192.736Z" fill="#2F2E41"/>
<path d="M60.465 244.931C92.993 244.931 119.362 218.562 119.362 186.034C119.362 153.506 92.993 127.137 60.465 127.137C27.937 127.137 1.56787 153.506 1.56787 186.034C1.56787 218.562 27.937 244.931 60.465 244.931Z" fill="#E6E6E6"/>
<path d="M149.623 84.2839L158.965 88.7519L144.103 113.169C143.452 114.239 142.499 115.093 141.365 115.623C140.231 116.154 138.965 116.338 137.727 116.152C136.545 115.975 135.436 115.468 134.529 114.689C133.622 113.911 132.952 112.893 132.597 111.751L115.995 79.9949C115.43 78.9146 115.104 77.7254 115.041 76.5081C114.977 75.2908 115.176 74.074 115.624 72.9405C116.072 71.807 116.76 70.7834 117.639 69.9393C118.519 69.0952 119.57 68.4505 120.721 68.049H120.721C121.787 67.6769 122.918 67.5215 124.045 67.592C125.173 67.6624 126.275 67.9574 127.287 68.4594C128.3 68.9615 129.201 69.6606 129.94 70.5157C130.678 71.3709 131.238 72.3648 131.588 73.4393L139.468 97.6881L149.623 84.2839Z" fill="#3F3D56"/>
<path d="M108.766 72.3741C111.816 72.7968 114.949 71.7914 117.494 70.0584C120.04 68.3253 122.051 65.9098 123.754 63.3441C126.631 59.0042 128.706 54.183 129.88 49.1099C130.85 50.2759 132.119 51.1553 133.552 51.6537C134.984 52.1521 136.526 52.2506 138.01 51.9386C142.853 50.8513 145.757 45.2007 144.813 40.3279C143.868 35.455 139.87 31.5917 135.308 29.636C130.746 27.6803 125.662 27.3572 120.698 27.3682C117.425 27.3755 114.09 27.5282 111.015 28.6507C107.941 29.7732 105.124 32.0105 104.032 35.0959C103.348 37.0302 103.37 39.1712 102.591 41.0697C101.178 44.5163 97.5118 46.3985 94.0712 47.8265C90.6306 49.2546 86.8902 50.7049 84.8612 53.829C82.57 57.3569 83.2313 62.2807 85.7562 65.6454C88.281 69.01 92.3362 70.9609 96.463 71.7768C100.59 72.5926 104.841 72.3909 109.043 72.1858" fill="#2F2E41"/>
<path d="M107.312 200.63L98.3638 196.749L103.219 186.756L110.445 190.985L107.312 200.63Z" fill="#FEB8B8"/>
<path d="M103.839 216.604L93.5462 206.108C92.5639 205.113 92.0152 203.769 92.0198 202.371C92.0244 200.973 92.5819 199.633 93.5706 198.644L98.7524 193.462C98.9392 193.274 99.1677 193.132 99.4194 193.049C99.6711 192.965 99.939 192.942 100.201 192.981C100.464 193.02 100.713 193.121 100.929 193.274C101.146 193.428 101.323 193.63 101.446 193.865C102.722 196.344 104.459 197.681 106.71 197.749C108.059 197.79 108.271 197.74 108.623 199.043L108.19 208.862L109.97 210.888C110.638 211.647 111.008 212.623 111.013 213.634C111.019 214.645 110.658 215.624 109.999 216.391C109.621 216.83 109.156 217.186 108.634 217.436C108.112 217.687 107.544 217.827 106.965 217.847C106.387 217.867 105.81 217.767 105.272 217.553C104.734 217.339 104.246 217.016 103.839 216.604Z" fill="#2F2E41"/>
<path d="M109.817 195.173L100.474 190.705L108.192 141.962L70.4644 145.106C58.5359 146.1 48.6899 135.433 51.1076 123.71C51.8116 120.162 53.762 116.983 56.6063 114.748L93.9755 119.216L118.188 122.545C120.618 122.879 122.887 123.95 124.689 125.614C126.492 127.277 127.741 129.453 128.268 131.849C128.688 133.757 128.635 135.74 128.115 137.623L109.817 195.173Z" fill="#2F2E41"/>
<path d="M123.424 61.9435C131.612 61.9435 138.25 55.3058 138.25 47.1177C138.25 38.9296 131.612 32.2919 123.424 32.2919C115.236 32.2919 108.598 38.9296 108.598 47.1177C108.598 55.3058 115.236 61.9435 123.424 61.9435Z" fill="#FEB8B8"/>
<path d="M113.066 81.8467L106.973 65.193C111.3 60.6024 112.252 54.9689 110.629 48.5394L128.095 58.2879L113.066 81.8467Z" fill="#FEB8B8"/>
<path d="M100.881 121.247C90.0364 124.866 75.6851 123.682 57.7035 117.525C57.2175 117.357 56.7801 117.072 56.429 116.696C56.078 116.321 55.824 115.865 55.6892 115.368C55.5543 114.872 55.5426 114.35 55.6552 113.848C55.7677 113.347 56.0011 112.88 56.335 112.489C68.4631 98.2331 79.3444 84.271 88.3239 70.7564C91.7127 66.375 96.5335 63.3238 101.944 62.1362L110.223 60.3188L122.815 66.8178L126.115 68.683C126.893 69.1229 127.574 69.7166 128.115 70.428C128.657 71.1394 129.048 71.9536 129.264 72.8209C129.481 73.6883 129.519 74.5906 129.376 75.4731C129.232 76.3555 128.911 77.1996 128.431 77.9538C123.375 90.3073 116.784 101.585 105.349 109.467L100.881 121.247Z" fill="#3F3D56"/>
<path d="M123.768 44.2332C125.59 47.132 128.298 49.3666 131.49 50.6059C133.75 51.4764 136.619 51.6927 138.316 49.9637C139.545 48.7112 139.79 46.7836 139.615 45.0375C139.071 39.5872 134.975 34.841 129.892 32.7988C124.809 30.7567 118.942 31.2031 113.87 33.2706C109.084 35.2213 104.539 39.2177 104.282 44.3793C104.15 47.0244 105.107 49.9371 103.687 52.1728C102.618 53.8565 100.552 54.5407 98.7024 55.2863C96.8523 56.032 94.8667 57.2086 94.4869 59.1668C94.2288 60.4979 94.8249 61.8872 95.7608 62.8682C96.7445 63.8075 97.9087 64.5374 99.1828 65.0137C102.2 66.2984 105.521 67.0993 108.763 66.6027C112.004 66.106 115.138 64.132 116.407 61.1081C117.384 58.7794 117.184 56.1515 117.071 53.6288C116.958 51.106 116.992 48.4191 118.339 46.2831C119.686 44.147 122.814 42.9512 124.827 44.4759" fill="#2F2E41"/>
<path opacity="0.2" d="M87.6794 86.9241C87.6794 86.9241 99.4589 116.17 102.302 117.794C105.145 119.419 105.145 115.36 105.145 115.36L87.6794 86.9241Z" fill="black"/>
<path d="M180.137 77.3898L108.643 89.0202C108.292 89.0769 107.933 88.992 107.645 88.7841C107.356 88.5763 107.162 88.2625 107.104 87.9116L104.219 70.1771C104.162 69.826 104.247 69.4668 104.455 69.1782C104.663 68.8896 104.977 68.6953 105.328 68.6378L176.821 57.0074C177.172 56.9507 177.532 57.0356 177.82 57.2434C178.109 57.4512 178.303 57.765 178.361 58.116L181.246 75.8505C181.302 76.2016 181.217 76.5608 181.01 76.8493C180.802 77.1379 180.488 77.3323 180.137 77.3898Z" fill="#6C63FF"/>
<path d="M116.253 82.9549C119.364 82.9549 121.887 80.4327 121.887 77.3213C121.887 74.2098 119.364 71.6876 116.253 71.6876C113.142 71.6876 110.619 74.2098 110.619 77.3213C110.619 80.4327 113.142 82.9549 116.253 82.9549Z" fill="white"/>
<path d="M128.492 71.5251C128.371 71.5447 128.254 71.5882 128.149 71.653C128.044 71.7178 127.952 71.8027 127.88 71.9028C127.808 72.0029 127.756 72.1162 127.728 72.2364C127.7 72.3565 127.695 72.481 127.715 72.6028C127.735 72.7246 127.779 72.8413 127.843 72.9463C127.908 73.0512 127.993 73.1423 128.094 73.2144C128.194 73.2864 128.307 73.338 128.427 73.3662C128.548 73.3944 128.672 73.3986 128.794 73.3786L172.484 66.2712C172.606 66.2514 172.723 66.2078 172.828 66.1429C172.932 66.0781 173.023 65.9932 173.095 65.8931C173.168 65.7931 173.219 65.6798 173.247 65.5598C173.276 65.4398 173.28 65.3153 173.26 65.1936C173.241 65.0719 173.197 64.9553 173.132 64.8505C173.067 64.7456 172.982 64.6545 172.882 64.5825C172.782 64.5104 172.669 64.4588 172.549 64.4305C172.429 64.4022 172.305 64.3978 172.183 64.4176L128.492 71.5251Z" fill="white"/>
<path d="M129.397 77.0856C129.275 77.1052 129.158 77.1487 129.053 77.2135C128.948 77.2783 128.857 77.3632 128.785 77.4633C128.713 77.5634 128.661 77.6768 128.633 77.7969C128.604 77.917 128.6 78.0415 128.62 78.1633C128.639 78.2852 128.683 78.4019 128.748 78.5068C128.813 78.6117 128.898 78.7029 128.998 78.7749C129.098 78.847 129.212 78.8986 129.332 78.9267C129.452 78.9549 129.577 78.9591 129.698 78.9391L173.389 71.8317C173.634 71.7915 173.854 71.6554 173.999 71.4534C174.145 71.2514 174.204 71 174.164 70.7544C174.124 70.5088 173.988 70.2891 173.786 70.1435C173.584 69.998 173.333 69.9385 173.087 69.9782L129.397 77.0856Z" fill="white"/>
<path d="M128.095 97.688L121.596 93.6261L125.59 83.4877C125.974 82.5136 126.63 81.6705 127.479 81.0587C128.329 80.447 129.336 80.0925 130.382 80.0375C131.427 79.9825 132.465 80.2289 133.374 80.7474C134.283 81.2659 135.023 82.0347 135.507 82.9621C135.992 83.8895 136.199 84.9366 136.105 85.9786C136.011 87.0206 135.62 88.0137 134.977 88.8395L128.095 97.688Z" fill="#FEB8B8"/>
<path d="M121.596 91.189L130.939 95.6571L116.076 120.075C115.425 121.144 114.472 121.998 113.338 122.528C112.204 123.059 110.938 123.243 109.7 123.057C108.518 122.88 107.41 122.373 106.502 121.594C105.595 120.816 104.926 119.798 104.571 118.656L87.9679 86.9C87.4031 85.8198 87.0776 84.6305 87.0137 83.4132C86.9497 82.1959 87.1487 80.9791 87.5971 79.8456C88.0455 78.7121 88.7328 77.6885 89.6123 76.8445C90.4918 76.0004 91.5427 75.3557 92.6937 74.9542H92.6937C93.7605 74.582 94.8909 74.4266 96.0185 74.4971C97.1462 74.5676 98.2484 74.8625 99.2605 75.3646C100.273 75.8666 101.174 76.5657 101.913 77.4209C102.651 78.276 103.212 79.27 103.561 80.3445L111.442 104.593L121.596 91.189Z" fill="#3F3D56"/>
<path d="M355.158 179.149C349.776 186.757 348.354 230.056 348.037 243.936C348.029 244.248 348.021 244.545 348.017 244.825H334.394C334.227 244.529 334.073 244.236 333.927 243.936C325.852 227.997 330.332 208.886 330.567 207.919C329.954 210.957 332.728 219.763 335.864 228.293C337.777 202.066 354.134 180.473 355.158 179.149Z" fill="#E6E6E6"/>
<path d="M370 243.936L369.838 244.825H0V243.936H370Z" fill="#3F3D56"/>
<path d="M337.107 79.6832H227.437C226.898 79.6826 226.382 79.4684 226.001 79.0877C225.621 78.707 225.406 78.1908 225.406 77.6523V50.4477C225.406 49.9092 225.621 49.393 226.001 49.0123C226.382 48.6316 226.898 48.4174 227.437 48.4167H337.107C337.646 48.4174 338.162 48.6316 338.543 49.0123C338.924 49.393 339.138 49.9092 339.138 50.4477V77.6523C339.138 78.1908 338.924 78.707 338.543 79.0877C338.162 79.4684 337.646 79.6826 337.107 79.6832ZM227.437 49.2291C227.114 49.2295 226.804 49.358 226.575 49.5864C226.347 49.8149 226.218 50.1246 226.218 50.4477V77.6523C226.218 77.9754 226.347 78.2851 226.575 78.5136C226.804 78.742 227.114 78.8705 227.437 78.8709H337.107C337.431 78.8705 337.74 78.742 337.969 78.5136C338.197 78.2851 338.326 77.9754 338.326 77.6523V50.4477C338.326 50.1246 338.197 49.8149 337.969 49.5864C337.74 49.358 337.431 49.2295 337.107 49.2291H227.437Z" fill="#E6E6E6"/>
<path d="M241.653 72.5798C246.364 72.5798 250.183 68.7608 250.183 64.0499C250.183 59.3389 246.364 55.52 241.653 55.52C236.942 55.52 233.123 59.3389 233.123 64.0499C233.123 68.7608 236.942 72.5798 241.653 72.5798Z" fill="#E6E6E6"/>
<path d="M261.353 58.3633C260.976 58.3633 260.615 58.5131 260.348 58.7797C260.081 59.0463 259.932 59.4079 259.932 59.7849C259.932 60.162 260.081 60.5236 260.348 60.7902C260.615 61.0568 260.976 61.2066 261.353 61.2066H328.374C328.751 61.2066 329.113 61.0568 329.379 60.7902C329.646 60.5236 329.796 60.162 329.796 59.7849C329.796 59.4079 329.646 59.0463 329.379 58.7797C329.113 58.5131 328.751 58.3633 328.374 58.3633H261.353Z" fill="#E6E6E6"/>
<path d="M261.353 66.8932C260.976 66.8932 260.615 67.043 260.348 67.3096C260.081 67.5763 259.932 67.9379 259.932 68.3149C259.932 68.692 260.081 69.0536 260.348 69.3202C260.615 69.5868 260.976 69.7366 261.353 69.7366H328.374C328.751 69.7366 329.113 69.5868 329.379 69.3202C329.646 69.0536 329.796 68.692 329.796 68.3149C329.796 67.9379 329.646 67.5763 329.379 67.3096C329.113 67.043 328.751 66.8932 328.374 66.8932H261.353Z" fill="#E6E6E6"/>
<path d="M337.107 125.176H227.437C226.898 125.176 226.382 124.961 226.001 124.581C225.621 124.2 225.406 123.684 225.406 123.145V95.9407C225.406 95.4022 225.621 94.886 226.001 94.5053C226.382 94.1245 226.898 93.9104 227.437 93.9097H337.107C337.646 93.9104 338.162 94.1245 338.543 94.5053C338.924 94.886 339.138 95.4022 339.138 95.9407V123.145C339.138 123.684 338.924 124.2 338.543 124.581C338.162 124.961 337.646 125.176 337.107 125.176ZM227.437 94.7221C227.114 94.7225 226.804 94.851 226.575 95.0794C226.347 95.3078 226.218 95.6176 226.218 95.9407V123.145C226.218 123.468 226.347 123.778 226.575 124.007C226.804 124.235 227.114 124.364 227.437 124.364H337.107C337.431 124.364 337.74 124.235 337.969 124.007C338.197 123.778 338.326 123.468 338.326 123.145V95.9407C338.326 95.6176 338.197 95.3078 337.969 95.0794C337.74 94.851 337.431 94.7225 337.107 94.7221H227.437Z" fill="#E6E6E6"/>
<path d="M241.653 118.073C246.364 118.073 250.183 114.254 250.183 109.543C250.183 104.832 246.364 101.013 241.653 101.013C236.942 101.013 233.123 104.832 233.123 109.543C233.123 114.254 236.942 118.073 241.653 118.073Z" fill="#E6E6E6"/>
<path d="M261.353 103.856C260.976 103.856 260.615 104.006 260.348 104.273C260.081 104.539 259.932 104.901 259.932 105.278C259.932 105.655 260.081 106.017 260.348 106.283C260.615 106.55 260.976 106.7 261.353 106.7H328.374C328.751 106.7 329.113 106.55 329.379 106.283C329.646 106.017 329.796 105.655 329.796 105.278C329.796 104.901 329.646 104.539 329.379 104.273C329.113 104.006 328.751 103.856 328.374 103.856H261.353Z" fill="#E6E6E6"/>
<path d="M261.353 112.386C260.976 112.386 260.615 112.536 260.348 112.803C260.081 113.069 259.932 113.431 259.932 113.808C259.932 114.185 260.081 114.547 260.348 114.813C260.615 115.08 260.976 115.23 261.353 115.23H328.374C328.751 115.23 329.113 115.08 329.379 114.813C329.646 114.547 329.796 114.185 329.796 113.808C329.796 113.431 329.646 113.069 329.379 112.803C329.113 112.536 328.751 112.386 328.374 112.386H261.353Z" fill="#E6E6E6"/>
<path d="M282.272 34.1197C278.898 34.1197 275.599 33.1192 272.794 31.2446C269.988 29.3701 267.802 26.7057 266.511 23.5884C265.219 20.4711 264.881 17.0409 265.54 13.7317C266.198 10.4224 267.823 7.38259 270.209 4.99672C272.594 2.61086 275.634 0.986066 278.944 0.327808C282.253 -0.330451 285.683 0.00739287 288.8 1.29861C291.918 2.58983 294.582 4.77643 296.457 7.58191C298.331 10.3874 299.332 13.6857 299.332 17.0599C299.327 21.5829 297.528 25.9191 294.329 29.1174C291.131 32.3156 286.795 34.1146 282.272 34.1197ZM282.272 0.81238C279.058 0.81238 275.917 1.76528 273.245 3.55057C270.573 5.33587 268.491 7.87338 267.261 10.8422C266.031 13.8111 265.71 17.0779 266.336 20.2296C266.963 23.3813 268.511 26.2763 270.783 28.5486C273.055 30.8208 275.95 32.3683 279.102 32.9952C282.254 33.6221 285.521 33.3003 288.489 32.0706C291.458 30.8409 293.996 28.7584 295.781 26.0865C297.566 23.4146 298.519 20.2733 298.519 17.0599C298.514 12.7523 296.801 8.6225 293.755 5.57656C290.709 2.53063 286.579 0.817274 282.272 0.81238Z" fill="#6C63FF"/>
<path d="M289.003 15.377H283.955V10.3285C283.955 9.88218 283.778 9.45413 283.462 9.13853C283.146 8.82293 282.718 8.64563 282.272 8.64563C281.826 8.64563 281.398 8.82293 281.082 9.13853C280.766 9.45413 280.589 9.88218 280.589 10.3285V15.377H275.541C275.094 15.377 274.666 15.5543 274.351 15.8699C274.035 16.1855 273.858 16.6136 273.858 17.0599C273.858 17.5062 274.035 17.9342 274.351 18.2498C274.666 18.5654 275.094 18.7427 275.541 18.7427H280.589V23.7913C280.589 24.2376 280.766 24.6657 281.082 24.9813C281.398 25.2969 281.826 25.4742 282.272 25.4742C282.718 25.4742 283.146 25.2969 283.462 24.9813C283.778 24.6657 283.955 24.2376 283.955 23.7913V18.7428H289.003C289.45 18.7428 289.878 18.5655 290.193 18.2499C290.509 17.9343 290.686 17.5062 290.686 17.0599C290.686 16.6136 290.509 16.1855 290.193 15.87C289.878 15.5544 289.45 15.3771 289.003 15.3771V15.377Z" fill="#6C63FF"/>
</g>
<defs>
<clipPath id="clip0">
<rect width="370" height="244.931" fill="white"/>
</clipPath>
</defs>
</svg>
