<svg width="199" height="160" viewBox="0 0 199 160" fill="none" xmlns="http://www.w3.org/2000/svg">
<g clip-path="url(#clip0)">
<path d="M72.3033 121.367C71.7017 119.925 71.6356 118.316 72.1169 116.829C72.5982 115.343 73.5952 114.078 74.9277 113.263C75.3714 112.993 74.9658 112.294 74.5199 112.565C72.9914 113.478 71.8507 114.919 71.3136 116.616C70.7765 118.314 70.8804 120.149 71.6055 121.775C71.8094 122.251 72.5057 121.84 72.3033 121.367H72.3033Z" fill="#3F3D56"/>
<path d="M72.5346 122.454C71.4447 120.523 71.7011 118.212 72.0932 116.124C72.5024 113.944 73.0389 111.731 72.5747 109.514C72.3642 108.438 71.8659 107.438 71.1328 106.623C70.7798 106.239 70.2095 106.812 70.5614 107.194C71.9321 108.683 72.0911 110.843 71.8687 112.761C71.6065 115.023 70.8633 117.227 70.9556 119.526C70.9797 120.692 71.2818 121.836 71.8368 122.861C71.8928 122.95 71.981 123.013 72.0829 123.038C72.1847 123.063 72.2923 123.047 72.3828 122.995C72.4733 122.942 72.5397 122.856 72.568 122.755C72.5964 122.654 72.5844 122.546 72.5346 122.454L72.5346 122.454Z" fill="#3F3D56"/>
<path d="M78.3838 128.62H64.6464C64.3251 128.619 64.017 128.491 63.7898 128.264C63.5625 128.037 63.4347 127.729 63.4343 127.407V123.372C63.4355 122.335 63.848 121.341 64.5812 120.608C65.3144 119.875 66.3085 119.462 67.3454 119.461H69.3603C69.4674 119.461 69.5701 119.419 69.6458 119.343C69.7216 119.267 69.7642 119.164 69.7643 119.057V117.172C69.7645 116.993 69.8355 116.822 69.9618 116.696C70.088 116.57 70.2592 116.499 70.4377 116.498H72.5926C72.7711 116.499 72.9423 116.57 73.0685 116.696C73.1948 116.822 73.2658 116.993 73.266 117.172V119.057C73.2661 119.164 73.3087 119.267 73.3845 119.343C73.4602 119.419 73.5629 119.461 73.67 119.461H75.6849C76.7218 119.462 77.7159 119.875 78.4491 120.608C79.1823 121.341 79.5948 122.335 79.5959 123.372V127.407C79.5956 127.729 79.4678 128.037 79.2405 128.264C79.0133 128.491 78.7052 128.619 78.3838 128.62Z" fill="#CCCCCC"/>
<path d="M71.7261 104.388C72.0153 105.923 71.6573 107.279 70.9263 107.417C70.1953 107.554 69.3683 106.422 69.0791 104.887C68.7898 103.352 69.6794 100.799 69.6794 100.799C69.6794 100.799 71.4369 102.853 71.7261 104.388Z" fill="#6C63FF"/>
<path d="M77.2736 111.529C76.3576 112.794 75.1267 113.467 74.5241 113.03C73.9216 112.594 74.1757 111.215 75.0916 109.95C76.0076 108.684 78.4728 107.576 78.4728 107.576C78.4728 107.576 78.1895 110.264 77.2736 111.529Z" fill="#6C63FF"/>
<path d="M46.9834 24.3969C46.3819 22.9552 46.3158 21.3459 46.7971 19.8597C47.2784 18.3736 48.2754 17.1085 49.6079 16.2932C50.0516 16.0234 49.646 15.3243 49.2 15.5954C47.6716 16.5081 46.5309 17.9494 45.9938 19.6466C45.4567 21.3438 45.5606 23.179 46.2857 24.8048C46.4895 25.2815 47.1859 24.8703 46.9834 24.3969H46.9834Z" fill="#3F3D56"/>
<path d="M47.2145 25.4838C46.1246 23.5529 46.3811 21.2422 46.7731 19.1541C47.1823 16.9744 47.7188 14.7612 47.2546 12.5443C47.0441 11.4679 46.5458 10.4688 45.8128 9.65305C45.4597 9.26964 44.8894 9.84222 45.2414 10.2245C46.6121 11.7132 46.771 13.8729 46.5487 15.7909C46.2865 18.0532 45.5433 20.2576 45.6355 22.5564C45.6596 23.7225 45.9618 24.8659 46.5168 25.8917C46.5727 25.9803 46.6609 26.0438 46.7628 26.0686C46.8647 26.0935 46.9722 26.0778 47.0627 26.0249C47.1532 25.972 47.2196 25.886 47.248 25.785C47.2763 25.6841 47.2643 25.5761 47.2145 25.4838L47.2145 25.4838Z" fill="#3F3D56"/>
<path d="M53.064 31.6498H39.3266C39.0053 31.6495 38.6972 31.5217 38.4699 31.2944C38.2427 31.0672 38.1149 30.7591 38.1145 30.4377V26.4026C38.1157 25.3657 38.5281 24.3716 39.2613 23.6384C39.9945 22.9052 40.9886 22.4928 42.0255 22.4916H44.0404C44.1475 22.4915 44.2502 22.4489 44.326 22.3731C44.4017 22.2974 44.4443 22.1947 44.4445 22.0875V20.202C44.4447 20.0235 44.5157 19.8523 44.6419 19.7261C44.7682 19.5998 44.9393 19.5288 45.1179 19.5286H47.2727C47.4513 19.5288 47.6224 19.5998 47.7487 19.7261C47.8749 19.8523 47.9459 20.0235 47.9461 20.202V22.0875C47.9463 22.1947 47.9889 22.2974 48.0646 22.3731C48.1404 22.4489 48.2431 22.4915 48.3502 22.4916H50.3651C51.402 22.4928 52.3961 22.9052 53.1293 23.6384C53.8625 24.3716 54.2749 25.3657 54.2761 26.4026V30.4377C54.2758 30.7591 54.1479 31.0672 53.9207 31.2944C53.6935 31.5217 53.3854 31.6495 53.064 31.6498Z" fill="#CCCCCC"/>
<path d="M46.4063 7.41806C46.6955 8.95307 46.3374 10.3091 45.6065 10.4468C44.8755 10.5845 44.0485 9.45182 43.7593 7.91682C43.47 6.38181 44.3596 3.82925 44.3596 3.82925C44.3596 3.82925 46.1171 5.88305 46.4063 7.41806Z" fill="#6C63FF"/>
<path d="M51.9535 14.5595C51.0375 15.8248 49.8066 16.4969 49.2041 16.0608C48.6016 15.6246 48.8556 14.2453 49.7716 12.98C50.6875 11.7147 53.1528 10.606 53.1528 10.606C53.1528 10.606 52.8694 13.2942 51.9535 14.5595Z" fill="#6C63FF"/>
<path d="M19.6634 73.266H8.61963V77.3064H19.6634V73.266Z" fill="#6C63FF"/>
<path d="M19.6634 86.4647H8.61963V90.5051H19.6634V86.4647Z" fill="#6C63FF"/>
<path d="M87.0034 159.731H4.57912C3.36508 159.729 2.20116 159.246 1.3427 158.388C0.484242 157.53 0.00136101 156.366 0 155.152V4.57913C0.00136101 3.36508 0.484242 2.20116 1.3427 1.3427C2.20116 0.484242 3.36508 0.00136101 4.57912 0H87.0034C88.2174 0.0013667 89.3813 0.484247 90.2398 1.3427C91.0982 2.20116 91.5811 3.36509 91.5825 4.57913V155.152C91.5811 156.366 91.0982 157.529 90.2398 158.388C89.3813 159.246 88.2174 159.729 87.0034 159.731ZM4.57912 0.538721C3.50791 0.539933 2.48093 0.966004 1.72347 1.72346C0.966008 2.48092 0.539933 3.50792 0.538721 4.57913V155.152C0.539933 156.223 0.966008 157.25 1.72347 158.007C2.48093 158.765 3.50791 159.191 4.57912 159.192H87.0034C88.0746 159.191 89.1016 158.765 89.859 158.007C90.6165 157.25 91.0426 156.223 91.0438 155.152V4.57913C91.0426 3.50792 90.6165 2.48092 89.859 1.72346C89.1016 0.966004 88.0746 0.539933 87.0034 0.538721H4.57912Z" fill="#3F3D56"/>
<path d="M91.3131 31.0984H0.269287V31.6371H91.3131V31.0984Z" fill="#3F3D56"/>
<path d="M91.3131 63.4301H0.269287V63.9688H91.3131V63.4301Z" fill="#3F3D56"/>
<path d="M91.3131 95.7618H0.269287V96.3005H91.3131V95.7618Z" fill="#3F3D56"/>
<path d="M91.3131 128.094H0.269287V128.632H91.3131V128.094Z" fill="#3F3D56"/>
<path d="M18.8552 96.431H9.6969C9.33983 96.4306 8.99751 96.2885 8.74502 96.0361C8.49254 95.7836 8.35051 95.4413 8.3501 95.0842V68.9562C8.35051 68.5992 8.49254 68.2568 8.74502 68.0044C8.99751 67.7519 9.33983 67.6098 9.6969 67.6094H18.8552C19.2122 67.6098 19.5545 67.7519 19.807 68.0044C20.0595 68.2568 20.2015 68.5992 20.202 68.9562V95.0842C20.2015 95.4413 20.0595 95.7836 19.807 96.0361C19.5545 96.2885 19.2122 96.4306 18.8552 96.431ZM9.6969 68.1482C9.48266 68.1484 9.27726 68.2336 9.12577 68.3851C8.97427 68.5366 8.88906 68.742 8.88882 68.9562V95.0842C8.88906 95.2984 8.97427 95.5038 9.12577 95.6553C9.27726 95.8068 9.48266 95.892 9.6969 95.8923H18.8552C19.0694 95.892 19.2748 95.8068 19.4263 95.6553C19.5778 95.5038 19.663 95.2984 19.6632 95.0842V68.9562C19.663 68.742 19.5778 68.5366 19.4263 68.3851C19.2748 68.2336 19.0694 68.1484 18.8552 68.1482H9.6969Z" fill="#3F3D56"/>
<path d="M36.6329 73.266H25.5891V77.3064H36.6329V73.266Z" fill="#6C63FF"/>
<path d="M36.6329 86.4647H25.5891V90.5051H36.6329V86.4647Z" fill="#6C63FF"/>
<path d="M35.8249 96.431H26.6666C26.3096 96.4306 25.9672 96.2885 25.7147 96.0361C25.4623 95.7836 25.3202 95.4413 25.3198 95.0842V68.9562C25.3202 68.5992 25.4623 68.2568 25.7147 68.0044C25.9672 67.7519 26.3096 67.6098 26.6666 67.6094H35.8249C36.1819 67.6098 36.5243 67.7519 36.7768 68.0044C37.0292 68.2568 37.1713 68.5992 37.1717 68.9562V95.0842C37.1713 95.4413 37.0292 95.7836 36.7768 96.0361C36.5243 96.2885 36.1819 96.4306 35.8249 96.431ZM26.6666 68.1482C26.4524 68.1484 26.247 68.2336 26.0955 68.3851C25.944 68.5366 25.8588 68.742 25.8585 68.9562V95.0842C25.8588 95.2984 25.944 95.5038 26.0955 95.6553C26.247 95.8068 26.4524 95.892 26.6666 95.8923H35.8249C36.0391 95.892 36.2445 95.8068 36.396 95.6553C36.5475 95.5038 36.6327 95.2984 36.633 95.0842V68.9562C36.6327 68.742 36.5475 68.5366 36.396 68.3851C36.2445 68.2336 36.0391 68.1484 35.8249 68.1482H26.6666Z" fill="#3F3D56"/>
<path d="M63.5692 40.6734H52.5254V44.7138H63.5692V40.6734Z" fill="#6C63FF"/>
<path d="M63.5692 53.872H52.5254V57.9125H63.5692V53.872Z" fill="#6C63FF"/>
<path d="M62.7609 63.8384H53.6027C53.2456 63.838 52.9033 63.696 52.6508 63.4435C52.3983 63.191 52.2563 62.8487 52.2559 62.4916V36.3636C52.2563 36.0066 52.3983 35.6643 52.6508 35.4118C52.9033 35.1593 53.2456 35.0173 53.6027 35.0168H62.7609C63.118 35.0173 63.4603 35.1593 63.7128 35.4118C63.9653 35.6643 64.1073 36.0066 64.1077 36.3636V62.4916C64.1073 62.8487 63.9653 63.191 63.7128 63.4435C63.4603 63.696 63.118 63.838 62.7609 63.8384ZM53.6027 35.5556C53.3884 35.5558 53.183 35.641 53.0315 35.7925C52.88 35.944 52.7948 36.1494 52.7946 36.3636V62.4916C52.7948 62.7058 52.88 62.9112 53.0315 63.0627C53.183 63.2142 53.3884 63.2994 53.6027 63.2997H62.7609C62.9752 63.2994 63.1806 63.2142 63.3321 63.0627C63.4835 62.9112 63.5688 62.7058 63.569 62.4916V36.3636C63.5688 36.1494 63.4835 35.944 63.3321 35.7925C63.1806 35.641 62.9752 35.5558 62.7609 35.5556H53.6027Z" fill="#3F3D56"/>
<path d="M80.5386 40.6734H69.4949V44.7138H80.5386V40.6734Z" fill="#6C63FF"/>
<path d="M80.5386 53.872H69.4949V57.9125H80.5386V53.872Z" fill="#6C63FF"/>
<path d="M79.7306 63.8384H70.5724C70.2153 63.838 69.873 63.696 69.6205 63.4435C69.368 63.191 69.226 62.8487 69.2256 62.4916V36.3636C69.226 36.0066 69.368 35.6643 69.6205 35.4118C69.873 35.1593 70.2153 35.0173 70.5724 35.0168H79.7306C80.0877 35.0173 80.43 35.1593 80.6825 35.4118C80.935 35.6643 81.077 36.0066 81.0774 36.3636V62.4916C81.077 62.8487 80.935 63.191 80.6825 63.4435C80.43 63.696 80.0877 63.838 79.7306 63.8384ZM70.5724 35.5556C70.3581 35.5558 70.1527 35.641 70.0012 35.7925C69.8498 35.944 69.7645 36.1494 69.7643 36.3636V62.4916C69.7645 62.7058 69.8498 62.9112 70.0012 63.0627C70.1527 63.2142 70.3581 63.2994 70.5724 63.2997H79.7306C79.9449 63.2994 80.1503 63.2142 80.3018 63.0627C80.4533 62.9112 80.5385 62.7058 80.5387 62.4916V36.3636C80.5385 36.1494 80.4533 35.944 80.3018 35.7925C80.1503 35.641 79.9449 35.5558 79.7306 35.5556H70.5724Z" fill="#3F3D56"/>
<path d="M50.1791 70.853L39.8411 74.7377L41.2623 78.5199L51.6003 74.6352L50.1791 70.853Z" fill="#6C63FF"/>
<path d="M54.8216 83.2082L44.4836 87.0929L45.9049 90.8751L56.2429 86.9904L54.8216 83.2082Z" fill="#6C63FF"/>
<path d="M48.5236 96.13C48.2497 96.1295 47.9824 96.0456 47.7573 95.8895C47.5323 95.7334 47.36 95.5125 47.2635 95.2562L38.0729 70.7981C37.9477 70.4637 37.9603 70.0933 38.1078 69.7682C38.2553 69.443 38.5258 69.1897 38.8598 69.0637L47.4329 65.8423C47.5984 65.78 47.7746 65.751 47.9514 65.7569C48.1282 65.7627 48.3021 65.8034 48.4631 65.8765C48.6242 65.9496 48.7693 66.0537 48.8901 66.1828C49.0109 66.312 49.1051 66.4637 49.1673 66.6293L58.358 91.0874C58.4831 91.4218 58.4706 91.7922 58.3231 92.1173C58.1755 92.4424 57.9051 92.6958 57.571 92.8218H57.571L48.998 96.0432C48.8464 96.1005 48.6856 96.1299 48.5236 96.13ZM47.9071 66.2944C47.8098 66.2946 47.7134 66.3122 47.6224 66.3465L39.0494 69.5679C38.8489 69.6435 38.6866 69.7956 38.5981 69.9907C38.5096 70.1858 38.5021 70.408 38.5772 70.6087L47.7678 95.0668C47.8051 95.1661 47.8617 95.2572 47.9342 95.3346C48.0067 95.4121 48.0937 95.4746 48.1904 95.5184C48.287 95.5623 48.3913 95.5867 48.4974 95.5902C48.6035 95.5937 48.7092 95.5763 48.8085 95.539L57.3815 92.3176C57.5819 92.2419 57.7442 92.0899 57.8327 91.8948C57.9213 91.6997 57.9288 91.4775 57.8537 91.2768L48.663 66.8187C48.6051 66.6649 48.5018 66.5324 48.3668 66.4388C48.2317 66.3451 48.0714 66.2948 47.9071 66.2944Z" fill="#3F3D56"/>
<path d="M13.0072 38.7991L2.66919 42.6838L4.09042 46.466L14.4284 42.5813L13.0072 38.7991Z" fill="#6C63FF"/>
<path d="M17.65 51.1543L7.31201 55.039L8.73324 58.8212L19.0712 54.9365L17.65 51.1543Z" fill="#6C63FF"/>
<path d="M11.3519 64.0762C11.078 64.0756 10.8108 63.9918 10.5857 63.8357C10.3606 63.6796 10.1884 63.4587 10.0919 63.2023L0.90126 38.7442C0.776084 38.4098 0.788636 38.0395 0.936159 37.7143C1.08368 37.3892 1.35413 37.1358 1.6882 37.0098L10.2612 33.7884C10.4268 33.7262 10.603 33.6971 10.7798 33.703C10.9566 33.7089 11.1304 33.7495 11.2915 33.8226C11.4526 33.8957 11.5977 33.9998 11.7185 34.129C11.8393 34.2581 11.9335 34.4099 11.9957 34.5754L21.1863 59.0336C21.3115 59.3679 21.299 59.7383 21.1514 60.0635C21.0039 60.3886 20.7335 60.642 20.3994 60.768H20.3994L11.8264 63.9894C11.6747 64.0466 11.514 64.0761 11.3519 64.0762ZM10.7354 34.2406C10.6382 34.2407 10.5417 34.2583 10.4507 34.2927L1.87776 37.5141C1.6773 37.5897 1.51501 37.7417 1.42649 37.9368C1.33797 38.1319 1.33044 38.3542 1.40555 38.5548L10.5962 63.0129C10.6335 63.1123 10.69 63.2033 10.7625 63.2808C10.835 63.3583 10.9221 63.4207 11.0187 63.4646C11.1154 63.5084 11.2197 63.5328 11.3258 63.5363C11.4318 63.5399 11.5375 63.5225 11.6369 63.4851L20.2098 60.2637C20.4103 60.1881 20.5726 60.0361 20.6611 59.841C20.7496 59.6459 20.7572 59.4236 20.682 59.223L11.4914 34.7648C11.4335 34.6111 11.3302 34.4785 11.1951 34.3849C11.0601 34.2913 10.8998 34.2409 10.7354 34.2406Z" fill="#3F3D56"/>
<path d="M168.889 67.34C173.5 67.34 177.239 63.6015 177.239 58.9899C177.239 54.3782 173.5 50.6397 168.889 50.6397C164.277 50.6397 160.539 54.3782 160.539 58.9899C160.539 63.6015 164.277 67.34 168.889 67.34Z" fill="#2F2E41"/>
<path d="M131.793 97.0966C132.187 97.2494 132.61 97.3139 133.032 97.2854C133.454 97.257 133.865 97.1364 134.236 96.9321C134.606 96.7278 134.927 96.4447 135.176 96.1029C135.426 95.761 135.597 95.3687 135.678 94.9535L158.637 80.4678L154.458 75.7628L133.194 91.491C132.488 91.4009 131.773 91.5731 131.185 91.9749C130.597 92.3767 130.176 92.9803 130.004 93.6713C129.831 94.3622 129.918 95.0926 130.247 95.7239C130.577 96.3552 131.127 96.8436 131.793 97.0966Z" fill="#FFB8B8"/>
<path d="M153.844 84.319C153.641 84.3193 153.441 84.2686 153.262 84.1715C153.084 84.0744 152.932 83.934 152.822 83.7631L150.163 79.6315C149.996 79.3707 149.934 79.0555 149.992 78.7507C150.049 78.446 150.221 78.1749 150.473 77.9932L159.37 71.5628C159.801 71.2507 160.291 71.0284 160.81 70.909C161.33 70.7896 161.867 70.7756 162.392 70.8677C162.917 70.9598 163.418 71.1562 163.865 71.4452C164.312 71.7343 164.697 72.1102 164.997 72.5506C165.297 72.991 165.505 73.4871 165.609 74.0094C165.714 74.5317 165.713 75.0697 165.606 75.5915C165.499 76.1133 165.288 76.6084 164.986 77.0474C164.685 77.4864 164.298 77.8604 163.849 78.1474L154.494 84.1285C154.3 84.253 154.075 84.3191 153.844 84.319Z" fill="#2F2E41"/>
<path d="M157.817 156.458L154.515 156.458L152.943 143.72L157.817 143.72L157.817 156.458Z" fill="#FFB8B8"/>
<path d="M152.155 155.514H158.524V159.524H148.146C148.146 158.997 148.249 158.476 148.451 157.99C148.652 157.503 148.948 157.061 149.32 156.689C149.692 156.316 150.134 156.021 150.621 155.819C151.107 155.618 151.629 155.514 152.155 155.514Z" fill="#2F2E41"/>
<path d="M173.233 153.989L170.054 154.882L165.098 143.043L169.79 141.726L173.233 153.989Z" fill="#FFB8B8"/>
<path d="M167.528 154.611L173.659 152.889L174.743 156.75L164.751 159.555C164.608 159.048 164.567 158.518 164.63 157.995C164.692 157.472 164.857 156.967 165.115 156.508C165.373 156.049 165.719 155.645 166.133 155.319C166.547 154.994 167.021 154.753 167.528 154.611Z" fill="#2F2E41"/>
<path d="M182.131 134.441L169.31 119.311L177.09 109.872C177.204 109.733 177.347 109.622 177.509 109.546C177.672 109.469 177.849 109.43 178.028 109.431C178.208 109.431 178.385 109.471 178.547 109.549C178.709 109.626 178.851 109.738 178.965 109.877L190.736 124.324L182.131 134.441Z" fill="#6C63FF"/>
<path d="M169.827 119.424C170.016 119.083 170.251 118.771 170.524 118.494L177.95 110.966C178.241 110.669 178.632 110.493 179.047 110.473C179.896 110.433 181.287 110.518 181.675 111.449L171.65 119.651L169.827 119.424Z" fill="#F2F2F2"/>
<path d="M182.576 137.643C182.004 137.626 181.449 137.45 180.971 137.135L180.936 137.098L169.194 119.14L171.142 118.952L181.585 110.807C181.716 110.704 181.868 110.63 182.03 110.588C182.192 110.547 182.361 110.539 182.526 110.566C182.691 110.593 182.849 110.654 182.989 110.745C183.129 110.836 183.249 110.955 183.341 111.094L194.756 128.37C194.931 128.637 194.994 128.962 194.932 129.275C194.87 129.588 194.687 129.864 194.422 130.043L183.377 137.491C183.122 137.593 182.85 137.644 182.576 137.643Z" fill="#6C63FF"/>
<path d="M178.423 125.359C178.313 125.359 178.204 125.332 178.106 125.28C178.009 125.228 177.926 125.153 177.864 125.062L176.515 123.058C176.415 122.91 176.379 122.728 176.413 122.553C176.447 122.378 176.549 122.223 176.697 122.123L183.618 117.464C183.766 117.365 183.947 117.328 184.123 117.362C184.298 117.397 184.452 117.499 184.552 117.647L185.901 119.65C186.001 119.799 186.037 119.98 186.003 120.156C185.969 120.331 185.867 120.485 185.719 120.585L178.798 125.244C178.688 125.319 178.557 125.359 178.423 125.359Z" fill="#3F3D56"/>
<path d="M152.421 154.532C152.052 154.53 151.698 154.391 151.427 154.142C151.156 153.892 150.988 153.551 150.956 153.184C150.368 146.508 147.42 112.86 147.096 106.065C146.737 98.5154 153.02 86.5714 153.084 86.4518L153.127 86.3697L156.233 86.7577V87.1188L159.189 87.4666L164.91 88.0203L166.548 108.039L167.272 121.615L174.076 149.344C174.153 149.651 174.106 149.976 173.945 150.249C173.785 150.522 173.523 150.721 173.217 150.802L167.296 152.417C166.988 152.5 166.66 152.458 166.382 152.302C166.105 152.145 165.9 151.886 165.811 151.58L160.236 131.995C160.209 131.9 160.148 131.819 160.065 131.766C159.982 131.713 159.883 131.692 159.785 131.707C159.688 131.722 159.6 131.772 159.537 131.848C159.474 131.924 159.441 132.02 159.444 132.118L160.033 151.215C160.036 151.411 159.999 151.605 159.924 151.787C159.849 151.968 159.738 152.132 159.598 152.269C158.24 153.543 154.654 154.224 152.637 154.516C152.565 154.526 152.493 154.532 152.421 154.532Z" fill="#2F2E41"/>
<path d="M170.214 70.4088C169.274 69.4292 163.083 70.7753 161.708 72.2184L152.298 87.6006L167.861 90.496L171.299 70.9516L170.214 70.4088Z" fill="#6C63FF"/>
<path d="M166.135 109.489C165.799 109.49 165.466 109.434 165.149 109.325C164.245 109.015 163.137 108.691 161.856 108.361C156.244 106.918 154.263 102.298 155.967 94.6291L156.01 94.4344C157.61 87.1598 160.627 80.2713 164.887 74.1616L165.547 73.2136C166.344 72.0699 167.459 71.1854 168.754 70.6703C170.05 70.1552 171.468 70.0322 172.832 70.3164C175.357 70.8373 176.713 71.5919 176.862 72.5597C177.154 74.4586 171.514 97.4134 169.075 107.195C168.912 107.851 168.534 108.433 168.001 108.849C167.468 109.265 166.811 109.49 166.135 109.489L166.135 109.489Z" fill="#2F2E41"/>
<path d="M146.802 106.543C146.656 106.543 146.51 106.52 146.37 106.475L144.551 105.893C144.363 105.833 144.19 105.734 144.042 105.603C143.894 105.472 143.776 105.312 143.693 105.132C143.611 104.953 143.567 104.758 143.565 104.561C143.562 104.363 143.601 104.167 143.678 103.986L153.33 81.3316C155.179 77.01 158.412 73.4257 162.521 71.1424H162.521C162.581 71.1096 162.647 71.0894 162.714 71.0831C162.782 71.0768 162.85 71.0844 162.915 71.1056C162.974 71.1245 163.029 71.1556 163.076 71.197C163.122 71.2384 163.16 71.289 163.186 71.3458C164.321 73.8429 158.143 85.6605 153.178 95.156C150.636 100.018 148.441 104.217 148.191 105.415C148.124 105.734 147.95 106.02 147.697 106.225C147.444 106.431 147.128 106.543 146.802 106.543Z" fill="#2F2E41"/>
<path d="M176.662 111.705C177.001 111.452 177.281 111.127 177.481 110.755C177.681 110.382 177.797 109.97 177.821 109.548C177.844 109.125 177.775 108.703 177.618 108.31C177.461 107.917 177.219 107.564 176.911 107.275L176.834 80.1273L170.628 81.1686L172.658 107.539C172.206 108.09 171.972 108.787 172 109.499C172.028 110.211 172.316 110.887 172.81 111.401C173.304 111.914 173.968 112.229 174.678 112.285C175.388 112.341 176.094 112.134 176.662 111.705Z" fill="#FFB8B8"/>
<path d="M171.609 86.8624C171.302 86.8623 171.006 86.7453 170.781 86.5351C170.557 86.3248 170.42 86.0371 170.4 85.7302L169.678 74.7764C169.61 73.7225 169.963 72.6845 170.659 71.8902C171.355 71.0958 172.337 70.61 173.391 70.5393C173.932 70.5036 174.475 70.5788 174.986 70.7602C175.497 70.9416 175.965 71.2254 176.363 71.5943C176.76 71.9631 177.078 72.4092 177.297 72.9052C177.516 73.4012 177.632 73.9367 177.637 74.4789L177.735 85.5819C177.737 85.9026 177.612 86.2111 177.388 86.4402C177.163 86.6693 176.858 86.8004 176.537 86.8048L171.624 86.8624L171.609 86.8624Z" fill="#2F2E41"/>
<path d="M167.169 67.7648C170.823 67.7648 173.785 64.8028 173.785 61.149C173.785 57.4952 170.823 54.5333 167.169 54.5333C163.515 54.5333 160.553 57.4952 160.553 61.149C160.553 64.8028 163.515 67.7648 167.169 67.7648Z" fill="#FFB8B8"/>
<path d="M172.67 65.7783C173.163 64.2081 173.616 62.3566 172.639 61.0315C171.936 60.0768 170.673 59.7072 169.488 59.6543C168.303 59.6014 167.115 59.8022 165.932 59.7082C164.75 59.6142 163.501 59.1476 162.9 58.1249C162.121 56.7988 162.781 54.9723 164.033 54.0792C165.285 53.1862 166.939 53.0615 168.463 53.2695C170.391 53.4984 172.203 54.3092 173.659 55.594C175.076 56.9012 175.999 58.7854 175.958 60.7124C175.916 62.6393 174.836 64.5582 173.113 65.4234" fill="#2F2E41"/>
<path d="M171.02 51.3223C169.436 50.8344 168.706 48.7405 169.414 47.2423C170.122 45.7441 171.933 44.9595 173.577 45.1682C175.221 45.3769 176.669 46.4316 177.669 47.7537C178.668 49.0758 179.27 50.6518 179.773 52.231C180.275 53.8102 180.693 55.4236 181.379 56.9321C182.468 59.2499 184.147 61.2402 186.249 62.7032C188.351 64.1663 190.801 65.0504 193.352 65.2668C194.464 65.3474 195.619 65.2897 196.632 64.8248C197.646 64.3599 198.496 63.4226 198.609 62.3133C199.186 66.2538 196.894 70.4416 193.264 72.079C189.633 73.7165 184.977 72.6631 182.405 69.6225C179.891 66.6511 179.502 62.456 179.563 58.5647C179.579 57.4976 179.618 56.4103 179.324 55.3846C179.029 54.3589 178.331 53.3837 177.315 53.0579C176.495 52.7951 175.607 52.9845 174.766 53.1709C173.926 53.3572 173.033 53.5366 172.219 53.2557C171.405 52.9748 170.75 52.0491 171.078 51.253" fill="#2F2E41"/>
<path d="M197.194 160H126.083C126.012 160 125.943 159.972 125.893 159.921C125.842 159.871 125.814 159.802 125.814 159.731C125.814 159.659 125.842 159.591 125.893 159.54C125.943 159.49 126.012 159.461 126.083 159.461H197.194C197.266 159.461 197.334 159.49 197.385 159.54C197.435 159.591 197.464 159.659 197.464 159.731C197.464 159.802 197.435 159.871 197.385 159.921C197.334 159.972 197.266 160 197.194 160Z" fill="#CCCCCC"/>
</g>
<defs>
<clipPath id="clip0">
<rect width="198.698" height="160" fill="white"/>
</clipPath>
</defs>
</svg>
