<svg width="200" height="176" viewBox="0 0 200 176" fill="none" xmlns="http://www.w3.org/2000/svg">
<circle cx="90" cy="84" r="84" fill="#E8F5FF"/>
<path d="M120.322 106.779L56.0441 123.331C53.8637 123.89 51.5507 123.561 49.6125 122.416C47.6743 121.272 46.2691 119.406 45.7054 117.227L26.2662 41.7378C25.7073 39.5574 26.0362 37.2444 27.1806 35.3062C28.325 33.368 30.1915 31.9629 32.3706 31.3991L92.1703 16L107.476 22.852L126.426 96.44C126.985 98.6204 126.656 100.933 125.512 102.872C124.367 104.81 122.501 106.215 120.322 106.779Z" fill="#F2F2F2"/>
<path d="M32.9797 33.766C31.4279 34.1675 30.0988 35.1681 29.2838 36.5483C28.4689 37.9286 28.2347 39.5757 28.6327 41.1284L48.0719 116.617C48.4733 118.169 49.4739 119.498 50.8542 120.313C52.2344 121.128 53.8816 121.362 55.4343 120.964L119.712 104.412C121.264 104.01 122.593 103.01 123.408 101.63C124.223 100.249 124.457 98.6023 124.059 97.0496L105.403 24.6017L91.9516 18.5801L32.9797 33.766Z" fill="white"/>
<path d="M107.313 23.2414L97.3649 25.8031C96.6386 25.9901 95.8679 25.881 95.2221 25.4997C94.5764 25.1184 94.1085 24.4962 93.9215 23.77L92.0295 16.4227C92.0212 16.3905 92.0222 16.3567 92.0322 16.325C92.0423 16.2934 92.0611 16.2652 92.0865 16.2437C92.1118 16.2223 92.1427 16.2084 92.1756 16.2037C92.2085 16.199 92.242 16.2036 92.2724 16.2171L107.34 22.9088C107.374 22.9237 107.402 22.9486 107.421 22.9802C107.439 23.0118 107.448 23.0484 107.445 23.0849C107.442 23.1215 107.427 23.1562 107.404 23.1842C107.38 23.2123 107.348 23.2323 107.313 23.2414Z" fill="#F2F2F2"/>
<path d="M102.079 87.7072L72.8144 95.2432C72.6346 95.2895 72.4475 95.2999 72.2637 95.2739C72.0798 95.2479 71.9029 95.1859 71.7431 95.0915C71.5832 94.9971 71.4435 94.8721 71.3319 94.7237C71.2203 94.5754 71.1391 94.4064 71.0928 94.2267C71.0465 94.0469 71.036 93.8597 71.0621 93.6759C71.0881 93.4921 71.1501 93.3152 71.2445 93.1553C71.3389 92.9954 71.4638 92.8557 71.6122 92.7441C71.7606 92.6325 71.9295 92.5513 72.1093 92.505L101.374 84.969C101.554 84.9227 101.741 84.9123 101.925 84.9383C102.109 84.9643 102.285 85.0263 102.445 85.1207C102.605 85.2151 102.745 85.34 102.856 85.4884C102.968 85.6368 103.049 85.8057 103.096 85.9855C103.142 86.1653 103.152 86.3525 103.126 86.5363C103.1 86.7201 103.038 86.897 102.944 87.0569C102.85 87.2168 102.725 87.3565 102.576 87.4681C102.428 87.5796 102.259 87.6609 102.079 87.7072Z" fill="#CCCCCC"/>
<path d="M108.917 90.8736L74.0044 99.8639C73.6413 99.9574 73.2559 99.9028 72.933 99.7122C72.6101 99.5216 72.3762 99.2105 72.2827 98.8474C72.1892 98.4843 72.2438 98.0989 72.4344 97.776C72.6251 97.4531 72.9361 97.2192 73.2993 97.1257L108.211 88.1354C108.574 88.0423 108.96 88.0971 109.282 88.2878C109.605 88.4784 109.838 88.7894 109.932 89.1523C110.025 89.5152 109.971 89.9003 109.781 90.2231C109.59 90.5459 109.279 90.7799 108.917 90.8736Z" fill="#CCCCCC"/>
<path d="M60.8704 104.319C63.6302 104.319 65.8673 102.082 65.8673 99.3226C65.8673 96.5629 63.6302 94.3257 60.8704 94.3257C58.1107 94.3257 55.8735 96.5629 55.8735 99.3226C55.8735 102.082 58.1107 104.319 60.8704 104.319Z" fill="#E6E6E6"/>
<path d="M98.9675 74.63L60.1011 84.6348C58.9778 84.9226 57.7863 84.7531 56.7879 84.1634C55.7895 83.5738 55.0657 82.6122 54.7754 81.4896L46.6304 49.8484C46.3426 48.7252 46.5121 47.5336 47.1018 46.5352C47.6914 45.5368 48.653 44.813 49.7756 44.5227L88.642 34.5179C89.7652 34.2301 90.9568 34.3996 91.9552 34.9892C92.9536 35.5789 93.6774 36.5405 93.9677 37.663L102.113 69.3043C102.4 70.4275 102.231 71.619 101.641 72.6175C101.052 73.6159 100.09 74.3396 98.9675 74.63Z" fill="white"/>
<path d="M98.9675 74.63L60.1011 84.6348C58.9778 84.9226 57.7863 84.7531 56.7879 84.1634C55.7895 83.5738 55.0657 82.6122 54.7754 81.4896L46.6304 49.8484C46.3426 48.7252 46.5121 47.5336 47.1018 46.5352C47.6914 45.5368 48.653 44.813 49.7756 44.5227L88.642 34.5179C89.7652 34.2301 90.9568 34.3996 91.9552 34.9892C92.9536 35.5789 93.6774 36.5405 93.9677 37.663L102.113 69.3043C102.4 70.4275 102.231 71.619 101.641 72.6175C101.052 73.6159 100.09 74.3396 98.9675 74.63ZM49.9039 45.021C48.9134 45.2772 48.0649 45.9158 47.5446 46.7967C47.0244 47.6777 46.8748 48.729 47.1287 49.7201L55.2737 81.3614C55.5298 82.3519 56.1685 83.2003 57.0494 83.7206C57.9304 84.2409 58.9817 84.3904 59.9728 84.1365L98.8392 74.1317C99.8297 73.8755 100.678 73.2369 101.198 72.3559C101.719 71.475 101.868 70.4236 101.614 69.4325L93.4694 37.7913C93.2132 36.8008 92.5746 35.9523 91.6936 35.4321C90.8127 34.9118 89.7613 34.7622 88.7702 35.0162L49.9039 45.021Z" fill="#E6E6E6"/>
<path d="M86.6703 45.1569L67.0549 50.2062C66.8834 50.2541 66.7001 50.2351 66.5421 50.153C66.3841 50.0709 66.2632 49.9319 66.2037 49.7641C66.1761 49.6764 66.1666 49.584 66.1758 49.4926C66.185 49.4011 66.2128 49.3124 66.2574 49.2321C66.302 49.1517 66.3625 49.0812 66.4352 49.025C66.5079 48.9688 66.5914 48.9279 66.6804 48.905L86.6476 43.7651C87.4542 44.1738 87.242 45.0097 86.67 45.157L86.6703 45.1569Z" fill="#F2F2F2"/>
<path d="M87.556 48.5976L67.9406 53.6469C67.7691 53.6948 67.5859 53.6757 67.4279 53.5937C67.2699 53.5116 67.1489 53.3726 67.0895 53.2048C67.0618 53.1171 67.0523 53.0247 67.0615 52.9332C67.0707 52.8417 67.0985 52.7531 67.1431 52.6727C67.1877 52.5923 67.2482 52.5219 67.3209 52.4656C67.3937 52.4094 67.4771 52.3686 67.5661 52.3457L87.5334 47.2058C88.34 47.6145 88.1277 48.4504 87.5558 48.5976L87.556 48.5976Z" fill="#F2F2F2"/>
<path d="M64.2045 56.6972L58.2181 58.2382C58.0226 58.2883 57.8152 58.2588 57.6414 58.1562C57.4676 58.0536 57.3416 57.8862 57.2911 57.6908L55.4726 50.6263C55.4225 50.4308 55.452 50.2234 55.5546 50.0496C55.6572 49.8758 55.8246 49.7498 56.0201 49.6993L62.0065 48.1583C62.202 48.1083 62.4094 48.1378 62.5831 48.2404C62.7569 48.3431 62.8829 48.5104 62.9335 48.7058L64.752 55.7702C64.8021 55.9657 64.7726 56.1732 64.67 56.347C64.5673 56.5207 64.3999 56.6467 64.2045 56.6972V56.6972Z" fill="#E6E6E6"/>
<path d="M89.3123 55.657L59.3757 63.3631C59.2042 63.411 59.0209 63.392 58.8629 63.3099C58.7049 63.2278 58.584 63.0888 58.5245 62.921C58.4969 62.8333 58.4874 62.7409 58.4966 62.6495C58.5058 62.558 58.5336 62.4694 58.5782 62.389C58.6228 62.3086 58.6833 62.2381 58.756 62.1819C58.8288 62.1257 58.9122 62.0849 59.0012 62.0619L89.2899 54.2651C90.0965 54.6738 89.8843 55.5097 89.3123 55.657L89.3123 55.657Z" fill="#F2F2F2"/>
<path d="M90.1983 59.0986L60.2617 66.8048C60.0902 66.8527 59.9069 66.8336 59.7489 66.7516C59.5909 66.6695 59.47 66.5305 59.4105 66.3627C59.3829 66.275 59.3733 66.1826 59.3826 66.0911C59.3918 65.9997 59.4195 65.911 59.4641 65.8306C59.5087 65.7502 59.5693 65.6798 59.642 65.6236C59.7147 65.5673 59.7982 65.5265 59.8872 65.5036L90.1759 57.7068C90.9825 58.1155 90.7703 58.9514 90.1983 59.0986V59.0986Z" fill="#F2F2F2"/>
<path d="M91.0838 62.5381L61.1472 70.2442C60.9757 70.2921 60.7924 70.2731 60.6344 70.191C60.4764 70.109 60.3555 69.97 60.296 69.8021C60.2684 69.7145 60.2588 69.6221 60.2681 69.5306C60.2773 69.4391 60.305 69.3505 60.3496 69.2701C60.3942 69.1897 60.4548 69.1192 60.5275 69.063C60.6002 69.0068 60.6837 68.966 60.7727 68.943L91.0614 61.1462C91.868 61.5549 91.6558 62.3908 91.0838 62.5381Z" fill="#F2F2F2"/>
<path d="M91.9695 65.9795L62.0329 73.6856C61.8614 73.7335 61.6782 73.7145 61.5202 73.6324C61.3622 73.5504 61.2412 73.4113 61.1818 73.2435C61.1541 73.1558 61.1446 73.0635 61.1538 72.972C61.163 72.8805 61.1908 72.7919 61.2354 72.7115C61.28 72.6311 61.3405 72.5606 61.4132 72.5044C61.486 72.4482 61.5694 72.4074 61.6584 72.3844L91.9472 64.5876C92.7537 64.9963 92.5415 65.8323 91.9695 65.9795L91.9695 65.9795Z" fill="#F2F2F2"/>
<path d="M92.855 69.4192L62.9184 77.1253C62.7469 77.1732 62.5637 77.1542 62.4057 77.0721C62.2477 76.99 62.1267 76.851 62.0673 76.6832C62.0396 76.5955 62.0301 76.5032 62.0393 76.4117C62.0485 76.3202 62.0763 76.2316 62.1209 76.1512C62.1655 76.0708 62.226 76.0003 62.2987 75.9441C62.3715 75.8879 62.4549 75.8471 62.5439 75.8241L92.8327 68.0273C93.6392 68.436 93.427 69.2719 92.855 69.4192Z" fill="#F2F2F2"/>
<path d="M61.2393 101.074C61.1304 101.102 61.0154 101.094 60.9115 101.052L60.905 101.049L59.5438 100.472C59.4806 100.445 59.4233 100.406 59.3752 100.357C59.3271 100.308 59.2891 100.25 59.2634 100.187C59.2377 100.123 59.2247 100.055 59.2254 99.9866C59.226 99.918 59.2401 99.8502 59.2669 99.7871C59.2938 99.7239 59.3328 99.6667 59.3818 99.6187C59.4308 99.5706 59.4887 99.5327 59.5524 99.5071C59.616 99.4815 59.6841 99.4687 59.7527 99.4694C59.8213 99.4701 59.8891 99.4844 59.9522 99.5113L60.8343 99.8865L61.9901 97.1674C62.0169 97.1043 62.0559 97.0472 62.1048 96.9992C62.1537 96.9512 62.2115 96.9133 62.2751 96.8877C62.3386 96.8621 62.4066 96.8492 62.4751 96.8499C62.5436 96.8505 62.6113 96.8646 62.6743 96.8914L62.6745 96.8915L62.6675 96.9093L62.6748 96.8914C62.802 96.9457 62.9025 97.0483 62.9542 97.1766C63.0059 97.3049 63.0046 97.4484 62.9506 97.5758L61.5908 100.773C61.5592 100.847 61.5112 100.912 61.4502 100.964C61.3893 101.016 61.3172 101.054 61.2395 101.073L61.2393 101.074Z" fill="white"/>
<path d="M144.976 135.545H78.6013C76.3505 135.543 74.1926 134.648 72.601 133.056C71.0094 131.464 70.1141 129.307 70.1116 127.056V49.1043C70.1141 46.8534 71.0094 44.6955 72.601 43.1039C74.1926 41.5123 76.3505 40.617 78.6013 40.6145H140.352L153.466 51.0669V127.056C153.463 129.307 152.568 131.464 150.976 133.056C149.385 134.648 147.227 135.543 144.976 135.545Z" fill="#E6E6E6"/>
<path d="M78.6012 43.0586C76.9983 43.0604 75.4616 43.6979 74.3282 44.8313C73.1948 45.9647 72.5572 47.5015 72.5554 49.1043V127.056C72.5572 128.659 73.1948 130.195 74.3282 131.329C75.4616 132.462 76.9983 133.1 78.6012 133.102H144.976C146.579 133.1 148.115 132.462 149.249 131.329C150.382 130.195 151.02 128.659 151.021 127.056V52.2444L139.497 43.0586H78.6012Z" fill="white"/>
<path d="M132.066 65.7247H101.847C101.472 65.7247 101.112 65.5758 100.847 65.3107C100.582 65.0455 100.433 64.6859 100.433 64.311C100.433 63.936 100.582 63.5764 100.847 63.3113C101.112 63.0462 101.472 62.8972 101.847 62.8972H132.066C132.441 62.8972 132.801 63.0462 133.066 63.3113C133.331 63.5764 133.48 63.936 133.48 64.311C133.48 64.6859 133.331 65.0455 133.066 65.3107C132.801 65.5758 132.441 65.7247 132.066 65.7247Z" fill="#6C63FF"/>
<path d="M137.898 70.4962H101.847C101.472 70.4957 101.113 70.3466 100.848 70.0815C100.584 69.8164 100.435 69.4571 100.435 69.0825C100.435 68.7078 100.584 68.3485 100.848 68.0835C101.113 67.8184 101.472 67.6692 101.847 67.6687H137.898C138.084 67.6685 138.268 67.7048 138.439 67.7758C138.611 67.8467 138.767 67.9508 138.899 68.0821C139.03 68.2134 139.135 68.3693 139.206 68.541C139.277 68.7127 139.314 68.8966 139.314 69.0825C139.314 69.2683 139.277 69.4523 139.206 69.6239C139.135 69.7956 139.03 69.9515 138.899 70.0828C138.767 70.2141 138.611 70.3182 138.439 70.3892C138.268 70.4601 138.084 70.4965 137.898 70.4962Z" fill="#6C63FF"/>
<path d="M132.066 84.2798H101.848C101.473 84.2798 101.113 84.4287 100.848 84.6938C100.583 84.959 100.434 85.3185 100.434 85.6935C100.434 86.0684 100.583 86.428 100.848 86.6931C101.113 86.9582 101.473 87.1071 101.848 87.1071H132.066C132.441 87.1071 132.801 86.9582 133.066 86.6931C133.331 86.428 133.48 86.0684 133.48 85.6935C133.48 85.3185 133.331 84.959 133.066 84.6938C132.801 84.4287 132.441 84.2798 132.066 84.2798Z" fill="#CCCCCC"/>
<path d="M137.898 89.052H101.848C101.473 89.052 101.113 89.2009 100.848 89.4661C100.583 89.7312 100.434 90.0908 100.434 90.4657C100.434 90.8406 100.583 91.2002 100.848 91.4653C101.113 91.7304 101.473 91.8794 101.848 91.8794H137.898C138.273 91.8794 138.633 91.7304 138.898 91.4653C139.163 91.2002 139.312 90.8406 139.312 90.4657C139.312 90.0908 139.163 89.7312 138.898 89.4661C138.633 89.2009 138.273 89.052 137.898 89.052Z" fill="#CCCCCC"/>
<path d="M132.066 108.491H101.847C101.472 108.491 101.112 108.342 100.847 108.077C100.582 107.812 100.433 107.453 100.433 107.078C100.433 106.703 100.582 106.343 100.847 106.078C101.112 105.813 101.472 105.664 101.847 105.664H132.066C132.441 105.664 132.801 105.813 133.066 106.078C133.331 106.343 133.48 106.703 133.48 107.078C133.48 107.453 133.331 107.812 133.066 108.077C132.801 108.342 132.441 108.491 132.066 108.491Z" fill="#CCCCCC"/>
<path d="M137.898 113.263H101.847C101.472 113.262 101.113 113.113 100.848 112.848C100.584 112.583 100.435 112.224 100.435 111.849C100.435 111.474 100.584 111.115 100.848 110.85C101.113 110.585 101.472 110.436 101.847 110.435H137.898C138.084 110.435 138.268 110.471 138.439 110.542C138.611 110.613 138.767 110.717 138.899 110.849C139.03 110.98 139.135 111.136 139.206 111.308C139.277 111.479 139.314 111.663 139.314 111.849C139.314 112.035 139.277 112.219 139.206 112.391C139.135 112.562 139.03 112.718 138.899 112.849C138.767 112.981 138.611 113.085 138.439 113.156C138.268 113.227 138.084 113.263 137.898 113.263Z" fill="#CCCCCC"/>
<path d="M89.2625 71.6935C92.0223 71.6935 94.2594 69.4563 94.2594 66.6966C94.2594 63.9369 92.0223 61.6997 89.2625 61.6997C86.5028 61.6997 84.2656 63.9369 84.2656 66.6966C84.2656 69.4563 86.5028 71.6935 89.2625 71.6935Z" fill="#6C63FF"/>
<path d="M88.7673 68.6029C88.6549 68.6031 88.5454 68.5667 88.4555 68.4993L88.4499 68.4951L87.2756 67.5968C87.221 67.5551 87.1752 67.5031 87.1408 67.4438C87.1063 67.3844 87.0839 67.3188 87.0749 67.2508C87.0658 67.1828 87.0703 67.1136 87.088 67.0473C87.1057 66.981 87.1363 66.9188 87.178 66.8644C87.2198 66.8099 87.2719 66.7642 87.3313 66.7299C87.3907 66.6956 87.4564 66.6734 87.5244 66.6645C87.5925 66.6555 87.6616 66.6601 87.7279 66.678C87.7941 66.6958 87.8562 66.7266 87.9106 66.7684L88.6712 67.3517L90.4687 65.0068C90.5103 64.9524 90.5623 64.9068 90.6216 64.8725C90.6809 64.8382 90.7464 64.816 90.8144 64.807C90.8823 64.798 90.9513 64.8025 91.0175 64.8202C91.0836 64.8379 91.1457 64.8685 91.2 64.9102L91.2002 64.9103L91.189 64.9258L91.2005 64.9103C91.3102 64.9946 91.3819 65.1189 91.4 65.2561C91.4181 65.3932 91.3811 65.5319 91.297 65.6418L89.1828 68.3987C89.1339 68.4623 89.071 68.5137 88.999 68.549C88.927 68.5843 88.8479 68.6025 88.7677 68.6023L88.7673 68.6029Z" fill="white"/>
<path d="M94.773 88.0796C94.7732 88.7359 94.6442 89.3858 94.3933 89.9922C94.1423 90.5986 93.7743 91.1496 93.3104 91.6138C92.8465 92.078 92.2956 92.4463 91.6893 92.6975C91.0831 92.9488 90.4332 93.0782 89.7769 93.0783C89.734 93.0791 89.691 93.0774 89.6483 93.0731C88.6658 93.0479 87.7125 92.7335 86.9078 92.1693C86.1031 91.605 85.4826 90.8159 85.1241 89.9008C84.7656 88.9857 84.6849 87.9852 84.8922 87.0244C85.0994 86.0637 85.5854 85.1854 86.2894 84.4995C86.9933 83.8136 87.8839 83.3505 88.8496 83.1682C89.8154 82.9859 90.8135 83.0925 91.7191 83.4747C92.6246 83.8568 93.3973 84.4975 93.9405 85.3166C94.4837 86.1357 94.7733 87.0968 94.773 88.0796Z" fill="#CCCCCC"/>
<path d="M89.2625 114.46C92.0223 114.46 94.2594 112.223 94.2594 109.463C94.2594 106.703 92.0223 104.466 89.2625 104.466C86.5028 104.466 84.2656 106.703 84.2656 109.463C84.2656 112.223 86.5028 114.46 89.2625 114.46Z" fill="#CCCCCC"/>
<path d="M153.211 51.4033H142.938C142.188 51.4033 141.469 51.1054 140.939 50.5751C140.408 50.0449 140.111 49.3257 140.111 48.5757V40.9887C140.111 40.9555 140.12 40.923 140.138 40.8948C140.155 40.8667 140.18 40.8441 140.21 40.8296C140.24 40.8152 140.274 40.8094 140.307 40.8131C140.34 40.8167 140.371 40.8296 140.397 40.8502L153.32 51.088C153.349 51.1108 153.37 51.142 153.38 51.1772C153.39 51.2125 153.389 51.25 153.377 51.2847C153.365 51.3193 153.343 51.3494 153.313 51.3706C153.283 51.3919 153.247 51.4033 153.211 51.4033Z" fill="#CCCCCC"/>
<path d="M94.7728 88.0795C94.773 88.7358 94.644 89.3857 94.393 89.9921C94.1421 90.5985 93.7741 91.1495 93.3102 91.6137C92.8462 92.0779 92.2954 92.4461 91.6891 92.6974C91.0828 92.9487 90.433 93.0781 89.7767 93.0782C89.7337 93.079 89.6908 93.0773 89.6481 93.073C89.0025 91.4629 88.7536 89.7211 88.9224 87.9946C89.0912 86.2681 89.6728 84.6075 90.6179 83.1528C91.7803 83.3521 92.8348 83.9558 93.5951 84.8574C94.3554 85.7589 94.7725 86.9002 94.7728 88.0795Z" fill="#6C63FF"/>
<path d="M100.433 85.6948C100.433 85.3197 100.583 84.9602 100.848 84.695C101.113 84.4297 101.473 84.2805 101.848 84.2798H109.378C109.818 85.1744 110.13 86.126 110.306 87.1071H101.848C101.473 87.1071 101.113 86.9583 100.848 86.6935C100.583 86.4287 100.433 86.0695 100.433 85.6948Z" fill="#6C63FF"/>
<path d="M110.482 89.052C110.482 90.0069 110.356 90.9577 110.106 91.8794H101.848C101.473 91.8794 101.113 91.7304 100.848 91.4653C100.583 91.2002 100.434 90.8406 100.434 90.4657C100.434 90.0908 100.583 89.7312 100.848 89.4661C101.113 89.2009 101.473 89.052 101.848 89.052H110.482Z" fill="#6C63FF"/>
<path d="M129.113 106.489C128.9 106.838 128.557 107.089 128.159 107.185C127.761 107.281 127.341 107.216 126.992 107.003L108.982 96.0174C108.809 95.9118 108.658 95.7732 108.539 95.6095C108.419 95.4457 108.333 95.2601 108.285 95.063C108.238 94.866 108.229 94.6616 108.26 94.4613C108.292 94.261 108.362 94.0689 108.468 93.8958C108.573 93.7227 108.712 93.5722 108.876 93.4527C109.039 93.3332 109.225 93.2471 109.422 93.1994C109.619 93.1517 109.824 93.1432 110.024 93.1745C110.224 93.2058 110.416 93.2763 110.589 93.3818L128.599 104.367C128.949 104.58 129.199 104.924 129.296 105.321C129.392 105.719 129.326 106.139 129.113 106.489Z" fill="#3F3D56"/>
<path d="M111.103 95.5036C109.831 97.5886 107.97 99.2498 105.754 100.277C103.538 101.304 101.067 101.651 98.6543 101.274C96.2413 100.897 93.9942 99.8126 92.1973 98.1584C90.4004 96.5042 89.1344 94.3544 88.5593 91.9807C87.9843 89.607 88.126 87.1161 88.9666 84.823C89.8072 82.5298 91.3089 80.5375 93.2819 79.0978C95.2548 77.6581 97.6103 76.8358 100.051 76.7349C102.491 76.634 104.906 77.2589 106.991 78.5308C109.784 80.2388 111.786 82.985 112.557 86.1669C113.328 89.3488 112.805 92.7066 111.103 95.5036ZM92.6541 84.2503C91.7003 85.8141 91.2316 87.6257 91.3073 89.4559C91.383 91.2861 91.9997 93.0527 93.0794 94.5324C94.1592 96.0121 95.6534 97.1384 97.3733 97.7688C99.0931 98.3993 100.961 98.5056 102.742 98.0743C104.522 97.643 106.134 96.6935 107.375 95.3458C108.615 93.9981 109.429 92.3128 109.711 90.503C109.994 88.6932 109.734 86.8402 108.964 85.1783C108.193 83.5164 106.948 82.1202 105.384 81.1664C103.286 79.8901 100.768 79.498 98.3813 80.0762C95.9948 80.6543 93.9352 82.1555 92.6541 84.2503Z" fill="#3F3D56"/>
<path d="M150.669 91.0529C154.158 91.0529 156.987 88.224 156.987 84.7342C156.987 81.2445 154.158 78.4155 150.669 78.4155C147.179 78.4155 144.35 81.2445 144.35 84.7342C144.35 88.224 147.179 91.0529 150.669 91.0529Z" fill="#A0616A"/>
<path d="M150.26 120.158C150.138 119.778 150.098 119.377 150.142 118.98C150.186 118.584 150.313 118.202 150.515 117.858C150.718 117.514 150.99 117.217 151.315 116.986C151.64 116.755 152.01 116.595 152.401 116.517C152.525 116.493 152.651 116.477 152.777 116.471L159.433 105.788L153.353 100.008C153.12 99.7874 152.934 99.5228 152.805 99.2296C152.675 98.9363 152.605 98.6204 152.599 98.2999C152.592 97.9795 152.649 97.6609 152.766 97.3625C152.883 97.0642 153.058 96.792 153.281 96.5617C153.504 96.3315 153.77 96.1476 154.065 96.0209C154.359 95.8941 154.676 95.8269 154.996 95.8232C155.317 95.8194 155.635 95.8792 155.932 95.9991C156.229 96.119 156.5 96.2966 156.728 96.5216L165.123 104.799L165.14 104.819C165.399 105.215 165.525 105.683 165.497 106.155C165.469 106.627 165.29 107.077 164.987 107.44L155.661 118.469C155.689 118.558 155.712 118.648 155.73 118.738C155.808 119.129 155.803 119.533 155.714 119.921C155.625 120.31 155.455 120.676 155.216 120.994C154.976 121.313 154.671 121.577 154.322 121.77C153.973 121.963 153.587 122.08 153.19 122.113C153.109 122.12 153.029 122.123 152.95 122.123C152.352 122.121 151.769 121.929 151.286 121.576C150.803 121.223 150.444 120.727 150.26 120.158Z" fill="#A0616A"/>
<path d="M140.261 172.675L137.107 172.675L135.607 160.509L140.262 160.509L140.261 172.675Z" fill="#A0616A"/>
<path d="M141.066 175.732L130.896 175.732V175.603C130.896 175.084 130.998 174.569 131.197 174.089C131.396 173.608 131.688 173.172 132.055 172.804C132.423 172.437 132.859 172.145 133.339 171.946C133.82 171.747 134.334 171.645 134.854 171.645H134.854L141.066 171.645L141.066 175.732Z" fill="#2F2E41"/>
<path d="M171.611 168.314L168.901 169.928L161.387 160.243L165.387 157.861L171.611 168.314Z" fill="#A0616A"/>
<path d="M173.866 170.529L165.128 175.732L165.062 175.622C164.796 175.175 164.621 174.68 164.546 174.166C164.471 173.651 164.498 173.127 164.626 172.623C164.754 172.12 164.98 171.646 165.29 171.229C165.601 170.813 165.991 170.461 166.438 170.195L166.438 170.195L171.775 167.018L173.866 170.529Z" fill="#2F2E41"/>
<path d="M135.209 167.317C133.097 142.438 131.84 119.326 139.563 109.897L139.623 109.824L152.622 115.024L152.643 115.07C152.687 115.166 157.01 124.675 156.001 131.071L159.208 145.819L169.662 163.324C169.746 163.465 169.799 163.622 169.818 163.785C169.837 163.948 169.821 164.113 169.771 164.27C169.721 164.426 169.638 164.57 169.529 164.692C169.419 164.814 169.284 164.911 169.134 164.978L164.591 166.976C164.335 167.088 164.047 167.103 163.78 167.02C163.513 166.937 163.285 166.76 163.138 166.522L151.766 147.978L145.342 133.755C145.308 133.678 145.248 133.614 145.174 133.574C145.099 133.534 145.013 133.52 144.93 133.533C144.846 133.547 144.769 133.587 144.711 133.649C144.652 133.71 144.616 133.789 144.607 133.873L141.046 167.343C141.017 167.627 140.882 167.89 140.67 168.082C140.457 168.273 140.181 168.378 139.895 168.378H136.363C136.074 168.376 135.795 168.267 135.581 168.071C135.368 167.874 135.235 167.606 135.209 167.317Z" fill="#2F2E41"/>
<path d="M139.607 110.095L139.545 110.065L139.535 109.997C139.05 106.598 139.625 102.822 141.244 98.7736C142.042 96.7921 143.525 95.1632 145.423 94.1836C147.322 93.2041 149.509 92.9392 151.586 93.4371C152.783 93.732 153.905 94.2721 154.882 95.0234C155.859 95.7746 156.669 96.7206 157.262 97.8013C157.846 98.871 158.202 100.05 158.308 101.265C158.413 102.479 158.264 103.703 157.872 104.857C155.831 110.825 153.183 116.41 153.157 116.466L153.101 116.582L139.607 110.095Z" fill="#6C63FF"/>
<path d="M125.425 101.63C125.738 101.382 126.099 101.204 126.486 101.107C126.873 101.009 127.276 100.994 127.668 101.063C128.061 101.132 128.435 101.283 128.765 101.507C129.095 101.73 129.375 102.021 129.585 102.36C129.651 102.468 129.709 102.58 129.759 102.696L142.096 105.189L145.381 97.4701C145.507 97.1752 145.689 96.908 145.919 96.6841C146.148 96.4602 146.419 96.2839 146.717 96.1654C147.015 96.047 147.333 95.9887 147.654 95.994C147.974 95.9993 148.291 96.068 148.584 96.1961C148.878 96.3243 149.144 96.5094 149.366 96.7408C149.587 96.9721 149.761 97.2452 149.877 97.544C149.993 97.8429 150.048 98.1618 150.04 98.4822C150.032 98.8026 149.96 99.1183 149.829 99.4109L145.016 110.172L145.002 110.195C144.723 110.577 144.328 110.858 143.877 110.998C143.425 111.137 142.94 111.127 142.495 110.97L128.897 106.097C128.824 106.154 128.748 106.207 128.67 106.256C128.331 106.466 127.951 106.602 127.556 106.655C127.161 106.708 126.759 106.677 126.376 106.564C125.994 106.451 125.64 106.258 125.337 105.999C125.034 105.739 124.79 105.419 124.619 105.058C124.585 104.985 124.553 104.912 124.526 104.837C124.318 104.276 124.294 103.664 124.455 103.088C124.617 102.512 124.956 102.001 125.425 101.63Z" fill="#A0616A"/>
<path d="M173.495 91.5011C172.887 90.4227 172 89.435 170.828 89.0363C169.314 88.5215 167.674 89.0697 166.118 89.4356C164.919 89.7176 163.666 89.8902 162.457 89.6522C161.248 89.4143 160.082 88.7108 159.532 87.6085C158.723 85.9868 159.405 84.0529 159.356 82.2413C159.33 81.2551 159.081 80.2875 158.628 79.4115C158.174 78.5354 157.528 77.7738 156.737 77.184C155.946 76.5941 155.032 76.1915 154.063 76.0065C153.094 75.8214 152.095 75.8587 151.143 76.1156C149.652 75.6855 148.303 75.6457 147.381 76.7915C146.221 76.7915 145.109 77.2523 144.288 78.0725C143.468 78.8927 143.007 80.0051 143.007 81.165H147.189C146.991 82.2314 147.218 83.333 147.821 84.2345C148.559 85.3191 149.843 86.1036 150.09 87.3922C150.329 88.6408 149.48 89.8255 148.59 90.7332C147.7 91.6408 146.667 92.5402 146.389 93.7808C146.219 94.7226 146.412 95.694 146.93 96.4988C147.447 97.2937 148.089 98.0004 148.83 98.5918C152.171 101.454 156.141 103.485 160.417 104.519C163.428 105.244 166.722 105.432 169.517 104.099C170.635 103.565 171.632 102.807 172.444 101.872C173.257 100.938 173.87 99.8455 174.243 98.6641C174.616 97.4827 174.742 96.2372 174.613 95.0049C174.485 93.7727 174.104 92.58 173.495 91.5011Z" fill="#2F2E41"/>
<path d="M174.439 176H125.559C125.491 176 125.425 175.973 125.377 175.925C125.329 175.876 125.302 175.811 125.302 175.743C125.302 175.674 125.329 175.609 125.377 175.561C125.425 175.512 125.491 175.485 125.559 175.485H174.439C174.507 175.485 174.573 175.512 174.621 175.561C174.669 175.609 174.696 175.674 174.696 175.743C174.696 175.811 174.669 175.876 174.621 175.925C174.573 175.973 174.507 176 174.439 176Z" fill="#CCCCCC"/>
</svg>
