<?xml version="1.0" encoding="UTF-8" standalone="no"?>
<svg
   xmlns:dc="http://purl.org/dc/elements/1.1/"
   xmlns:cc="http://creativecommons.org/ns#"
   xmlns:rdf="http://www.w3.org/1999/02/22-rdf-syntax-ns#"
   xmlns:svg="http://www.w3.org/2000/svg"
   xmlns="http://www.w3.org/2000/svg"
   xmlns:sodipodi="http://sodipodi.sourceforge.net/DTD/sodipodi-0.dtd"
   xmlns:inkscape="http://www.inkscape.org/namespaces/inkscape"
   width="200"
   height="176"
   viewBox="0 0 200 176"
   fill="none"
   version="1.1"
   id="svg1618"
   sodipodi:docname="img-search-light.svg"
   inkscape:version="0.92.5 (2060ec1f9f, 2020-04-08)">
  <metadata
     id="metadata1624">
    <rdf:RDF>
      <cc:Work
         rdf:about="">
        <dc:format>image/svg+xml</dc:format>
        <dc:type
           rdf:resource="http://purl.org/dc/dcmitype/StillImage" />
        <dc:title></dc:title>
      </cc:Work>
    </rdf:RDF>
  </metadata>
  <defs
     id="defs1622" />
  <sodipodi:namedview
     pagecolor="#ffffff"
     bordercolor="#666666"
     borderopacity="1"
     objecttolerance="10"
     gridtolerance="10"
     guidetolerance="10"
     inkscape:pageopacity="0"
     inkscape:pageshadow="2"
     inkscape:window-width="1920"
     inkscape:window-height="1053"
     id="namedview1620"
     showgrid="false"
     inkscape:zoom="1.3409091"
     inkscape:cx="281.01695"
     inkscape:cy="-23.407352"
     inkscape:window-x="0"
     inkscape:window-y="0"
     inkscape:window-maximized="1"
     inkscape:current-layer="svg1618" />
  <circle
     cx="100"
     cy="88"
     r="84"
     id="circle1524"
     style="fill:#e8f5ff"
     inkscape:export-xdpi="300"
     inkscape:export-ydpi="300" />
  <path
     d="m 130.322,106.779 -64.2779,16.552 c -2.1804,0.559 -4.4934,0.23 -6.4316,-0.915 -1.9382,-1.144 -3.3434,-3.01 -3.9071,-5.189 L 36.2662,41.7378 c -0.5589,-2.1804 -0.23,-4.4934 0.9144,-6.4316 1.1444,-1.9382 3.0109,-3.3433 5.19,-3.9071 L 102.1703,16 l 15.3057,6.852 18.95,73.588 c 0.559,2.1804 0.23,4.493 -0.914,6.432 -1.145,1.938 -3.011,3.343 -5.19,3.907 z"
     id="path1526"
     inkscape:connector-curvature="0"
     style="fill:#f2f2f2"
     inkscape:export-xdpi="300"
     inkscape:export-ydpi="300" />
  <path
     d="m 42.9797,33.766 c -1.5518,0.4015 -2.8809,1.4021 -3.6959,2.7823 -0.8149,1.3803 -1.0491,3.0274 -0.6511,4.5801 l 19.4392,75.4886 c 0.4014,1.552 1.402,2.881 2.7823,3.696 1.3802,0.815 3.0274,1.049 4.5801,0.651 l 64.2777,-16.552 c 1.552,-0.402 2.881,-1.402 3.696,-2.782 0.815,-1.381 1.049,-3.0277 0.651,-4.5804 L 115.403,24.6017 101.9516,18.5801 Z"
     id="path1528"
     inkscape:connector-curvature="0"
     style="fill:#ffffff"
     inkscape:export-xdpi="300"
     inkscape:export-ydpi="300" />
  <path
     d="m 117.313,23.2414 -9.9481,2.5617 c -0.7263,0.187 -1.497,0.0779 -2.1428,-0.3034 -0.6457,-0.3813 -1.1136,-1.0035 -1.3006,-1.7297 l -1.892,-7.3473 c -0.008,-0.0322 -0.007,-0.066 0.003,-0.0977 0.0101,-0.0316 0.0289,-0.0598 0.0543,-0.0813 0.0253,-0.0214 0.0562,-0.0353 0.0891,-0.04 0.0329,-0.0047 0.0664,-10e-5 0.0968,0.0134 l 15.0676,6.6917 c 0.034,0.0149 0.062,0.0398 0.081,0.0714 0.018,0.0316 0.027,0.0682 0.024,0.1047 -0.003,0.0366 -0.018,0.0713 -0.041,0.0993 -0.024,0.0281 -0.056,0.0481 -0.091,0.0572 z"
     id="path1530"
     inkscape:connector-curvature="0"
     style="fill:#f2f2f2"
     inkscape:export-xdpi="300"
     inkscape:export-ydpi="300" />
  <path
     d="m 112.079,87.7072 -29.2646,7.536 c -0.1798,0.0463 -0.3669,0.0567 -0.5507,0.0307 -0.1839,-0.026 -0.3608,-0.088 -0.5206,-0.1824 -0.1599,-0.0944 -0.2996,-0.2194 -0.4112,-0.3678 -0.1116,-0.1483 -0.1928,-0.3173 -0.2391,-0.497 -0.0463,-0.1798 -0.0568,-0.367 -0.0307,-0.5508 0.026,-0.1838 0.088,-0.3607 0.1824,-0.5206 0.0944,-0.1599 0.2193,-0.2996 0.3677,-0.4112 0.1484,-0.1116 0.3173,-0.1928 0.4971,-0.2391 l 29.2647,-7.536 c 0.18,-0.0463 0.367,-0.0567 0.551,-0.0307 0.184,0.026 0.36,0.088 0.52,0.1824 0.16,0.0944 0.3,0.2193 0.411,0.3677 0.112,0.1484 0.193,0.3173 0.24,0.4971 0.046,0.1798 0.056,0.367 0.03,0.5508 -0.026,0.1838 -0.088,0.3607 -0.182,0.5206 -0.094,0.1599 -0.219,0.2996 -0.368,0.4112 -0.148,0.1115 -0.317,0.1928 -0.497,0.2391 z"
     id="path1532"
     inkscape:connector-curvature="0"
     style="fill:#cccccc"
     inkscape:export-xdpi="300"
     inkscape:export-ydpi="300" />
  <path
     d="m 118.917,90.8736 -34.9126,8.9903 c -0.3631,0.0935 -0.7485,0.0389 -1.0714,-0.1517 -0.3229,-0.1906 -0.5568,-0.5017 -0.6503,-0.8648 -0.0935,-0.3631 -0.0389,-0.7485 0.1517,-1.0714 0.1907,-0.3229 0.5017,-0.5568 0.8649,-0.6503 l 34.9117,-8.9903 c 0.363,-0.0931 0.749,-0.0383 1.071,0.1524 0.323,0.1906 0.556,0.5016 0.65,0.8645 0.093,0.3629 0.039,0.748 -0.151,1.0708 -0.191,0.3228 -0.502,0.5568 -0.864,0.6505 z"
     id="path1534"
     inkscape:connector-curvature="0"
     style="fill:#cccccc"
     inkscape:export-xdpi="300"
     inkscape:export-ydpi="300" />
  <path
     d="m 70.8704,104.319 c 2.7598,0 4.9969,-2.237 4.9969,-4.9964 0,-2.7597 -2.2371,-4.9969 -4.9969,-4.9969 -2.7597,0 -4.9969,2.2372 -4.9969,4.9969 0,2.7594 2.2372,4.9964 4.9969,4.9964 z"
     id="path1536"
     inkscape:connector-curvature="0"
     style="fill:#e6e6e6"
     inkscape:export-xdpi="300"
     inkscape:export-ydpi="300" />
  <path
     d="M 108.9675,74.63 70.1011,84.6348 c -1.1233,0.2878 -2.3148,0.1183 -3.3132,-0.4714 -0.9984,-0.5896 -1.7222,-1.5512 -2.0125,-2.6738 l -8.145,-31.6412 c -0.2878,-1.1232 -0.1183,-2.3148 0.4714,-3.3132 0.5896,-0.9984 1.5512,-1.7222 2.6738,-2.0125 L 98.642,34.5179 c 1.1232,-0.2878 2.3148,-0.1183 3.3132,0.4713 0.9984,0.5897 1.7222,1.5513 2.0125,2.6738 l 8.1453,31.6413 c 0.287,1.1232 0.118,2.3147 -0.472,3.3132 -0.589,0.9984 -1.551,1.7221 -2.6735,2.0125 z"
     id="path1538"
     inkscape:connector-curvature="0"
     style="fill:#ffffff"
     inkscape:export-xdpi="300"
     inkscape:export-ydpi="300" />
  <path
     d="M 108.9675,74.63 70.1011,84.6348 c -1.1233,0.2878 -2.3148,0.1183 -3.3132,-0.4714 -0.9984,-0.5896 -1.7222,-1.5512 -2.0125,-2.6738 l -8.145,-31.6412 c -0.2878,-1.1232 -0.1183,-2.3148 0.4714,-3.3132 0.5896,-0.9984 1.5512,-1.7222 2.6738,-2.0125 L 98.642,34.5179 c 1.1232,-0.2878 2.3148,-0.1183 3.3132,0.4713 0.9984,0.5897 1.7222,1.5513 2.0125,2.6738 l 8.1453,31.6413 c 0.287,1.1232 0.118,2.3147 -0.472,3.3132 -0.589,0.9984 -1.551,1.7221 -2.6735,2.0125 z M 59.9039,45.021 c -0.9905,0.2562 -1.839,0.8948 -2.3593,1.7757 -0.5202,0.881 -0.6698,1.9323 -0.4159,2.9234 l 8.145,31.6413 c 0.2561,0.9905 0.8948,1.8389 1.7757,2.3592 0.881,0.5203 1.9323,0.6698 2.9234,0.4159 l 38.8664,-10.0048 c 0.9905,-0.2562 1.8388,-0.8948 2.3588,-1.7758 0.521,-0.8809 0.67,-1.9323 0.416,-2.9234 l -8.1446,-31.6412 c -0.2562,-0.9905 -0.8948,-1.839 -1.7758,-2.3592 -0.8809,-0.5203 -1.9323,-0.6699 -2.9234,-0.4159 z"
     id="path1540"
     inkscape:connector-curvature="0"
     style="fill:#e6e6e6"
     inkscape:export-xdpi="300"
     inkscape:export-ydpi="300" />
  <path
     d="m 96.6703,45.1569 -19.6154,5.0493 c -0.1715,0.0479 -0.3548,0.0289 -0.5128,-0.0532 -0.158,-0.0821 -0.2789,-0.2211 -0.3384,-0.3889 -0.0276,-0.0877 -0.0371,-0.1801 -0.0279,-0.2715 0.0092,-0.0915 0.037,-0.1802 0.0816,-0.2605 0.0446,-0.0804 0.1051,-0.1509 0.1778,-0.2071 0.0727,-0.0562 0.1562,-0.0971 0.2452,-0.12 l 19.9672,-5.1399 c 0.8066,0.4087 0.5944,1.2446 0.0224,1.3919 z"
     id="path1542"
     inkscape:connector-curvature="0"
     style="fill:#f2f2f2"
     inkscape:export-xdpi="300"
     inkscape:export-ydpi="300" />
  <path
     d="m 97.556,48.5976 -19.6154,5.0493 c -0.1715,0.0479 -0.3547,0.0288 -0.5127,-0.0532 -0.158,-0.0821 -0.279,-0.2211 -0.3384,-0.3889 -0.0277,-0.0877 -0.0372,-0.1801 -0.028,-0.2716 0.0092,-0.0915 0.037,-0.1801 0.0816,-0.2605 0.0446,-0.0804 0.1051,-0.1508 0.1778,-0.2071 0.0728,-0.0562 0.1562,-0.097 0.2452,-0.1199 l 19.9673,-5.1399 c 0.8066,0.4087 0.5943,1.2446 0.0224,1.3918 z"
     id="path1544"
     inkscape:connector-curvature="0"
     style="fill:#f2f2f2"
     inkscape:export-xdpi="300"
     inkscape:export-ydpi="300" />
  <path
     d="m 74.2045,56.6972 -5.9864,1.541 c -0.1955,0.0501 -0.4029,0.0206 -0.5767,-0.082 -0.1738,-0.1026 -0.2998,-0.27 -0.3503,-0.4654 l -1.8185,-7.0645 c -0.0501,-0.1955 -0.0206,-0.4029 0.082,-0.5767 0.1026,-0.1738 0.27,-0.2998 0.4655,-0.3503 l 5.9864,-1.541 c 0.1955,-0.05 0.4029,-0.0205 0.5766,0.0821 0.1738,0.1027 0.2998,0.27 0.3504,0.4654 l 1.8185,7.0644 c 0.0501,0.1955 0.0206,0.403 -0.082,0.5768 -0.1027,0.1737 -0.2701,0.2997 -0.4655,0.3502 z"
     id="path1546"
     inkscape:connector-curvature="0"
     style="fill:#e6e6e6"
     inkscape:export-xdpi="300"
     inkscape:export-ydpi="300" />
  <path
     d="m 99.3123,55.657 -29.9366,7.7061 c -0.1715,0.0479 -0.3548,0.0289 -0.5128,-0.0532 -0.158,-0.0821 -0.2789,-0.2211 -0.3384,-0.3889 -0.0276,-0.0877 -0.0371,-0.1801 -0.0279,-0.2715 0.0092,-0.0915 0.037,-0.1801 0.0816,-0.2605 0.0446,-0.0804 0.1051,-0.1509 0.1778,-0.2071 0.0728,-0.0562 0.1562,-0.097 0.2452,-0.12 l 30.2887,-7.7968 c 0.8066,0.4087 0.5944,1.2446 0.0224,1.3919 z"
     id="path1548"
     inkscape:connector-curvature="0"
     style="fill:#f2f2f2"
     inkscape:export-xdpi="300"
     inkscape:export-ydpi="300" />
  <path
     d="m 100.1983,59.0986 -29.9366,7.7062 c -0.1715,0.0479 -0.3548,0.0288 -0.5128,-0.0532 -0.158,-0.0821 -0.2789,-0.2211 -0.3384,-0.3889 -0.0276,-0.0877 -0.0372,-0.1801 -0.0279,-0.2716 0.0092,-0.0914 0.0369,-0.1801 0.0815,-0.2605 0.0446,-0.0804 0.1052,-0.1508 0.1779,-0.207 0.0727,-0.0563 0.1562,-0.0971 0.2452,-0.12 l 30.2887,-7.7968 c 0.8066,0.4087 0.5944,1.2446 0.0224,1.3918 z"
     id="path1550"
     inkscape:connector-curvature="0"
     style="fill:#f2f2f2"
     inkscape:export-xdpi="300"
     inkscape:export-ydpi="300" />
  <path
     d="m 101.0838,62.5381 -29.9366,7.7061 c -0.1715,0.0479 -0.3548,0.0289 -0.5128,-0.0532 -0.158,-0.082 -0.2789,-0.221 -0.3384,-0.3889 -0.0276,-0.0876 -0.0372,-0.18 -0.0279,-0.2715 0.0092,-0.0915 0.0369,-0.1801 0.0815,-0.2605 0.0446,-0.0804 0.1052,-0.1509 0.1779,-0.2071 0.0727,-0.0562 0.1562,-0.097 0.2452,-0.12 l 30.2887,-7.7968 c 0.8066,0.4087 0.5944,1.2446 0.0224,1.3919 z"
     id="path1552"
     inkscape:connector-curvature="0"
     style="fill:#f2f2f2"
     inkscape:export-xdpi="300"
     inkscape:export-ydpi="300" />
  <path
     d="m 101.9695,65.9795 -29.9366,7.7061 c -0.1715,0.0479 -0.3547,0.0289 -0.5127,-0.0532 -0.158,-0.082 -0.279,-0.2211 -0.3384,-0.3889 -0.0277,-0.0877 -0.0372,-0.18 -0.028,-0.2715 0.0092,-0.0915 0.037,-0.1801 0.0816,-0.2605 0.0446,-0.0804 0.1051,-0.1509 0.1778,-0.2071 0.0728,-0.0562 0.1562,-0.097 0.2452,-0.12 l 30.2888,-7.7968 c 0.8065,0.4087 0.5943,1.2447 0.0223,1.3919 z"
     id="path1554"
     inkscape:connector-curvature="0"
     style="fill:#f2f2f2"
     inkscape:export-xdpi="300"
     inkscape:export-ydpi="300" />
  <path
     d="m 102.855,69.4192 -29.9366,7.7061 c -0.1715,0.0479 -0.3547,0.0289 -0.5127,-0.0532 -0.158,-0.0821 -0.279,-0.2211 -0.3384,-0.3889 -0.0277,-0.0877 -0.0372,-0.18 -0.028,-0.2715 0.0092,-0.0915 0.037,-0.1801 0.0816,-0.2605 0.0446,-0.0804 0.1051,-0.1509 0.1778,-0.2071 0.0728,-0.0562 0.1562,-0.097 0.2452,-0.12 l 30.2888,-7.7968 c 0.8065,0.4087 0.5943,1.2446 0.0223,1.3919 z"
     id="path1556"
     inkscape:connector-curvature="0"
     style="fill:#f2f2f2"
     inkscape:export-xdpi="300"
     inkscape:export-ydpi="300" />
  <path
     d="m 71.2393,101.074 c -0.1089,0.028 -0.2239,0.02 -0.3278,-0.022 l -0.0065,-0.003 -1.3612,-0.577 c -0.0632,-0.027 -0.1205,-0.066 -0.1686,-0.115 -0.0481,-0.049 -0.0861,-0.107 -0.1118,-0.17 -0.0257,-0.064 -0.0387,-0.132 -0.038,-0.2004 6e-4,-0.0686 0.0147,-0.1364 0.0415,-0.1995 0.0269,-0.0632 0.0659,-0.1204 0.1149,-0.1684 0.049,-0.0481 0.1069,-0.086 0.1706,-0.1116 0.0636,-0.0256 0.1317,-0.0384 0.2003,-0.0377 0.0686,7e-4 0.1364,0.015 0.1995,0.0419 l 0.8821,0.3752 1.1558,-2.7191 c 0.0268,-0.0631 0.0658,-0.1202 0.1147,-0.1682 0.0489,-0.048 0.1067,-0.0859 0.1703,-0.1115 0.0635,-0.0256 0.1315,-0.0385 0.2,-0.0378 0.0685,6e-4 0.1362,0.0147 0.1992,0.0415 l 2e-4,10e-5 -0.007,0.0178 0.0073,-0.0179 c 0.1272,0.0543 0.2277,0.1569 0.2794,0.2852 0.0517,0.1283 0.0504,0.2718 -0.0036,0.3992 l -1.3598,3.1972 c -0.0316,0.074 -0.0796,0.139 -0.1406,0.191 -0.0609,0.052 -0.133,0.09 -0.2107,0.109 z"
     id="path1558"
     inkscape:connector-curvature="0"
     style="fill:#ffffff"
     inkscape:export-xdpi="300"
     inkscape:export-ydpi="300" />
  <path
     d="M 154.976,135.545 H 88.6013 c -2.2508,-0.002 -4.4087,-0.897 -6.0003,-2.489 -1.5916,-1.592 -2.4869,-3.749 -2.4894,-6 V 49.1043 c 0.0025,-2.2509 0.8978,-4.4088 2.4894,-6.0004 1.5916,-1.5916 3.7495,-2.4869 6.0003,-2.4894 h 61.7507 l 13.114,10.4524 v 75.9891 c -0.003,2.251 -0.898,4.408 -2.49,6 -1.591,1.592 -3.749,2.487 -6,2.489 z"
     id="path1560"
     inkscape:connector-curvature="0"
     style="fill:#e6e6e6"
     inkscape:export-xdpi="300"
     inkscape:export-ydpi="300" />
  <path
     d="m 88.6012,43.0586 c -1.6029,0.0018 -3.1396,0.6393 -4.273,1.7727 -1.1334,1.1334 -1.771,2.6702 -1.7728,4.273 v 77.9517 c 0.0018,1.603 0.6394,3.139 1.7728,4.273 1.1334,1.133 2.6701,1.771 4.273,1.773 h 66.3748 c 1.603,-0.002 3.139,-0.64 4.273,-1.773 1.133,-1.134 1.771,-2.67 1.772,-4.273 V 52.2444 l -11.524,-9.1858 z"
     id="path1562"
     inkscape:connector-curvature="0"
     style="fill:#ffffff"
     inkscape:export-xdpi="300"
     inkscape:export-ydpi="300" />
  <path
     d="m 142.066,65.7247 h -30.219 c -0.375,0 -0.735,-0.1489 -1,-0.414 -0.265,-0.2652 -0.414,-0.6248 -0.414,-0.9997 0,-0.375 0.149,-0.7346 0.414,-0.9997 0.265,-0.2651 0.625,-0.4141 1,-0.4141 h 30.219 c 0.375,0 0.735,0.149 1,0.4141 0.265,0.2651 0.414,0.6247 0.414,0.9997 0,0.3749 -0.149,0.7345 -0.414,0.9997 -0.265,0.2651 -0.625,0.414 -1,0.414 z"
     id="path1564"
     inkscape:connector-curvature="0"
     style="fill:#6c63ff"
     inkscape:export-xdpi="300"
     inkscape:export-ydpi="300" />
  <path
     d="m 147.898,70.4962 h -36.051 c -0.375,-5e-4 -0.734,-0.1496 -0.999,-0.4147 -0.264,-0.2651 -0.413,-0.6244 -0.413,-0.999 0,-0.3747 0.149,-0.734 0.413,-0.999 0.265,-0.2651 0.624,-0.4143 0.999,-0.4148 h 36.051 c 0.186,-2e-4 0.37,0.0361 0.541,0.1071 0.172,0.0709 0.328,0.175 0.46,0.3063 0.131,0.1313 0.236,0.2872 0.307,0.4589 0.071,0.1717 0.108,0.3556 0.108,0.5415 0,0.1858 -0.037,0.3698 -0.108,0.5414 -0.071,0.1717 -0.176,0.3276 -0.307,0.4589 -0.132,0.1313 -0.288,0.2354 -0.46,0.3064 -0.171,0.0709 -0.355,0.1073 -0.541,0.107 z"
     id="path1566"
     inkscape:connector-curvature="0"
     style="fill:#6c63ff"
     inkscape:export-xdpi="300"
     inkscape:export-ydpi="300" />
  <path
     d="m 142.066,84.2798 h -30.218 c -0.375,0 -0.735,0.1489 -1,0.414 -0.265,0.2652 -0.414,0.6247 -0.414,0.9997 0,0.3749 0.149,0.7345 0.414,0.9996 0.265,0.2651 0.625,0.414 1,0.414 h 30.218 c 0.375,0 0.735,-0.1489 1,-0.414 0.265,-0.2651 0.414,-0.6247 0.414,-0.9996 0,-0.375 -0.149,-0.7345 -0.414,-0.9997 -0.265,-0.2651 -0.625,-0.414 -1,-0.414 z"
     id="path1568"
     inkscape:connector-curvature="0"
     style="fill:#cccccc"
     inkscape:export-xdpi="300"
     inkscape:export-ydpi="300" />
  <path
     d="m 147.898,89.052 h -36.05 c -0.375,0 -0.735,0.1489 -1,0.4141 -0.265,0.2651 -0.414,0.6247 -0.414,0.9996 0,0.3749 0.149,0.7345 0.414,0.9996 0.265,0.2651 0.625,0.4141 1,0.4141 h 36.05 c 0.375,0 0.735,-0.149 1,-0.4141 0.265,-0.2651 0.414,-0.6247 0.414,-0.9996 0,-0.3749 -0.149,-0.7345 -0.414,-0.9996 -0.265,-0.2652 -0.625,-0.4141 -1,-0.4141 z"
     id="path1570"
     inkscape:connector-curvature="0"
     style="fill:#cccccc"
     inkscape:export-xdpi="300"
     inkscape:export-ydpi="300" />
  <path
     d="m 142.066,108.491 h -30.219 c -0.375,0 -0.735,-0.149 -1,-0.414 -0.265,-0.265 -0.414,-0.624 -0.414,-0.999 0,-0.375 0.149,-0.735 0.414,-1 0.265,-0.265 0.625,-0.414 1,-0.414 h 30.219 c 0.375,0 0.735,0.149 1,0.414 0.265,0.265 0.414,0.625 0.414,1 0,0.375 -0.149,0.734 -0.414,0.999 -0.265,0.265 -0.625,0.414 -1,0.414 z"
     id="path1572"
     inkscape:connector-curvature="0"
     style="fill:#cccccc"
     inkscape:export-xdpi="300"
     inkscape:export-ydpi="300" />
  <path
     d="m 147.898,113.263 h -36.051 c -0.375,-0.001 -0.734,-0.15 -0.999,-0.415 -0.264,-0.265 -0.413,-0.624 -0.413,-0.999 0,-0.375 0.149,-0.734 0.413,-0.999 0.265,-0.265 0.624,-0.414 0.999,-0.415 h 36.051 c 0.186,0 0.37,0.036 0.541,0.107 0.172,0.071 0.328,0.175 0.46,0.307 0.131,0.131 0.236,0.287 0.307,0.459 0.071,0.171 0.108,0.355 0.108,0.541 0,0.186 -0.037,0.37 -0.108,0.542 -0.071,0.171 -0.176,0.327 -0.307,0.458 -0.132,0.132 -0.288,0.236 -0.46,0.307 -0.171,0.071 -0.355,0.107 -0.541,0.107 z"
     id="path1574"
     inkscape:connector-curvature="0"
     style="fill:#cccccc"
     inkscape:export-xdpi="300"
     inkscape:export-ydpi="300" />
  <path
     d="m 99.2625,71.6935 c 2.7598,0 4.9969,-2.2372 4.9969,-4.9969 0,-2.7597 -2.2371,-4.9969 -4.9969,-4.9969 -2.7597,0 -4.9969,2.2372 -4.9969,4.9969 0,2.7597 2.2372,4.9969 4.9969,4.9969 z"
     id="path1576"
     inkscape:connector-curvature="0"
     style="fill:#6c63ff"
     inkscape:export-xdpi="300"
     inkscape:export-ydpi="300" />
  <path
     d="m 98.7673,68.6029 c -0.1124,2e-4 -0.2219,-0.0362 -0.3118,-0.1036 l -0.006,-0.0042 -1.1743,-0.8983 c -0.0546,-0.0417 -0.1004,-0.0937 -0.1348,-0.153 -0.0345,-0.0594 -0.0569,-0.125 -0.0659,-0.193 -0.0091,-0.068 -0.0046,-0.1372 0.0131,-0.2035 0.0177,-0.0663 0.0483,-0.1285 0.09,-0.1829 0.0418,-0.0545 0.0939,-0.1002 0.1533,-0.1345 0.0594,-0.0343 0.1251,-0.0565 0.1931,-0.0654 0.0681,-0.009 0.1372,-0.0044 0.2035,0.0135 0.0662,0.0178 0.1283,0.0486 0.1827,0.0904 l 0.7606,0.5833 1.7975,-2.3449 c 0.0416,-0.0544 0.0936,-0.1 0.1529,-0.1343 0.0593,-0.0343 0.1248,-0.0565 0.1928,-0.0655 0.0679,-0.009 0.1369,-0.0045 0.2031,0.0132 0.0661,0.0177 0.1282,0.0483 0.1825,0.09 l 2e-4,1e-4 -0.0112,0.0155 0.0115,-0.0155 c 0.1097,0.0843 0.1814,0.2086 0.1995,0.3458 0.0181,0.1371 -0.0189,0.2758 -0.103,0.3857 l -2.1142,2.7569 c -0.0489,0.0636 -0.1118,0.115 -0.1838,0.1503 -0.072,0.0353 -0.1511,0.0535 -0.2313,0.0533 z"
     id="path1578"
     inkscape:connector-curvature="0"
     style="fill:#ffffff"
     inkscape:export-xdpi="300"
     inkscape:export-ydpi="300" />
  <path
     d="m 104.773,88.0796 c 2e-4,0.6563 -0.1288,1.3062 -0.3797,1.9126 -0.251,0.6064 -0.619,1.1574 -1.0829,1.6216 -0.4639,0.4642 -1.0148,0.8325 -1.6211,1.0837 -0.6062,0.2513 -1.2561,0.3807 -1.9124,0.3808 -0.0429,8e-4 -0.0859,-9e-4 -0.1286,-0.0052 -0.9825,-0.0252 -1.9358,-0.3396 -2.7405,-0.9038 -0.8047,-0.5643 -1.4252,-1.3534 -1.7837,-2.2685 -0.3585,-0.9151 -0.4392,-1.9156 -0.2319,-2.8764 0.2072,-0.9607 0.6932,-1.839 1.3972,-2.5249 0.7039,-0.6859 1.5945,-1.149 2.5602,-1.3313 0.9658,-0.1823 1.9639,-0.0757 2.8695,0.3065 0.9055,0.3821 1.6782,1.0228 2.2214,1.8419 0.5432,0.8191 0.8328,1.7802 0.8325,2.763 z"
     id="path1580"
     inkscape:connector-curvature="0"
     style="fill:#cccccc"
     inkscape:export-xdpi="300"
     inkscape:export-ydpi="300" />
  <path
     d="m 99.2625,114.46 c 2.7598,0 4.9969,-2.237 4.9969,-4.997 0,-2.76 -2.2371,-4.997 -4.9969,-4.997 -2.7597,0 -4.9969,2.237 -4.9969,4.997 0,2.76 2.2372,4.997 4.9969,4.997 z"
     id="path1582"
     inkscape:connector-curvature="0"
     style="fill:#cccccc"
     inkscape:export-xdpi="300"
     inkscape:export-ydpi="300" />
  <path
     d="m 163.211,51.4033 h -10.273 c -0.75,0 -1.469,-0.2979 -1.999,-0.8282 -0.531,-0.5302 -0.828,-1.2494 -0.828,-1.9994 v -7.587 c 0,-0.0332 0.009,-0.0657 0.027,-0.0939 0.017,-0.0281 0.042,-0.0507 0.072,-0.0652 0.03,-0.0144 0.064,-0.0202 0.097,-0.0165 0.033,0.0036 0.064,0.0165 0.09,0.0371 L 163.32,51.088 c 0.029,0.0228 0.05,0.054 0.06,0.0892 0.01,0.0353 0.009,0.0728 -0.003,0.1075 -0.012,0.0346 -0.034,0.0647 -0.064,0.0859 -0.03,0.0213 -0.066,0.0327 -0.102,0.0327 z"
     id="path1584"
     inkscape:connector-curvature="0"
     style="fill:#cccccc"
     inkscape:export-xdpi="300"
     inkscape:export-ydpi="300" />
  <path
     d="m 104.7728,88.0795 c 2e-4,0.6563 -0.1288,1.3062 -0.3798,1.9126 -0.2509,0.6064 -0.6189,1.1574 -1.0828,1.6216 -0.464,0.4642 -1.0148,0.8324 -1.6211,1.0837 -0.6063,0.2513 -1.2561,0.3807 -1.9124,0.3808 -0.043,8e-4 -0.0859,-9e-4 -0.1286,-0.0052 -0.6456,-1.6101 -0.8945,-3.3519 -0.7257,-5.0784 0.1688,-1.7265 0.7504,-3.3871 1.6955,-4.8418 1.1624,0.1993 2.2169,0.803 2.9772,1.7046 0.7603,0.9015 1.1774,2.0428 1.1777,3.2221 z"
     id="path1586"
     inkscape:connector-curvature="0"
     style="fill:#6c63ff"
     inkscape:export-xdpi="300"
     inkscape:export-ydpi="300" />
  <path
     d="m 110.433,85.6948 c 0,-0.3751 0.15,-0.7346 0.415,-0.9998 0.265,-0.2653 0.625,-0.4145 1,-0.4152 h 7.53 c 0.44,0.8946 0.752,1.8462 0.928,2.8273 h -8.458 c -0.375,0 -0.735,-0.1488 -1,-0.4136 -0.265,-0.2648 -0.415,-0.624 -0.415,-0.9987 z"
     id="path1588"
     inkscape:connector-curvature="0"
     style="fill:#6c63ff"
     inkscape:export-xdpi="300"
     inkscape:export-ydpi="300" />
  <path
     d="m 120.482,89.052 c 0,0.9549 -0.126,1.9057 -0.376,2.8274 h -8.258 c -0.375,0 -0.735,-0.149 -1,-0.4141 -0.265,-0.2651 -0.414,-0.6247 -0.414,-0.9996 0,-0.3749 0.149,-0.7345 0.414,-0.9996 0.265,-0.2652 0.625,-0.4141 1,-0.4141 z"
     id="path1590"
     inkscape:connector-curvature="0"
     style="fill:#6c63ff"
     inkscape:export-xdpi="300"
     inkscape:export-ydpi="300" />
  <path
     d="m 139.113,106.489 c -0.213,0.349 -0.556,0.6 -0.954,0.696 -0.398,0.096 -0.818,0.031 -1.167,-0.182 l -18.01,-10.9856 c -0.173,-0.1056 -0.324,-0.2442 -0.443,-0.4079 -0.12,-0.1638 -0.206,-0.3494 -0.254,-0.5465 -0.047,-0.197 -0.056,-0.4014 -0.025,-0.6017 0.032,-0.2003 0.102,-0.3924 0.208,-0.5655 0.105,-0.1731 0.244,-0.3236 0.408,-0.4431 0.163,-0.1195 0.349,-0.2056 0.546,-0.2533 0.197,-0.0477 0.402,-0.0562 0.602,-0.0249 0.2,0.0313 0.392,0.1018 0.565,0.2073 l 18.01,10.9852 c 0.35,0.213 0.6,0.557 0.697,0.954 0.096,0.398 0.03,0.818 -0.183,1.168 z"
     id="path1592"
     inkscape:connector-curvature="0"
     style="fill:#3f3d56"
     inkscape:export-xdpi="300"
     inkscape:export-ydpi="300" />
  <path
     d="m 121.103,95.5036 c -1.272,2.085 -3.133,3.7462 -5.349,4.7734 -2.216,1.027 -4.687,1.374 -7.0997,0.997 -2.413,-0.377 -4.6601,-1.4614 -6.457,-3.1156 -1.7969,-1.6542 -3.0629,-3.804 -3.638,-6.1777 -0.575,-2.3737 -0.4333,-4.8646 0.4073,-7.1577 0.8406,-2.2932 2.3423,-4.2855 4.3153,-5.7252 1.9729,-1.4397 4.3284,-2.262 6.7691,-2.3629 2.44,-0.1009 4.855,0.524 6.94,1.7959 2.793,1.708 4.795,4.4542 5.566,7.6361 0.771,3.1819 0.248,6.5397 -1.454,9.3367 z M 102.6541,84.2503 c -0.9538,1.5638 -1.4225,3.3754 -1.3468,5.2056 0.0757,1.8302 0.6924,3.5968 1.7721,5.0765 1.0798,1.4797 2.574,2.606 4.2939,3.2364 1.7198,0.6305 3.5877,0.7368 5.3687,0.3055 1.78,-0.4313 3.392,-1.3808 4.633,-2.7285 1.24,-1.3477 2.054,-3.033 2.336,-4.8428 0.283,-1.8098 0.023,-3.6628 -0.747,-5.3247 -0.771,-1.6619 -2.016,-3.0581 -3.58,-4.0119 -2.098,-1.2763 -4.616,-1.6684 -7.0027,-1.0902 -2.3865,0.5781 -4.4461,2.0793 -5.7272,4.1741 z"
     id="path1594"
     inkscape:connector-curvature="0"
     style="fill:#3f3d56"
     inkscape:export-xdpi="300"
     inkscape:export-ydpi="300" />
  <path
     d="m 160.669,91.0529 c 3.489,0 6.318,-2.8289 6.318,-6.3187 0,-3.4897 -2.829,-6.3187 -6.318,-6.3187 -3.49,0 -6.319,2.829 -6.319,6.3187 0,3.4898 2.829,6.3187 6.319,6.3187 z"
     id="path1596"
     inkscape:connector-curvature="0"
     style="fill:#a0616a"
     inkscape:export-xdpi="300"
     inkscape:export-ydpi="300" />
  <path
     d="m 160.26,120.158 c -0.122,-0.38 -0.162,-0.781 -0.118,-1.178 0.044,-0.396 0.171,-0.778 0.373,-1.122 0.203,-0.344 0.475,-0.641 0.8,-0.872 0.325,-0.231 0.695,-0.391 1.086,-0.469 0.124,-0.024 0.25,-0.04 0.376,-0.046 l 6.656,-10.683 -6.08,-5.78 c -0.233,-0.2206 -0.419,-0.4852 -0.548,-0.7784 -0.13,-0.2933 -0.2,-0.6092 -0.206,-0.9297 -0.007,-0.3204 0.05,-0.639 0.167,-0.9374 0.117,-0.2983 0.292,-0.5705 0.515,-0.8008 0.223,-0.2302 0.489,-0.4141 0.784,-0.5408 0.294,-0.1268 0.611,-0.194 0.931,-0.1977 0.321,-0.0038 0.639,0.056 0.936,0.1759 0.297,0.1199 0.568,0.2975 0.796,0.5225 l 8.395,8.2774 0.017,0.02 c 0.259,0.396 0.385,0.864 0.357,1.336 -0.028,0.472 -0.207,0.922 -0.51,1.285 l -9.326,11.029 c 0.028,0.089 0.051,0.179 0.069,0.269 0.078,0.391 0.073,0.795 -0.016,1.183 -0.089,0.389 -0.259,0.755 -0.498,1.073 -0.24,0.319 -0.545,0.583 -0.894,0.776 -0.349,0.193 -0.735,0.31 -1.132,0.343 -0.081,0.007 -0.161,0.01 -0.24,0.01 -0.598,-0.002 -1.181,-0.194 -1.664,-0.547 -0.483,-0.353 -0.842,-0.849 -1.026,-1.418 z"
     id="path1598"
     inkscape:connector-curvature="0"
     style="fill:#a0616a"
     inkscape:export-xdpi="300"
     inkscape:export-ydpi="300" />
  <path
     d="m 150.261,172.675 h -3.154 l -1.5,-12.166 h 4.655 z"
     id="path1600"
     inkscape:connector-curvature="0"
     style="fill:#a0616a"
     inkscape:export-xdpi="300"
     inkscape:export-ydpi="300" />
  <path
     d="m 151.066,175.732 h -10.17 v -0.129 c 0,-0.519 0.102,-1.034 0.301,-1.514 0.199,-0.481 0.491,-0.917 0.858,-1.285 0.368,-0.367 0.804,-0.659 1.284,-0.858 0.481,-0.199 0.995,-0.301 1.515,-0.301 v 0 h 6.212 z"
     id="path1602"
     inkscape:connector-curvature="0"
     style="fill:#2f2e41"
     inkscape:export-xdpi="300"
     inkscape:export-ydpi="300" />
  <path
     d="m 181.611,168.314 -2.71,1.614 -7.514,-9.685 4,-2.382 z"
     id="path1604"
     inkscape:connector-curvature="0"
     style="fill:#a0616a"
     inkscape:export-xdpi="300"
     inkscape:export-ydpi="300" />
  <path
     d="m 183.866,170.529 -8.738,5.203 -0.066,-0.11 c -0.266,-0.447 -0.441,-0.942 -0.516,-1.456 -0.075,-0.515 -0.048,-1.039 0.08,-1.543 0.128,-0.503 0.354,-0.977 0.664,-1.394 0.311,-0.416 0.701,-0.768 1.148,-1.034 v 0 l 5.337,-3.177 z"
     id="path1606"
     inkscape:connector-curvature="0"
     style="fill:#2f2e41"
     inkscape:export-xdpi="300"
     inkscape:export-ydpi="300" />
  <path
     d="m 145.209,167.317 c -2.112,-24.879 -3.369,-47.991 4.354,-57.42 l 0.06,-0.073 12.999,5.2 0.021,0.046 c 0.044,0.096 4.367,9.605 3.358,16.001 l 3.207,14.748 10.454,17.505 c 0.084,0.141 0.137,0.298 0.156,0.461 0.019,0.163 0.003,0.328 -0.047,0.485 -0.05,0.156 -0.133,0.3 -0.242,0.422 -0.11,0.122 -0.245,0.219 -0.395,0.286 l -4.543,1.998 c -0.256,0.112 -0.544,0.127 -0.811,0.044 -0.267,-0.083 -0.495,-0.26 -0.642,-0.498 l -11.372,-18.544 -6.424,-14.223 c -0.034,-0.077 -0.094,-0.141 -0.168,-0.181 -0.075,-0.04 -0.161,-0.054 -0.244,-0.041 -0.084,0.014 -0.161,0.054 -0.219,0.116 -0.059,0.061 -0.095,0.14 -0.104,0.224 l -3.561,33.47 c -0.029,0.284 -0.164,0.547 -0.376,0.739 -0.213,0.191 -0.489,0.296 -0.775,0.296 h -3.532 c -0.289,-0.002 -0.568,-0.111 -0.782,-0.307 -0.213,-0.197 -0.346,-0.465 -0.372,-0.754 z"
     id="path1608"
     inkscape:connector-curvature="0"
     style="fill:#2f2e41"
     inkscape:export-xdpi="300"
     inkscape:export-ydpi="300" />
  <path
     d="m 149.607,110.095 -0.062,-0.03 -0.01,-0.068 c -0.485,-3.399 0.09,-7.175 1.709,-11.2234 0.798,-1.9815 2.281,-3.6104 4.179,-4.59 1.899,-0.9795 4.086,-1.2444 6.163,-0.7465 1.197,0.2949 2.319,0.835 3.296,1.5863 0.977,0.7512 1.787,1.6972 2.38,2.7779 0.584,1.0697 0.94,2.2487 1.046,3.4637 0.105,1.214 -0.044,2.438 -0.436,3.592 -2.041,5.968 -4.689,11.553 -4.715,11.609 l -0.056,0.116 z"
     id="path1610"
     inkscape:connector-curvature="0"
     style="fill:#6c63ff"
     inkscape:export-xdpi="300"
     inkscape:export-ydpi="300" />
  <path
     d="m 135.425,101.63 c 0.313,-0.248 0.674,-0.426 1.061,-0.523 0.387,-0.098 0.79,-0.113 1.182,-0.044 0.393,0.069 0.767,0.22 1.097,0.444 0.33,0.223 0.61,0.514 0.82,0.853 0.066,0.108 0.124,0.22 0.174,0.336 l 12.337,2.493 3.285,-7.7189 c 0.126,-0.2949 0.308,-0.5621 0.538,-0.786 0.229,-0.2239 0.5,-0.4002 0.798,-0.5187 0.298,-0.1184 0.616,-0.1767 0.937,-0.1714 0.32,0.0053 0.637,0.074 0.93,0.2021 0.294,0.1282 0.56,0.3133 0.782,0.5447 0.221,0.2313 0.395,0.5044 0.511,0.8032 0.116,0.2989 0.171,0.6178 0.163,0.9382 -0.008,0.3204 -0.08,0.6361 -0.211,0.9287 l -4.813,10.7611 -0.014,0.023 c -0.279,0.382 -0.674,0.663 -1.125,0.803 -0.452,0.139 -0.937,0.129 -1.382,-0.028 l -13.598,-4.873 c -0.073,0.057 -0.149,0.11 -0.227,0.159 -0.339,0.21 -0.719,0.346 -1.114,0.399 -0.395,0.053 -0.797,0.022 -1.18,-0.091 -0.382,-0.113 -0.736,-0.306 -1.039,-0.565 -0.303,-0.26 -0.547,-0.58 -0.718,-0.941 -0.034,-0.073 -0.066,-0.146 -0.093,-0.221 -0.208,-0.561 -0.232,-1.173 -0.071,-1.749 0.162,-0.576 0.501,-1.087 0.97,-1.458 z"
     id="path1612"
     inkscape:connector-curvature="0"
     style="fill:#a0616a"
     inkscape:export-xdpi="300"
     inkscape:export-ydpi="300" />
  <path
     d="m 183.495,91.5011 c -0.608,-1.0784 -1.495,-2.0661 -2.667,-2.4648 -1.514,-0.5148 -3.154,0.0334 -4.71,0.3993 -1.199,0.282 -2.452,0.4546 -3.661,0.2166 -1.209,-0.2379 -2.375,-0.9414 -2.925,-2.0437 -0.809,-1.6217 -0.127,-3.5556 -0.176,-5.3672 -0.026,-0.9862 -0.275,-1.9538 -0.728,-2.8298 -0.454,-0.8761 -1.1,-1.6377 -1.891,-2.2275 -0.791,-0.5899 -1.705,-0.9925 -2.674,-1.1775 -0.969,-0.1851 -1.968,-0.1478 -2.92,0.1091 -1.491,-0.4301 -2.84,-0.4699 -3.762,0.6759 -1.16,0 -2.272,0.4608 -3.093,1.281 -0.82,0.8202 -1.281,1.9326 -1.281,3.0925 h 4.182 c -0.198,1.0664 0.029,2.168 0.632,3.0695 0.738,1.0846 2.022,1.8691 2.269,3.1577 0.239,1.2486 -0.61,2.4333 -1.5,3.341 -0.89,0.9076 -1.923,1.807 -2.201,3.0476 -0.17,0.9418 0.023,1.9132 0.541,2.718 0.517,0.7949 1.159,1.5016 1.9,2.093 3.341,2.8622 7.311,4.8932 11.587,5.9272 3.011,0.725 6.305,0.913 9.1,-0.42 1.118,-0.534 2.115,-1.292 2.927,-2.227 0.813,-0.934 1.426,-2.0265 1.799,-3.2079 0.373,-1.1814 0.499,-2.4269 0.37,-3.6592 -0.128,-1.2322 -0.509,-2.4249 -1.118,-3.5038 z"
     id="path1614"
     inkscape:connector-curvature="0"
     style="fill:#2f2e41"
     inkscape:export-xdpi="300"
     inkscape:export-ydpi="300" />
  <path
     d="m 184.439,176 h -48.88 c -0.068,0 -0.134,-0.027 -0.182,-0.075 -0.048,-0.049 -0.075,-0.114 -0.075,-0.182 0,-0.069 0.027,-0.134 0.075,-0.182 0.048,-0.049 0.114,-0.076 0.182,-0.076 h 48.88 c 0.068,0 0.134,0.027 0.182,0.076 0.048,0.048 0.075,0.113 0.075,0.182 0,0.068 -0.027,0.133 -0.075,0.182 -0.048,0.048 -0.114,0.075 -0.182,0.075 z"
     id="path1616"
     inkscape:connector-curvature="0"
     style="fill:#cccccc"
     inkscape:export-xdpi="300"
     inkscape:export-ydpi="300" />
</svg>
