<svg width="200" height="176" viewBox="0 0 200 176" fill="none" xmlns="http://www.w3.org/2000/svg">
<circle cx="90" cy="84" r="84" fill="#E8F5FF"/>
<g clip-path="url(#clip0)">
<path d="M79.8551 126.4C79.4071 125.326 79.3578 124.127 79.7163 123.02C80.0748 121.913 80.8174 120.971 81.8099 120.364C82.1405 120.163 81.8383 119.642 81.5062 119.844C80.3677 120.524 79.518 121.597 79.118 122.862C78.7179 124.126 78.7953 125.493 79.3354 126.704C79.4873 127.059 80.0059 126.752 79.8551 126.4H79.8551Z" fill="#3F3D56"/>
<path d="M80.0273 127.209C79.2155 125.771 79.4066 124.05 79.6986 122.495C80.0034 120.871 80.403 119.223 80.0572 117.571C79.9004 116.77 79.5293 116.026 78.9833 115.418C78.7203 115.132 78.2955 115.559 78.5576 115.844C79.5786 116.952 79.697 118.561 79.5314 119.99C79.3361 121.675 78.7825 123.317 78.8512 125.029C78.8692 125.898 79.0942 126.749 79.5076 127.513C79.5493 127.579 79.615 127.627 79.6909 127.645C79.7668 127.664 79.8468 127.652 79.9143 127.612C79.9817 127.573 80.0312 127.509 80.0523 127.434C80.0734 127.359 80.0644 127.278 80.0273 127.209L80.0273 127.209Z" fill="#3F3D56"/>
<path d="M84.3841 131.802H74.1519C73.9125 131.802 73.683 131.707 73.5138 131.537C73.3445 131.368 73.2493 131.139 73.249 130.899V127.894C73.2499 127.121 73.5571 126.381 74.1032 125.835C74.6494 125.289 75.3898 124.982 76.1622 124.981H77.663C77.7427 124.981 77.8192 124.949 77.8757 124.892C77.9321 124.836 77.9638 124.759 77.9639 124.68V123.275C77.9641 123.142 78.017 123.015 78.111 122.921C78.205 122.827 78.3325 122.774 78.4655 122.774H80.0706C80.2035 122.774 80.331 122.827 80.4251 122.921C80.5191 123.015 80.572 123.142 80.5721 123.275V124.68C80.5722 124.759 80.604 124.836 80.6604 124.892C80.7168 124.949 80.7933 124.981 80.8731 124.981H82.3739C83.1462 124.982 83.8867 125.289 84.4328 125.835C84.9789 126.381 85.2861 127.121 85.287 127.894V130.899C85.2867 131.139 85.1915 131.368 85.0223 131.537C84.853 131.707 84.6235 131.802 84.3841 131.802Z" fill="#CCCCCC"/>
<path d="M79.4252 113.753C79.6407 114.897 79.374 115.907 78.8295 116.009C78.2851 116.112 77.669 115.268 77.4536 114.125C77.2382 112.981 77.9007 111.08 77.9007 111.08C77.9007 111.08 79.2098 112.61 79.4252 113.753Z" fill="#6C63FF"/>
<path d="M83.5571 119.072C82.8749 120.015 81.958 120.516 81.5092 120.191C81.0604 119.866 81.2497 118.838 81.9319 117.896C82.6142 116.954 84.4504 116.128 84.4504 116.128C84.4504 116.128 84.2393 118.13 83.5571 119.072Z" fill="#6C63FF"/>
<path d="M60.9956 54.1721C60.5476 53.0982 60.4983 51.8995 60.8568 50.7925C61.2153 49.6856 61.9579 48.7433 62.9504 48.136C63.281 47.935 62.9788 47.4143 62.6466 47.6163C61.5082 48.296 60.6585 49.3696 60.2585 50.6338C59.8584 51.8979 59.9358 53.2649 60.4759 54.4759C60.6278 54.8309 61.1464 54.5246 60.9956 54.1721H60.9956Z" fill="#3F3D56"/>
<path d="M61.1678 54.9816C60.356 53.5433 60.5471 51.8222 60.8391 50.2669C61.1439 48.6433 61.5435 46.9948 61.1977 45.3436C61.0409 44.5419 60.6698 43.7976 60.1238 43.19C59.8608 42.9044 59.436 43.3309 59.6981 43.6156C60.7191 44.7245 60.8375 46.3332 60.6719 47.7618C60.4766 49.4469 59.923 51.0888 59.9918 52.8011C60.0097 53.6696 60.2347 54.5213 60.6481 55.2854C60.6898 55.3514 60.7555 55.3986 60.8314 55.4172C60.9073 55.4357 60.9874 55.424 61.0548 55.3846C61.1222 55.3452 61.1717 55.2811 61.1928 55.2059C61.2139 55.1307 61.2049 55.0503 61.1679 54.9816L61.1678 54.9816Z" fill="#3F3D56"/>
<path d="M65.5246 59.5744H55.2924C55.053 59.5741 54.8235 59.4789 54.6543 59.3096C54.485 59.1404 54.3898 58.9109 54.3895 58.6715V55.666C54.3904 54.8936 54.6976 54.1532 55.2437 53.6071C55.7899 53.0609 56.5303 52.7537 57.3026 52.7529H58.8034C58.8832 52.7528 58.9597 52.721 59.0162 52.6646C59.0726 52.6082 59.1043 52.5317 59.1044 52.4519V51.0475C59.1045 50.9145 59.1574 50.787 59.2515 50.693C59.3455 50.5989 59.473 50.5461 59.606 50.5459H61.211C61.344 50.5461 61.4715 50.5989 61.5655 50.693C61.6596 50.787 61.7125 50.9145 61.7126 51.0475V52.4519C61.7127 52.5317 61.7444 52.6082 61.8009 52.6646C61.8573 52.721 61.9338 52.7528 62.0136 52.7529H63.5144C64.2867 52.7537 65.0272 53.0609 65.5733 53.6071C66.1194 54.1532 66.4266 54.8936 66.4275 55.666V58.6715C66.4272 58.9109 66.332 59.1404 66.1628 59.3096C65.9935 59.4789 65.764 59.5741 65.5246 59.5744Z" fill="#CCCCCC"/>
<path d="M60.5658 41.5253C60.7812 42.6686 60.5145 43.6787 59.97 43.7813C59.4256 43.8838 58.8095 43.0401 58.5941 41.8968C58.3787 40.7534 59.0412 38.8522 59.0412 38.8522C59.0412 38.8522 60.3503 40.3819 60.5658 41.5253Z" fill="#6C63FF"/>
<path d="M64.6976 46.8446C64.0154 47.787 63.0985 48.2877 62.6497 47.9628C62.2009 47.6379 62.3902 46.6105 63.0724 45.6681C63.7547 44.7256 65.5909 43.8998 65.5909 43.8998C65.5909 43.8998 65.3798 45.9021 64.6976 46.8446Z" fill="#6C63FF"/>
<path d="M40.6461 90.5721H32.4202V93.5816H40.6461V90.5721Z" fill="#6C63FF"/>
<path d="M40.6461 100.403H32.4202V103.413H40.6461V100.403Z" fill="#6C63FF"/>
<path d="M90.8044 154.975H29.4108C28.5065 154.974 27.6395 154.615 27.0001 153.975C26.3607 153.336 26.001 152.469 26 151.565V39.4108C26.001 38.5065 26.3607 37.6395 27.0001 37.0001C27.6395 36.3607 28.5065 36.001 29.4108 36H90.8044C91.7087 36.001 92.5757 36.3607 93.2151 37.0001C93.8545 37.6395 94.2142 38.5065 94.2152 39.4108V151.565C94.2142 152.469 93.8545 153.336 93.2151 153.975C92.5757 154.615 91.7087 154.974 90.8044 154.975ZM29.4108 36.4013C28.6129 36.4022 27.8479 36.7195 27.2837 37.2837C26.7195 37.8479 26.4022 38.6129 26.4013 39.4108V151.565C26.4022 152.362 26.7195 153.127 27.2837 153.692C27.8479 154.256 28.6129 154.573 29.4108 154.574H90.8044C91.6023 154.573 92.3673 154.256 92.9315 153.692C93.4957 153.127 93.813 152.362 93.8139 151.565V39.4108C93.813 38.6129 93.4957 37.8479 92.9315 37.2837C92.3673 36.7195 91.6023 36.4022 90.8044 36.4013H29.4108Z" fill="#3F3D56"/>
<path d="M94.0146 59.1636H26.2007V59.5648H94.0146V59.1636Z" fill="#3F3D56"/>
<path d="M94.0146 83.2458H26.2007V83.6471H94.0146V83.2458Z" fill="#3F3D56"/>
<path d="M94.0146 107.328H26.2007V107.729H94.0146V107.328Z" fill="#3F3D56"/>
<path d="M94.0146 131.41H26.2007V131.812H94.0146V131.41Z" fill="#3F3D56"/>
<path d="M40.0443 107.827H33.2228C32.9568 107.826 32.7018 107.721 32.5138 107.532C32.3257 107.344 32.2199 107.089 32.2196 106.823V87.3621C32.2199 87.0961 32.3257 86.8411 32.5138 86.653C32.7018 86.465 32.9568 86.3592 33.2228 86.3589H40.0443C40.3103 86.3592 40.5652 86.465 40.7533 86.653C40.9414 86.8411 41.0471 87.0961 41.0475 87.3621V106.823C41.0471 107.089 40.9414 107.344 40.7533 107.532C40.5652 107.721 40.3103 107.826 40.0443 107.827ZM33.2228 86.7602C33.0632 86.7603 32.9102 86.8238 32.7974 86.9366C32.6845 87.0495 32.621 87.2025 32.6209 87.3621V106.823C32.621 106.983 32.6845 107.136 32.7974 107.249C32.9102 107.362 33.0632 107.425 33.2228 107.425H40.0443C40.2039 107.425 40.3569 107.362 40.4697 107.249C40.5825 107.136 40.646 106.983 40.6462 106.823V87.3621C40.646 87.2025 40.5825 87.0495 40.4697 86.9366C40.3569 86.8238 40.2039 86.7603 40.0443 86.7602H33.2228Z" fill="#3F3D56"/>
<path d="M53.2861 90.5721H45.0602V93.5816H53.2861V90.5721Z" fill="#6C63FF"/>
<path d="M53.2861 100.403H45.0602V103.413H53.2861V100.403Z" fill="#6C63FF"/>
<path d="M52.6842 107.827H45.8627C45.5967 107.826 45.3417 107.721 45.1537 107.532C44.9656 107.344 44.8598 107.089 44.8595 106.823V87.3621C44.8598 87.0961 44.9656 86.8411 45.1537 86.653C45.3417 86.465 45.5967 86.3592 45.8627 86.3589H52.6842C52.9501 86.3592 53.2051 86.465 53.3932 86.653C53.5812 86.8411 53.687 87.0961 53.6873 87.3621V106.823C53.687 107.089 53.5812 107.344 53.3932 107.532C53.2051 107.721 52.9501 107.826 52.6842 107.827ZM45.8627 86.7602C45.7031 86.7603 45.5501 86.8238 45.4373 86.9366C45.3244 87.0495 45.2609 87.2025 45.2608 87.3621V106.823C45.2609 106.983 45.3244 107.136 45.4373 107.249C45.5501 107.362 45.7031 107.425 45.8627 107.425H52.6842C52.8438 107.425 52.9967 107.362 53.1096 107.249C53.2224 107.136 53.2859 106.983 53.2861 106.823V87.3621C53.2859 87.2025 53.2224 87.0495 53.1096 86.9366C52.9967 86.8238 52.8438 86.7603 52.6842 86.7602H45.8627Z" fill="#3F3D56"/>
<path d="M73.3494 66.2955H65.1234V69.305H73.3494V66.2955Z" fill="#6C63FF"/>
<path d="M73.3494 76.1266H65.1234V79.1361H73.3494V76.1266Z" fill="#6C63FF"/>
<path d="M72.7475 83.55H65.926C65.6601 83.5497 65.4051 83.4439 65.217 83.2558C65.0289 83.0678 64.9232 82.8128 64.9229 82.5468V63.0854C64.9232 62.8195 65.0289 62.5645 65.217 62.3764C65.4051 62.1884 65.6601 62.0826 65.926 62.0823H72.7475C73.0135 62.0826 73.2685 62.1884 73.4566 62.3764C73.6446 62.5645 73.7504 62.8195 73.7507 63.0854V82.5468C73.7504 82.8128 73.6446 83.0678 73.4566 83.2558C73.2685 83.4439 73.0135 83.5497 72.7475 83.55ZM65.926 62.4835C65.7664 62.4837 65.6134 62.5472 65.5006 62.66C65.3878 62.7729 65.3243 62.9259 65.3241 63.0854V82.5468C65.3243 82.7064 65.3878 82.8594 65.5006 82.9722C65.6134 83.0851 65.7664 83.1486 65.926 83.1487H72.7475C72.9071 83.1486 73.0601 83.0851 73.173 82.9723C73.2858 82.8594 73.3493 82.7064 73.3494 82.5468V63.0854C73.3493 62.9259 73.2858 62.7729 73.173 62.66C73.0601 62.5472 72.9071 62.4837 72.7475 62.4835H65.926Z" fill="#3F3D56"/>
<path d="M85.9893 66.2955H77.7633V69.305H85.9893V66.2955Z" fill="#6C63FF"/>
<path d="M85.9893 76.1266H77.7633V79.1361H85.9893V76.1266Z" fill="#6C63FF"/>
<path d="M85.3874 83.55H78.5659C78.2999 83.5497 78.045 83.4439 77.8569 83.2558C77.6688 83.0678 77.563 82.8128 77.5627 82.5468V63.0854C77.563 62.8195 77.6688 62.5645 77.8569 62.3764C78.045 62.1884 78.2999 62.0826 78.5659 62.0823H85.3874C85.6534 62.0826 85.9084 62.1884 86.0964 62.3764C86.2845 62.5645 86.3903 62.8195 86.3906 63.0854V82.5468C86.3903 82.8128 86.2845 83.0678 86.0964 83.2558C85.9084 83.4439 85.6534 83.5497 85.3874 83.55ZM78.5659 62.4835C78.4063 62.4837 78.2533 62.5472 78.1405 62.66C78.0277 62.7729 77.9642 62.9259 77.964 63.0854V82.5468C77.9642 82.7064 78.0277 82.8594 78.1405 82.9723C78.2533 83.0851 78.4063 83.1486 78.5659 83.1487H85.3874C85.547 83.1486 85.7 83.0851 85.8128 82.9723C85.9257 82.8594 85.9892 82.7064 85.9893 82.5468V63.0854C85.9892 62.9259 85.9257 62.7729 85.8128 62.66C85.7 62.5472 85.547 62.4837 85.3874 62.4835H78.5659Z" fill="#3F3D56"/>
<path d="M63.3759 88.7748L55.6757 91.6683L56.7343 94.4855L64.4345 91.592L63.3759 88.7748Z" fill="#6C63FF"/>
<path d="M66.8339 97.9776L59.1337 100.871L60.1923 103.688L67.8925 100.795L66.8339 97.9776Z" fill="#6C63FF"/>
<path d="M62.1427 107.602C61.9387 107.602 61.7397 107.539 61.572 107.423C61.4044 107.307 61.2761 107.142 61.2042 106.952L54.3586 88.7339C54.2653 88.4848 54.2747 88.2089 54.3845 87.9668C54.4944 87.7246 54.6959 87.5359 54.9447 87.442L61.3303 85.0425C61.4536 84.9962 61.5849 84.9746 61.7166 84.9789C61.8482 84.9833 61.9777 85.0136 62.0977 85.068C62.2177 85.1225 62.3258 85.2 62.4158 85.2962C62.5058 85.3924 62.5759 85.5054 62.6222 85.6288L69.4679 103.846C69.5611 104.095 69.5518 104.371 69.4419 104.614C69.332 104.856 69.1306 105.044 68.8817 105.138H68.8817L62.4961 107.538C62.3832 107.58 62.2634 107.602 62.1427 107.602ZM61.6835 85.3794C61.6111 85.3794 61.5392 85.3926 61.4715 85.4181L55.0859 87.8176C54.9366 87.8739 54.8157 87.9872 54.7498 88.1325C54.6838 88.2778 54.6782 88.4434 54.7342 88.5928L61.5798 106.81C61.6076 106.884 61.6497 106.952 61.7037 107.01C61.7577 107.068 61.8226 107.114 61.8945 107.147C61.9665 107.179 62.0442 107.198 62.1232 107.2C62.2022 107.203 62.281 107.19 62.355 107.162L68.7405 104.763C68.8898 104.706 69.0107 104.593 69.0767 104.448C69.1426 104.302 69.1482 104.137 69.0923 103.987L62.2466 85.7698C62.2035 85.6553 62.1265 85.5566 62.0259 85.4869C61.9254 85.4171 61.8059 85.3796 61.6835 85.3794Z" fill="#3F3D56"/>
<path d="M35.6885 64.8996L27.9883 67.7931L29.0469 70.6103L36.7471 67.7167L35.6885 64.8996Z" fill="#6C63FF"/>
<path d="M39.1467 74.1022L31.4464 76.9957L32.505 79.8129L40.2053 76.9194L39.1467 74.1022Z" fill="#6C63FF"/>
<path d="M34.4553 83.7271C34.2513 83.7267 34.0523 83.6643 33.8846 83.548C33.717 83.4317 33.5887 83.2672 33.5168 83.0763L26.6712 64.8586C26.5779 64.6096 26.5873 64.3337 26.6972 64.0915C26.807 63.8493 27.0085 63.6606 27.2573 63.5668L33.6429 61.1673C33.7663 61.1209 33.8975 61.0993 34.0292 61.1037C34.1609 61.1081 34.2904 61.1383 34.4103 61.1928C34.5303 61.2472 34.6384 61.3248 34.7284 61.421C34.8184 61.5172 34.8885 61.6302 34.9349 61.7535L41.7805 79.9712C41.8737 80.2202 41.8644 80.4961 41.7545 80.7383C41.6446 80.9804 41.4432 81.1692 41.1944 81.263H41.1943L34.8087 83.6625C34.6958 83.7051 34.5761 83.7271 34.4553 83.7271ZM33.9962 61.5041C33.9237 61.5042 33.8519 61.5173 33.7841 61.5429L27.3985 63.9424C27.2492 63.9987 27.1283 64.1119 27.0624 64.2573C26.9965 64.4026 26.9908 64.5681 27.0468 64.7176L33.8924 82.9352C33.9202 83.0092 33.9623 83.077 34.0163 83.1347C34.0703 83.1924 34.1352 83.2389 34.2072 83.2716C34.2791 83.3043 34.3569 83.3224 34.4359 83.325C34.5149 83.3277 34.5936 83.3147 34.6676 83.2869L41.0532 80.8874C41.2025 80.8311 41.3234 80.7179 41.3893 80.5725C41.4552 80.4272 41.4608 80.2617 41.4049 80.1122L34.5592 61.8946C34.5161 61.7801 34.4391 61.6814 34.3386 61.6116C34.238 61.5419 34.1186 61.5044 33.9962 61.5041Z" fill="#3F3D56"/>
<path d="M151.797 86.1582C155.232 86.1582 158.017 83.3736 158.017 79.9386C158.017 76.5036 155.232 73.719 151.797 73.719C148.362 73.719 145.577 76.5036 145.577 79.9386C145.577 83.3736 148.362 86.1582 151.797 86.1582Z" fill="#2F2E41"/>
<path d="M124.166 108.322C124.46 108.436 124.775 108.484 125.089 108.463C125.403 108.442 125.709 108.352 125.985 108.2C126.261 108.048 126.5 107.837 126.686 107.582C126.872 107.328 126.999 107.035 127.06 106.726L144.161 95.9363L141.048 92.4319L125.21 104.147C124.683 104.08 124.151 104.208 123.713 104.507C123.275 104.807 122.962 105.256 122.833 105.771C122.704 106.286 122.769 106.83 123.015 107.3C123.26 107.77 123.67 108.134 124.166 108.322Z" fill="#FFB8B8"/>
<path d="M140.591 98.805C140.439 98.8052 140.29 98.7674 140.157 98.6951C140.024 98.6228 139.912 98.5182 139.83 98.391L137.849 95.3135C137.724 95.1192 137.679 94.8844 137.721 94.6575C137.764 94.4305 137.892 94.2286 138.08 94.0932L144.707 89.3035C145.028 89.0711 145.393 88.9055 145.78 88.8166C146.166 88.7277 146.567 88.7172 146.958 88.7858C147.348 88.8544 147.722 89.0007 148.055 89.216C148.388 89.4313 148.675 89.7112 148.898 90.0393C149.121 90.3673 149.276 90.7368 149.354 91.1259C149.432 91.5149 149.431 91.9157 149.351 92.3043C149.272 92.693 149.115 93.0618 148.89 93.3887C148.665 93.7157 148.377 93.9943 148.043 94.2081L141.075 98.6631C140.931 98.7559 140.762 98.8051 140.591 98.805Z" fill="#2F2E41"/>
<path d="M143.55 152.538L141.09 152.537L139.92 143.05L143.55 143.05L143.55 152.538Z" fill="#FFB8B8"/>
<path d="M139.333 151.835H144.077V154.821H136.346C136.346 154.429 136.423 154.041 136.574 153.678C136.724 153.316 136.944 152.987 137.221 152.71C137.498 152.432 137.828 152.212 138.19 152.062C138.552 151.912 138.941 151.835 139.333 151.835Z" fill="#2F2E41"/>
<path d="M155.033 150.699L152.664 151.364L148.973 142.546L152.468 141.564L155.033 150.699Z" fill="#FFB8B8"/>
<path d="M150.783 151.162L155.35 149.88L156.157 152.755L148.714 154.845C148.608 154.467 148.578 154.072 148.624 153.683C148.671 153.293 148.794 152.917 148.986 152.575C149.178 152.233 149.436 151.932 149.744 151.689C150.052 151.447 150.405 151.268 150.783 151.162Z" fill="#2F2E41"/>
<path d="M161.66 136.139L152.111 124.869L157.905 117.838C157.99 117.735 158.097 117.652 158.218 117.595C158.339 117.538 158.471 117.509 158.604 117.509C158.738 117.51 158.87 117.54 158.991 117.597C159.111 117.655 159.217 117.738 159.302 117.842L168.07 128.603L161.66 136.139Z" fill="#6C63FF"/>
<path d="M152.496 124.953C152.637 124.699 152.811 124.466 153.015 124.26L158.546 118.653C158.762 118.432 159.054 118.301 159.363 118.286C159.995 118.256 161.032 118.32 161.321 119.013L153.854 125.122L152.496 124.953Z" fill="#F2F2F2"/>
<path d="M161.992 138.523C161.566 138.51 161.152 138.379 160.796 138.145L160.77 138.117L152.024 124.741L153.475 124.601L161.253 118.534C161.351 118.458 161.464 118.402 161.585 118.371C161.706 118.341 161.831 118.335 161.954 118.355C162.077 118.375 162.195 118.421 162.299 118.488C162.404 118.556 162.493 118.645 162.562 118.748L171.064 131.617C171.194 131.815 171.241 132.057 171.195 132.291C171.149 132.524 171.012 132.729 170.816 132.863L162.588 138.41C162.399 138.486 162.196 138.524 161.992 138.523Z" fill="#6C63FF"/>
<path d="M158.899 129.373C158.816 129.373 158.735 129.353 158.662 129.315C158.59 129.276 158.528 129.22 158.482 129.152L157.477 127.66C157.403 127.549 157.376 127.414 157.401 127.283C157.427 127.153 157.503 127.038 157.613 126.963L162.767 123.493C162.878 123.419 163.013 123.392 163.144 123.417C163.274 123.443 163.389 123.519 163.464 123.629L164.468 125.122C164.543 125.232 164.57 125.367 164.544 125.498C164.519 125.628 164.443 125.744 164.332 125.818L159.178 129.288C159.095 129.344 158.998 129.373 158.899 129.373Z" fill="#3F3D56"/>
<path d="M139.531 151.103C139.256 151.102 138.992 150.998 138.79 150.812C138.588 150.627 138.463 150.372 138.439 150.099C138.002 145.126 135.806 120.064 135.565 115.003C135.297 109.379 139.977 100.483 140.024 100.394L140.057 100.332L142.37 100.621V100.89L144.572 101.149L148.833 101.562L150.053 116.473L150.592 126.585L155.66 147.239C155.718 147.468 155.683 147.71 155.563 147.913C155.443 148.116 155.249 148.264 155.021 148.325L150.61 149.528C150.381 149.589 150.137 149.558 149.93 149.442C149.723 149.325 149.57 149.132 149.504 148.904L145.352 134.317C145.332 134.246 145.286 134.185 145.225 134.146C145.163 134.106 145.089 134.09 145.016 134.102C144.944 134.113 144.878 134.15 144.831 134.207C144.784 134.263 144.759 134.335 144.761 134.408L145.201 148.632C145.203 148.778 145.175 148.923 145.119 149.058C145.064 149.193 144.981 149.315 144.876 149.417C143.865 150.367 141.194 150.873 139.692 151.091C139.638 151.099 139.584 151.103 139.531 151.103Z" fill="#2F2E41"/>
<path d="M152.784 88.4439C152.084 87.7143 147.472 88.7169 146.448 89.7918L139.439 101.249L151.031 103.406L153.592 88.8483L152.784 88.4439Z" fill="#6C63FF"/>
<path d="M149.745 117.553C149.496 117.553 149.248 117.512 149.012 117.431C148.338 117.2 147.513 116.958 146.558 116.713C142.378 115.638 140.903 112.197 142.172 106.484L142.204 106.34C143.396 100.921 145.643 95.7901 148.816 91.2393L149.308 90.5332C149.901 89.6813 150.732 89.0225 151.697 88.6388C152.661 88.2552 153.718 88.1635 154.734 88.3752C156.615 88.7632 157.625 89.3253 157.735 90.0461C157.953 91.4605 153.752 108.558 151.936 115.844C151.814 116.333 151.532 116.766 151.135 117.076C150.738 117.386 150.249 117.554 149.745 117.553L149.745 117.553Z" fill="#2F2E41"/>
<path d="M135.346 115.358C135.236 115.358 135.128 115.341 135.024 115.308L133.669 114.875C133.529 114.83 133.4 114.756 133.29 114.659C133.18 114.561 133.091 114.441 133.03 114.308C132.969 114.174 132.936 114.029 132.934 113.882C132.932 113.735 132.961 113.589 133.019 113.454L140.208 96.5798C141.585 93.3608 143.993 90.6911 147.054 88.9904H147.054C147.098 88.9659 147.147 88.9509 147.198 88.9462C147.248 88.9415 147.299 88.9472 147.347 88.963C147.391 88.977 147.432 89.0002 147.467 89.031C147.502 89.0619 147.529 89.0996 147.549 89.1418C148.394 91.0018 143.792 99.8042 140.095 106.877C138.201 110.498 136.566 113.626 136.38 114.518C136.33 114.756 136.2 114.969 136.012 115.122C135.824 115.275 135.588 115.358 135.346 115.358Z" fill="#2F2E41"/>
<path d="M157.587 119.203C157.839 119.015 158.047 118.773 158.197 118.495C158.346 118.218 158.432 117.911 158.45 117.596C158.467 117.282 158.416 116.967 158.299 116.675C158.181 116.382 158.002 116.119 157.772 115.903L157.715 95.6827L153.092 96.4583L154.604 116.101C154.267 116.511 154.093 117.03 154.114 117.56C154.135 118.09 154.35 118.594 154.717 118.977C155.085 119.359 155.58 119.593 156.109 119.635C156.638 119.677 157.164 119.523 157.587 119.203Z" fill="#FFB8B8"/>
<path d="M153.823 100.699C153.594 100.699 153.373 100.612 153.206 100.456C153.039 100.299 152.938 100.085 152.922 99.8562L152.385 91.6972C152.334 90.9122 152.597 90.1391 153.115 89.5474C153.633 88.9558 154.365 88.5939 155.15 88.5412C155.553 88.5147 155.958 88.5707 156.338 88.7058C156.719 88.8409 157.068 89.0523 157.364 89.327C157.66 89.6018 157.897 89.934 158.06 90.3035C158.223 90.6729 158.309 91.0718 158.313 91.4757L158.386 99.7457C158.387 99.9846 158.294 100.214 158.127 100.385C157.96 100.556 157.732 100.653 157.493 100.657L153.834 100.699L153.823 100.699Z" fill="#2F2E41"/>
<path d="M150.516 86.4746C153.237 86.4746 155.443 84.2684 155.443 81.5469C155.443 78.8254 153.237 76.6191 150.516 76.6191C147.794 76.6191 145.588 78.8254 145.588 81.5469C145.588 84.2684 147.794 86.4746 150.516 86.4746Z" fill="#FFB8B8"/>
<path d="M154.613 84.9949C154.98 83.8253 155.318 82.4462 154.59 81.4593C154.066 80.7481 153.125 80.4729 152.243 80.4334C151.36 80.394 150.475 80.5436 149.595 80.4736C148.714 80.4036 147.783 80.056 147.336 79.2943C146.756 78.3065 147.247 76.9461 148.18 76.2809C149.112 75.6157 150.344 75.5228 151.479 75.6777C152.916 75.8482 154.266 76.4522 155.35 77.4092C156.405 78.3828 157.093 79.7863 157.062 81.2216C157.031 82.6568 156.226 84.0861 154.944 84.7306" fill="#2F2E41"/>
<path d="M153.384 74.2274C152.204 73.864 151.66 72.3044 152.188 71.1884C152.715 70.0724 154.064 69.4881 155.289 69.6435C156.513 69.799 157.592 70.5846 158.336 71.5693C159.081 72.5541 159.529 73.7279 159.904 74.9042C160.278 76.0805 160.589 77.2822 161.1 78.4058C161.911 80.1322 163.162 81.6147 164.728 82.7045C166.293 83.7942 168.118 84.4527 170.018 84.6139C170.847 84.674 171.706 84.631 172.461 84.2847C173.216 83.9384 173.849 83.2403 173.934 82.414C174.364 85.3491 172.656 88.4683 169.952 89.688C167.248 90.9077 163.78 90.123 161.864 87.8583C159.992 85.645 159.702 82.5203 159.747 79.6218C159.759 78.827 159.789 78.0172 159.569 77.2532C159.349 76.4892 158.83 75.7628 158.073 75.5201C157.462 75.3244 156.801 75.4655 156.174 75.6043C155.548 75.7431 154.883 75.8767 154.277 75.6674C153.671 75.4582 153.183 74.7688 153.427 74.1757" fill="#2F2E41"/>
<path d="M172.88 155.176H119.913C119.86 155.176 119.809 155.155 119.771 155.117C119.733 155.08 119.712 155.028 119.712 154.975C119.712 154.922 119.733 154.871 119.771 154.833C119.809 154.796 119.86 154.775 119.913 154.775H172.88C172.933 154.775 172.984 154.796 173.022 154.833C173.059 154.871 173.081 154.922 173.081 154.975C173.081 155.028 173.059 155.08 173.022 155.117C172.984 155.155 172.933 155.176 172.88 155.176Z" fill="#CCCCCC"/>
</g>
<defs>
<clipPath id="clip0">
<rect width="148" height="119.176" fill="white" transform="translate(26 36)"/>
</clipPath>
</defs>
</svg>
