<svg width="54" height="35" viewBox="0 0 54 35" fill="none" xmlns="http://www.w3.org/2000/svg">
<g clip-path="url(#clip0)">
<path d="M35.0033 20.5846C36.685 20.5846 38.0553 21.9695 38.0553 23.6691V24.7393C38.0553 26.6278 37.6193 28.3274 36.7473 29.9011C35.8753 31.4749 34.6296 32.6709 32.948 33.6152C31.3286 34.5594 29.3355 35.0001 27.031 35.0001C24.7265 35.0001 22.7335 34.5594 21.1141 33.6152C19.4947 32.6709 18.249 31.4749 17.3771 29.9011C16.5051 28.3274 16.0691 26.6278 16.0691 24.7393V23.6691C16.0691 21.9695 17.4393 20.5846 19.121 20.5846C20.8027 20.5846 22.1729 21.9695 22.1729 23.6691V24.7393C22.1729 25.6835 22.422 26.5019 22.858 27.2573C23.294 28.0127 23.9168 28.6421 24.6642 29.0828C25.4117 29.5234 26.2213 29.7752 27.1556 29.7752C28.0899 29.7752 28.8995 29.5234 29.6469 29.0828C30.3944 28.6421 31.0172 28.0127 31.4532 27.2573C31.8892 26.5019 32.1383 25.6835 32.1383 24.7393V23.6691C31.9514 21.9695 33.3217 20.5846 35.0033 20.5846Z" fill="white"/>
<path d="M3.0519 23.2914C1.37024 23.2914 0 21.9694 0 20.2698V10.2608C0 8.3723 0.435986 6.67266 1.30796 5.09892C2.17993 3.52518 3.42561 2.32914 5.10727 1.38489C6.72664 0.440648 8.71972 0 11.0242 0C13.3287 0 15.3218 0.440648 16.9412 1.38489C18.5606 2.32914 19.8062 3.52518 20.6782 5.09892C21.5502 6.67266 21.9862 8.3723 21.9862 10.2608V11.3309C21.9862 13.0306 20.6159 14.4155 18.9343 14.4155C17.2526 14.4155 15.8824 13.0306 15.8824 11.3309V10.2608C15.8824 9.31655 15.6332 8.4982 15.1972 7.74281C14.7612 6.98741 14.1384 6.35791 13.391 5.91727C12.6436 5.47662 11.8339 5.22482 10.8997 5.22482C9.9654 5.22482 9.15571 5.47662 8.40831 5.91727C7.6609 6.35791 7.03806 6.98741 6.60208 7.74281C6.16609 8.4982 5.91696 9.31655 5.91696 10.2608V20.2698C6.04152 21.9694 4.67128 23.2914 3.0519 23.2914Z" fill="white"/>
<path d="M35.0036 14.4155C33.3219 14.4155 31.9517 13.0306 31.9517 11.3309V10.2608C31.9517 8.3723 32.3876 6.67266 33.2596 5.09892C34.1316 3.52518 35.3773 2.32914 37.0589 1.38489C38.6783 0.440648 40.6714 0 42.9759 0C45.2804 0 47.2735 0.440648 48.8928 1.38489C50.5122 2.32914 51.7579 3.52518 52.6299 5.09892C53.5018 6.67266 53.9378 8.3723 53.9378 10.2608V20.2698C53.9378 21.9694 52.5676 23.3543 50.8859 23.3543C49.2043 23.3543 47.834 21.9694 47.834 20.2698V10.2608C47.834 9.31655 47.5849 8.4982 47.1489 7.74281C46.7129 6.98741 46.0901 6.35791 45.3427 5.91727C44.5953 5.47662 43.7856 5.22482 42.8513 5.22482C41.9171 5.22482 41.1074 5.47662 40.36 5.91727C39.6126 6.35791 38.9897 6.98741 38.5537 7.74281C38.1178 8.4982 37.8686 9.31655 37.8686 10.2608V11.3309C38.0555 13.0306 36.6852 14.4155 35.0036 14.4155Z" fill="white"/>
</g>
<defs>
<clipPath id="clip0">
<rect width="54" height="35" fill="white"/>
</clipPath>
</defs>
</svg>
