<svg width="321" height="36" viewBox="0 0 321 36" fill="none" xmlns="http://www.w3.org/2000/svg">
<g clip-path="url(#clip0)">
<path d="M10.1977 28.0001C8.2684 28.0001 6.47692 27.5863 4.96104 26.6208C3.44517 25.7932 2.20491 24.5518 1.37807 23.0346C0.551227 21.5174 0 19.8622 0 17.9311C0 16.0001 0.41342 14.3449 1.37807 12.8277C2.34271 11.3105 3.44517 10.207 4.96104 9.24149C6.47692 8.41391 8.2684 7.86218 10.1977 7.86218C12.127 7.86218 13.9185 8.27598 15.4344 9.24149C16.9502 10.0691 18.1905 11.3105 19.0173 12.8277C19.8442 14.3449 20.3954 16.0001 20.3954 17.9311C20.3954 19.8622 19.982 21.5174 19.0173 23.0346C18.1905 24.5518 16.9502 25.7932 15.4344 26.6208C13.9185 27.5863 12.127 28.0001 10.1977 28.0001ZM10.1977 23.7242C11.3002 23.7242 12.127 23.4484 12.9538 23.0346C13.6429 22.4829 14.3319 21.9311 14.7453 20.9656C15.1587 20.138 15.2965 19.1725 15.2965 18.207C15.2965 17.1036 15.1587 16.276 14.7453 15.4484C14.3319 14.6208 13.6429 13.7932 12.9538 13.2415C12.127 12.6898 11.3002 12.5518 10.1977 12.5518C9.09524 12.5518 8.2684 12.8277 7.44156 13.2415C6.75253 13.7932 6.0635 14.3449 5.65008 15.3105C5.23666 16.138 5.09885 17.1036 5.09885 18.0691C5.09885 19.1725 5.23666 20.0001 5.65008 20.8277C6.0635 21.6553 6.61472 22.3449 7.44156 22.8967C8.2684 23.4484 9.23305 23.7242 10.1977 23.7242Z" fill="#3A9CED"/>
<path d="M38.1724 8.96559C39.4126 9.51731 40.5151 10.207 41.3419 11.0346C42.1688 12.0001 42.8578 13.1035 43.2712 14.3449C43.6846 15.5863 43.9602 16.9656 43.9602 18.4828C43.9602 20.4139 43.5468 22.069 42.8578 23.4483C42.1688 24.8277 41.0663 25.9311 39.6882 26.7587C38.3102 27.5863 36.6565 28.0001 34.865 28.0001C34.0382 28.0001 33.3491 27.8621 32.5223 27.7242C31.8333 27.4483 31.1442 27.1725 30.593 26.7587C30.0418 26.3449 29.4905 25.7932 29.0771 25.2415V33.1748C29.0771 34.5828 27.9357 35.7242 26.5277 35.7242V35.7242C25.1197 35.7242 23.9783 34.5828 23.9783 33.1748V18.4828C23.9783 16.4139 24.3917 14.6208 25.2185 13.1035C26.0454 11.5863 27.1478 10.3449 28.6637 9.51731C30.1796 8.68973 31.9711 8.27593 33.9004 8.27593C35.554 8.138 36.9321 8.41386 38.1724 8.96559ZM31.4198 13.2415C30.7308 13.7932 30.1796 14.3449 29.7662 15.3104C29.3527 16.138 29.2149 17.1035 29.2149 18.069C29.2149 19.1725 29.3527 20.0001 29.7662 20.8277C30.1796 21.6552 30.7308 22.3449 31.4198 22.8966C32.1089 23.4483 33.0735 23.5863 34.0382 23.5863C35.0028 23.5863 35.9675 23.3104 36.6565 22.8966C37.3455 22.3449 37.8967 21.7932 38.3102 20.8277C38.7236 20.0001 38.8614 19.0346 38.8614 18.069C38.8614 16.9656 38.7236 16.138 38.3102 15.3104C37.8967 14.4828 37.3455 13.7932 36.6565 13.2415C35.9675 12.6897 35.0028 12.5518 34.0382 12.5518C32.9357 12.5518 32.1089 12.8277 31.4198 13.2415Z" fill="#3A9CED"/>
<path d="M57.1896 27.5862C54.9847 27.5862 53.1932 27.1724 51.5395 26.3448C49.8858 25.5172 48.6456 24.4137 47.8187 22.8965C46.9919 21.5172 46.4407 19.862 46.4407 18.0689C46.4407 15.9999 46.8541 14.3448 47.6809 12.8275C48.5078 11.3103 49.6102 10.2068 50.9883 9.37926C52.3664 8.55167 54.02 8.13788 55.8115 8.13788C57.8786 8.13788 59.6701 8.55167 61.0482 9.51719C62.4262 10.3448 63.3909 11.5862 63.9421 13.1034C64.4934 14.6206 64.9068 16.2758 64.9068 18.0689C64.9068 18.3448 64.9068 18.6206 64.9068 18.8965C64.9068 19.1724 64.9068 19.4482 64.769 19.7241H51.9529C52.0907 20.5517 52.5042 21.1034 52.9176 21.6551C53.4688 22.2068 54.02 22.6206 54.7091 22.7586C55.3981 23.0344 56.2249 23.1724 57.1896 23.1724H60.2193C61.4382 23.1724 62.4262 24.1604 62.4262 25.3793V25.3793C62.4262 26.5981 61.4382 27.5862 60.2193 27.5862H57.1896ZM51.9529 16.2758H59.8079C59.8079 15.862 59.6701 15.3103 59.5323 14.8965C59.3945 14.4827 59.2567 14.0689 58.9811 13.7931C58.7055 13.5172 58.4299 13.2413 58.1542 12.9655C57.8786 12.6896 57.4652 12.5517 57.0518 12.4137C56.914 12.4137 56.5006 12.4137 55.9493 12.4137C55.2603 12.4137 54.8469 12.5517 54.2957 12.6896C53.7444 12.9655 53.4688 13.2413 53.0554 13.5172C52.7798 13.931 52.5042 14.3448 52.2286 14.7586C52.0907 15.3103 52.0907 15.862 51.9529 16.2758Z" fill="#3A9CED"/>
<path d="M98.5318 24.4139C99.9098 24.4139 101.012 25.5174 101.012 26.8967V27.7243C101.012 29.2415 100.599 30.6208 99.9098 31.8622C99.2208 33.1036 98.1184 34.0691 96.8781 34.8967C95.5 35.5864 93.9841 36.0001 92.0549 36.0001C90.1256 36.0001 88.6097 35.5864 87.2316 34.8967C85.8535 34.207 84.8889 33.1036 84.1999 31.8622C83.5108 30.6208 83.0974 29.2415 83.0974 27.7243V26.8967C83.0974 25.5174 84.1999 24.4139 85.5779 24.4139C86.956 24.4139 88.0585 25.5174 88.0585 26.8967V27.7243C88.0585 28.4139 88.1963 29.1036 88.6097 29.7932C89.0231 30.345 89.4365 30.8967 90.1256 31.3105C90.6768 31.7243 91.3658 31.8622 92.1927 31.8622C92.8817 31.8622 93.5707 31.7243 94.2598 31.3105C94.811 30.8967 95.3622 30.4829 95.7756 29.7932C96.1891 29.2415 96.3269 28.5519 96.3269 27.7243V26.8967C96.0512 25.5174 97.1537 24.4139 98.5318 24.4139Z" fill="#3A9CED"/>
<path d="M72.6241 26.6208C71.246 26.6208 70.1436 25.5174 70.1436 24.138V16.138C70.1436 14.6208 70.557 13.2415 71.246 12.0001C71.935 10.7587 73.0375 9.79322 74.2778 8.96563C75.6558 8.27598 77.1717 7.86218 79.101 7.86218C81.0303 7.86218 82.5462 8.27598 83.9242 8.96563C85.3023 9.65529 86.2669 10.7587 86.956 12.0001C87.645 13.2415 88.0584 14.6208 88.0584 16.138V16.9656C88.0584 18.3449 86.956 19.4484 85.5779 19.4484C84.1998 19.4484 83.0974 18.3449 83.0974 16.9656V16.138C83.0974 15.4484 82.9596 14.7587 82.5462 14.0691C82.1327 13.5174 81.7193 12.9656 81.0303 12.5518C80.4791 12.138 79.79 12.0001 78.9632 12.0001C78.2742 12.0001 77.5851 12.138 76.8961 12.5518C76.3449 12.9656 75.7936 13.3794 75.3802 14.0691C74.9668 14.6208 74.829 15.3105 74.829 16.138V24.138C75.1046 25.5174 74.0021 26.6208 72.6241 26.6208Z" fill="#3A9CED"/>
<path d="M98.5318 19.5864C97.1537 19.5864 96.0513 18.4829 96.0513 17.1036V16.276C96.0513 14.7588 96.4647 13.3795 97.1537 12.1381C97.8428 10.8967 98.9452 9.93122 100.185 9.10363C101.564 8.41398 103.079 8.00018 105.009 8.00018C106.938 8.00018 108.454 8.41398 109.832 9.10363C111.21 9.79329 112.175 10.8967 112.864 12.1381C113.553 13.3795 113.966 14.7588 113.966 16.276V24.276C113.966 25.6554 112.864 26.7588 111.486 26.7588C110.108 26.7588 109.005 25.6554 109.005 24.276V16.276C109.005 15.5864 108.867 14.8967 108.454 14.2071C108.04 13.6554 107.627 13.1036 106.938 12.6898C106.387 12.276 105.698 12.1381 104.871 12.1381C104.182 12.1381 103.493 12.276 102.804 12.6898C102.253 13.1036 101.701 13.5174 101.288 14.2071C100.875 14.7588 100.737 15.4485 100.737 16.276V17.1036C101.012 18.4829 99.9099 19.5864 98.5318 19.5864Z" fill="#3A9CED"/>
<path d="M128.298 27.5862C126.093 27.5862 124.302 27.1724 122.648 26.3448C120.994 25.5172 119.754 24.4137 118.927 22.8965C118.1 21.5172 117.549 19.862 117.549 18.0689C117.549 15.9999 117.962 14.3448 118.789 12.8275C119.616 11.3103 120.719 10.2068 122.097 9.37926C123.475 8.55167 125.128 8.13788 126.92 8.13788C128.987 8.13788 130.779 8.55167 132.157 9.51719C133.535 10.3448 134.499 11.5862 135.051 13.1034C135.602 14.6206 136.015 16.2758 136.015 18.0689C136.015 18.3448 136.015 18.6206 136.015 18.8965C136.015 19.1724 136.015 19.4482 135.877 19.7241H123.061C123.199 20.5517 123.613 21.1034 124.026 21.6551C124.577 22.2068 125.128 22.6206 125.817 22.7586C126.507 23.0344 127.333 23.1724 128.298 23.1724H131.466C132.684 23.1724 133.672 24.1604 133.672 25.3793V25.3793C133.672 26.5981 132.684 27.5862 131.466 27.5862H128.298ZM123.061 16.4137H130.916C130.916 15.9999 130.779 15.4482 130.641 15.0344C130.503 14.6206 130.365 14.2068 130.089 13.931C129.814 13.6551 129.538 13.3793 129.263 13.1034C128.987 12.8275 128.574 12.6896 128.16 12.5517C128.022 12.5517 127.471 12.4137 127.058 12.4137C126.369 12.4137 125.955 12.5517 125.404 12.6896C124.853 12.9655 124.577 13.2413 124.164 13.5172C123.888 13.931 123.613 14.3448 123.337 14.7586C123.199 15.4482 123.061 15.862 123.061 16.4137Z" fill="#3A9CED"/>
<path d="M148.969 28.1378C147.04 28.1378 145.386 27.724 144.008 27.0343C142.63 26.2068 141.528 25.2412 140.839 23.9999C140.149 22.7585 139.736 21.2412 139.736 19.724V11.2389C139.736 9.83093 140.877 8.68951 142.286 8.68951V8.68951C143.694 8.68951 144.835 9.83093 144.835 11.2389V19.5861C144.835 20.4136 144.973 21.1033 145.386 21.655C145.8 22.3447 146.213 22.7585 146.902 23.1723C147.591 23.5861 148.28 23.724 148.969 23.724C149.796 23.724 150.485 23.5861 151.036 23.1723C151.725 22.7585 152.139 22.3447 152.552 21.655C152.966 20.9654 153.103 20.2757 153.103 19.5861V11.2389C153.103 9.83093 154.245 8.68951 155.653 8.68951V8.68951C157.061 8.68951 158.202 9.83093 158.202 11.2389V19.5861C158.202 21.1033 157.789 22.6205 157.1 23.8619C156.411 25.1033 155.308 26.2068 153.93 26.8964C152.552 27.724 150.898 28.1378 148.969 28.1378Z" fill="#3A9CED"/>
<path d="M165.23 27.5861C163.86 27.5861 162.75 26.4755 162.75 25.1055V14.0688C162.75 12.4137 163.163 11.0343 164.128 10.0688C165.092 9.10331 166.333 8.68951 168.124 8.68951H171.154C172.373 8.68951 173.361 9.67758 173.361 10.8964V10.8964C173.361 12.1152 172.373 13.1033 171.154 13.1033H168.951C168.675 13.1033 168.4 13.2412 168.124 13.3792C167.849 13.655 167.711 13.9309 167.711 14.2068V25.1055C167.711 26.4755 166.6 27.5861 165.23 27.5861V27.5861Z" fill="#3A9CED"/>
<path d="M185.35 28.1378C183.421 28.1378 181.629 27.724 180.113 26.7585C178.598 25.9309 177.357 24.6895 176.53 23.1723C175.704 21.6551 175.152 19.9999 175.152 18.0688C175.152 16.1378 175.566 14.4826 176.53 12.9654C177.357 11.4482 178.598 10.3447 180.113 9.37919C181.629 8.5516 183.421 7.99988 185.35 7.99988C187.279 7.99988 189.071 8.41367 190.587 9.37919C192.103 10.2068 193.343 11.4482 194.17 12.9654C194.997 14.4826 195.548 16.1378 195.548 18.0688C195.548 19.9999 195.134 21.6551 194.17 23.1723C193.205 24.6895 192.103 25.9309 190.587 26.7585C189.071 27.5861 187.279 28.1378 185.35 28.1378ZM185.35 23.724C186.452 23.724 187.279 23.4482 188.106 23.0344C188.795 22.4826 189.484 21.9309 189.898 20.9654C190.311 20.1378 190.449 19.1723 190.449 18.2068C190.449 17.1033 190.311 16.2757 189.898 15.4482C189.484 14.6206 188.933 13.9309 188.106 13.3792C187.279 12.8275 186.452 12.6895 185.35 12.6895C184.248 12.6895 183.421 12.9654 182.594 13.3792C181.905 13.9309 181.216 14.4826 180.802 15.4482C180.389 16.2757 180.251 17.2413 180.251 18.2068C180.251 19.3102 180.389 20.1378 180.802 20.9654C181.216 21.793 181.767 22.4826 182.594 23.0344C183.421 23.4482 184.248 23.724 185.35 23.724Z" fill="#3A9CED"/>
<path d="M199.406 25.5861C199.406 24.253 200.487 23.1723 201.82 23.1723H208.639C208.915 23.1723 209.19 23.1723 209.466 23.0344C209.742 22.8965 209.879 22.7585 210.017 22.4827C210.155 22.2068 210.155 22.0689 210.155 21.793C210.155 21.5172 210.017 21.2413 210.017 20.9654C209.879 20.6896 209.742 20.5517 209.466 20.4137C209.19 20.2758 208.915 20.2758 208.639 20.2758H205.056C203.816 20.2758 202.714 20.1379 201.749 19.7241C200.784 19.3103 199.957 18.7585 199.406 17.931C198.855 17.1034 198.579 15.9999 198.579 14.6206C198.579 13.5172 198.855 12.5517 199.406 11.7241C199.957 10.8965 200.646 10.2068 201.611 9.6551C202.576 9.10338 203.54 8.82751 204.643 8.82751H211.256C212.474 8.82751 213.462 9.81558 213.462 11.0344V11.0344C213.462 12.2532 212.474 13.2413 211.256 13.2413H205.056C204.643 13.2413 204.367 13.3792 204.092 13.6551C203.816 13.931 203.678 14.2068 203.678 14.6206C203.678 15.0344 203.816 15.3103 204.092 15.5861C204.367 15.862 204.643 15.9999 205.056 15.9999H208.639C210.017 15.9999 211.12 16.2758 212.222 16.5517C213.187 16.9654 214.014 17.6551 214.565 18.4827C215.116 19.3103 215.392 20.5517 215.392 21.931C215.392 23.0344 215.116 23.9999 214.565 24.9654C214.014 25.931 213.325 26.6206 212.36 27.1723C211.395 27.7241 210.431 27.9999 209.328 27.9999H201.82C200.487 27.9999 199.406 26.9192 199.406 25.5861V25.5861Z" fill="#3A9CED"/>
<path d="M228.208 27.5864C226.279 27.5864 224.487 27.1726 222.971 26.345C221.455 25.5174 220.215 24.414 219.388 22.8967C218.561 21.3795 218.01 19.8622 218.01 18.0691C218.01 16.276 218.424 14.6208 219.388 13.2415C220.215 11.8622 221.455 10.6208 222.971 9.79326C224.487 8.96567 226.279 8.55188 228.208 8.55188H228.344C229.563 8.55188 230.551 9.53994 230.551 10.7588V10.7588C230.551 11.9776 229.563 12.9657 228.344 12.9657H228.208C227.106 12.9657 226.279 13.2415 225.452 13.6553C224.625 14.0691 224.074 14.7588 223.66 15.4484C223.247 16.276 223.109 17.1036 223.109 18.0691C223.109 19.0346 223.247 19.8622 223.66 20.6898C224.074 21.5174 224.625 22.0691 225.452 22.4829C226.141 22.8967 227.106 23.1726 228.208 23.1726H228.344C229.563 23.1726 230.551 24.1606 230.551 25.3795V25.3795C230.551 26.5983 229.563 27.5864 228.344 27.5864H228.208Z" fill="#3A9CED"/>
<path d="M236.752 6.34483C235.925 6.34483 235.098 6.06897 234.547 5.37931C233.858 4.68966 233.583 4 233.583 3.17241C233.583 2.34483 233.858 1.51724 234.547 0.965517C235.236 0.275862 235.925 0 236.752 0C237.579 0 238.406 0.275862 238.957 0.965517C239.646 1.65517 239.922 2.34483 239.922 3.17241C239.922 4 239.646 4.82759 238.957 5.37931C238.406 6.06897 237.579 6.34483 236.752 6.34483ZM236.683 27.5862C235.275 27.5862 234.134 26.4448 234.134 25.0368V11.2391C234.134 9.83107 235.275 8.68966 236.683 8.68966V8.68966C238.091 8.68966 239.233 9.83107 239.233 11.2391V25.0368C239.233 26.4448 238.091 27.5862 236.683 27.5862V27.5862Z" fill="#3A9CED"/>
<path d="M253.564 27.5862C251.359 27.5862 249.568 27.1724 247.914 26.3448C246.261 25.5172 245.02 24.4137 244.193 22.8965C243.367 21.5172 242.815 19.862 242.815 18.0689C242.815 15.9999 243.229 14.3448 244.056 12.8275C244.883 11.3103 245.985 10.2068 247.363 9.37926C248.741 8.55167 250.395 8.13788 252.186 8.13788C254.253 8.13788 256.045 8.55167 257.423 9.51719C258.801 10.3448 259.766 11.5862 260.317 13.1034C260.868 14.6206 261.282 16.2758 261.282 18.0689C261.282 18.3448 261.282 18.6206 261.282 18.8965C261.282 19.1724 261.282 19.4482 261.144 19.7241H248.328C248.466 20.5517 248.879 21.1034 249.292 21.6551C249.844 22.2068 250.395 22.6206 251.084 22.7586C251.773 23.0344 252.6 23.1724 253.564 23.1724H256.594C257.813 23.1724 258.801 24.1604 258.801 25.3793V25.3793C258.801 26.5981 257.813 27.5862 256.594 27.5862H253.564ZM248.328 16.4137H256.183C256.183 15.9999 256.045 15.4482 255.907 15.0344C255.769 14.6206 255.631 14.2068 255.356 13.931C255.08 13.6551 254.805 13.3793 254.529 13.1034C254.253 12.8275 253.84 12.6896 253.427 12.5517C253.013 12.4137 252.6 12.4137 252.186 12.4137C251.497 12.4137 251.084 12.5517 250.533 12.6896C249.981 12.9655 249.706 13.2413 249.292 13.5172C249.017 13.931 248.741 14.3448 248.466 14.7586C248.603 15.4482 248.466 15.862 248.328 16.4137Z" fill="#3A9CED"/>
<path d="M267.552 27.5862C266.144 27.5862 265.002 26.4447 265.002 25.0367V16.6896C265.002 15.1724 265.416 13.6551 266.105 12.4137C266.794 11.1724 267.896 10.0689 269.274 9.37927C270.652 8.55168 272.306 8.27582 274.235 8.27582C276.165 8.27582 277.818 8.68961 279.196 9.37927C280.574 10.2069 281.677 11.1724 282.366 12.4137C283.055 13.6551 283.468 15.1724 283.468 16.6896V25.0367C283.468 26.4447 282.327 27.5862 280.919 27.5862V27.5862C279.511 27.5862 278.369 26.4447 278.369 25.0367V16.6896C278.369 15.862 278.232 15.1724 277.818 14.6206C277.405 13.931 276.991 13.5172 276.302 13.1034C275.613 12.6896 274.924 12.5517 274.235 12.5517C273.408 12.5517 272.719 12.6896 272.168 13.1034C271.479 13.5172 271.066 13.931 270.652 14.6206C270.239 15.3103 270.101 16 270.101 16.6896V25.0367C270.101 26.4447 268.96 27.5862 267.552 27.5862V27.5862Z" fill="#3A9CED"/>
<path d="M297.387 27.5864C295.458 27.5864 293.666 27.1726 292.15 26.345C290.634 25.5174 289.394 24.414 288.567 22.8967C287.74 21.3795 287.189 19.8622 287.189 18.0691C287.189 16.276 287.603 14.6208 288.567 13.2415C289.394 11.8622 290.634 10.6208 292.15 9.79326C293.666 8.96567 295.458 8.55188 297.387 8.55188H297.523C298.742 8.55188 299.73 9.53994 299.73 10.7588V10.7588C299.73 11.9776 298.742 12.9657 297.523 12.9657H297.387C296.284 12.9657 295.458 13.2415 294.631 13.6553C293.942 14.0691 293.253 14.7588 292.839 15.4484C292.426 16.276 292.288 17.1036 292.288 18.0691C292.288 19.0346 292.426 19.8622 292.839 20.6898C293.253 21.5174 293.804 22.0691 294.631 22.4829C295.32 22.8967 296.284 23.1726 297.387 23.1726H297.523C298.742 23.1726 299.73 24.1606 299.73 25.3795V25.3795C299.73 26.5983 298.742 27.5864 297.523 27.5864H297.387Z" fill="#3A9CED"/>
<path d="M312.821 27.5862C310.616 27.5862 308.825 27.1724 307.171 26.3448C305.517 25.5172 304.277 24.4137 303.45 22.8965C302.623 21.5172 302.072 19.862 302.072 18.0689C302.072 15.9999 302.486 14.3448 303.313 12.8275C304.139 11.3103 305.242 10.2068 306.62 9.37926C307.998 8.55167 309.652 8.13788 311.443 8.13788C313.51 8.13788 315.302 8.55167 316.68 9.51719C318.058 10.3448 319.022 11.5862 319.574 13.1034C320.125 14.6206 320.538 16.2758 320.538 18.0689C320.538 18.3448 320.538 18.6206 320.538 18.8965C320.538 19.1724 320.538 19.4482 320.401 19.7241H307.585C307.722 20.5517 308.136 21.1034 308.549 21.6551C309.1 22.2068 309.652 22.6206 310.341 22.7586C311.03 23.0344 311.857 23.1724 312.821 23.1724H315.851C317.07 23.1724 318.058 24.1604 318.058 25.3793V25.3793C318.058 26.5981 317.07 27.5862 315.851 27.5862H312.821ZM307.585 16.4137H315.439C315.439 15.9999 315.302 15.4482 315.164 15.0344C315.026 14.6206 314.888 14.2068 314.613 13.931C314.337 13.6551 314.061 13.3793 313.786 13.1034C313.51 12.8275 313.097 12.6896 312.683 12.5517C312.27 12.4137 311.857 12.4137 311.443 12.4137C310.754 12.4137 310.341 12.5517 309.789 12.6896C309.238 12.9655 308.963 13.2413 308.549 13.5172C308.274 13.931 307.998 14.3448 307.722 14.7586C307.722 15.4482 307.722 15.862 307.585 16.4137Z" fill="#3A9CED"/>
</g>
<defs>
<clipPath id="clip0">
<rect width="320.538" height="36" fill="white"/>
</clipPath>
</defs>
</svg>
