<svg width="88" height="89" viewBox="0 0 88 89" fill="none" xmlns="http://www.w3.org/2000/svg">
<g filter="url(#filter0_ddd)">
<circle cx="44" cy="41" r="30" fill="#E8F5FF"/>
</g>
<path d="M50.3098 43.5682C51.5737 43.5682 52.6037 44.6156 52.6037 45.9011V46.7104C52.6037 48.1387 52.276 49.4241 51.6206 50.6144C50.9652 51.8046 50.0289 52.7092 48.7649 53.4233C47.5477 54.1374 46.0496 54.4707 44.3175 54.4707C42.5853 54.4707 41.0873 54.1374 39.8701 53.4233C38.6529 52.7092 37.7166 51.8046 37.0612 50.6144C36.4058 49.4241 36.0781 48.1387 36.0781 46.7104V45.9011C36.0781 44.6156 37.108 43.5682 38.372 43.5682C39.636 43.5682 40.666 44.6156 40.666 45.9011V46.7104C40.666 47.4246 40.8532 48.0435 41.1809 48.6148C41.5086 49.1861 41.9768 49.6622 42.5385 49.9954C43.1003 50.3287 43.7089 50.5191 44.4111 50.5191C45.1133 50.5191 45.7219 50.3287 46.2837 49.9954C46.8455 49.6622 47.3136 49.1861 47.6413 48.6148C47.969 48.0435 48.1563 47.4246 48.1563 46.7104V45.9011C48.0158 44.6156 49.0458 43.5682 50.3098 43.5682Z" fill="#3A9CED"/>
<path d="M26.2939 45.6153C25.0299 45.6153 24 44.6155 24 43.3301V35.7603C24 34.332 24.3277 33.0466 24.9831 31.8563C25.6385 30.6661 26.5748 29.7615 27.8388 29.0474C29.056 28.3333 30.554 28 32.2862 28C34.0183 28 35.5164 28.3333 36.7336 29.0474C37.9507 29.7615 38.887 30.6661 39.5424 31.8563C40.1978 33.0466 40.5255 34.332 40.5255 35.7603V36.5696C40.5255 37.8551 39.4956 38.9025 38.2316 38.9025C36.9676 38.9025 35.9377 37.8551 35.9377 36.5696V35.7603C35.9377 35.0461 35.7505 34.4272 35.4228 33.8559C35.0951 33.2846 34.6269 32.8085 34.0651 32.4752C33.5034 32.142 32.8948 31.9515 32.1926 31.9515C31.4903 31.9515 30.8817 32.142 30.32 32.4752C29.7582 32.8085 29.29 33.2846 28.9623 33.8559C28.6346 34.4272 28.4474 35.0461 28.4474 35.7603V43.3301C28.541 44.6155 27.5111 45.6153 26.2939 45.6153Z" fill="#3A9CED"/>
<path d="M50.3098 38.9025C49.0458 38.9025 48.0159 37.8551 48.0159 36.5696V35.7603C48.0159 34.332 48.3436 33.0466 48.999 31.8563C49.6544 30.6661 50.5907 29.7615 51.8547 29.0474C53.0718 28.3333 54.5699 28 56.302 28C58.0342 28 59.5323 28.3333 60.7494 29.0474C61.9666 29.7615 62.9029 30.6661 63.5583 31.8563C64.2137 33.0466 64.5414 34.332 64.5414 35.7603V43.3301C64.5414 44.6155 63.5115 45.6629 62.2475 45.6629C60.9835 45.6629 59.9536 44.6155 59.9536 43.3301V35.7603C59.9536 35.0461 59.7663 34.4272 59.4386 33.8559C59.1109 33.2846 58.6428 32.8085 58.081 32.4752C57.5192 32.142 56.9106 31.9515 56.2084 31.9515C55.5062 31.9515 54.8976 32.142 54.3358 32.4752C53.7741 32.8085 53.3059 33.2846 52.9782 33.8559C52.6505 34.4272 52.4633 35.0461 52.4633 35.7603V36.5696C52.6037 37.8551 51.5738 38.9025 50.3098 38.9025Z" fill="#3A9CED"/>
<defs>
<filter id="filter0_ddd" x="0" y="0" width="88" height="89" filterUnits="userSpaceOnUse" color-interpolation-filters="sRGB">
<feFlood flood-opacity="0" result="BackgroundImageFix"/>
<feColorMatrix in="SourceAlpha" type="matrix" values="0 0 0 0 0 0 0 0 0 0 0 0 0 0 0 0 0 0 127 0"/>
<feOffset dy="5"/>
<feGaussianBlur stdDeviation="2.5"/>
<feColorMatrix type="matrix" values="0 0 0 0 0.0068 0 0 0 0 0.0102133 0 0 0 0 0.0132 0 0 0 0.04 0"/>
<feBlend mode="normal" in2="BackgroundImageFix" result="effect1_dropShadow"/>
<feColorMatrix in="SourceAlpha" type="matrix" values="0 0 0 0 0 0 0 0 0 0 0 0 0 0 0 0 0 0 127 0"/>
<feOffset dy="3"/>
<feGaussianBlur stdDeviation="7"/>
<feColorMatrix type="matrix" values="0 0 0 0 0.0068 0 0 0 0 0.0102133 0 0 0 0 0.0132 0 0 0 0.02 0"/>
<feBlend mode="normal" in2="effect1_dropShadow" result="effect2_dropShadow"/>
<feColorMatrix in="SourceAlpha" type="matrix" values="0 0 0 0 0 0 0 0 0 0 0 0 0 0 0 0 0 0 127 0"/>
<feOffset dy="8"/>
<feGaussianBlur stdDeviation="5"/>
<feColorMatrix type="matrix" values="0 0 0 0 0.0068 0 0 0 0 0.0102325 0 0 0 0 0.0132 0 0 0 0.03 0"/>
<feBlend mode="normal" in2="effect2_dropShadow" result="effect3_dropShadow"/>
<feBlend mode="normal" in="SourceGraphic" in2="effect3_dropShadow" result="shape"/>
</filter>
</defs>
</svg>
