<svg width="88" height="89" viewBox="0 0 88 89" fill="none" xmlns="http://www.w3.org/2000/svg">
<g filter="url(#filter0_ddd)">
<circle cx="44" cy="41" r="30" fill="#E8F5FF"/>
</g>
<path d="M54.898 38.98C56.162 38.98 57.1919 40.0274 57.1919 41.3128V42.1222C57.1919 43.5504 56.8642 44.8359 56.2088 46.0261C55.5534 47.2163 54.6171 48.1209 53.3531 48.835C52.1359 49.5492 50.6379 49.8824 48.9057 49.8824C47.1736 49.8824 45.6755 49.5492 44.4584 48.835C43.2412 48.1209 42.3049 47.2163 41.6495 46.0261C40.9941 44.8359 40.6664 43.5504 40.6664 42.1222V41.3128C40.6664 40.0274 41.6963 38.98 42.9603 38.98C44.2243 38.98 45.2542 40.0274 45.2542 41.3128V42.1222C45.2542 42.8363 45.4415 43.4552 45.7692 44.0265C46.0969 44.5978 46.565 45.0739 47.1268 45.4072C47.6886 45.7405 48.2972 45.9309 48.9994 45.9309C49.7016 45.9309 50.3102 45.7405 50.872 45.4072C51.4337 45.0739 51.9019 44.5978 52.2296 44.0265C52.5573 43.4552 52.7445 42.8363 52.7445 42.1222V41.3128C52.6041 40.0274 53.634 38.98 54.898 38.98Z" fill="#3A9CED"/>
<path d="M30.8822 41.0271C29.6182 41.0271 28.5883 40.0273 28.5883 38.7418V31.172C28.5883 29.7437 28.916 28.4583 29.5714 27.2681C30.2268 26.0778 31.1631 25.1733 32.4271 24.4591C33.6442 23.745 35.1423 23.4117 36.8744 23.4117C38.6066 23.4117 40.1046 23.745 41.3218 24.4591C42.539 25.1733 43.4753 26.0778 44.1307 27.2681C44.7861 28.4583 45.1138 29.7437 45.1138 31.172V31.9814C45.1138 33.2668 44.0839 34.3142 42.8199 34.3142C41.5559 34.3142 40.526 33.2668 40.526 31.9814V31.172C40.526 30.4579 40.3387 29.839 40.011 29.2676C39.6833 28.6963 39.2152 28.2202 38.6534 27.887C38.0916 27.5537 37.483 27.3633 36.7808 27.3633C36.0786 27.3633 35.47 27.5537 34.9082 27.887C34.3465 28.2202 33.8783 28.6963 33.5506 29.2676C33.2229 29.839 33.0356 30.4579 33.0356 31.172V38.7418C33.1293 40.0273 32.0994 41.0271 30.8822 41.0271Z" fill="#3A9CED"/>
<path d="M54.898 34.3142C53.634 34.3142 52.6041 33.2668 52.6041 31.9814V31.172C52.6041 29.7437 52.9318 28.4583 53.5872 27.2681C54.2426 26.0778 55.1789 25.1733 56.4429 24.4591C57.6601 23.745 59.1582 23.4117 60.8903 23.4117C62.6224 23.4117 64.1205 23.745 65.3377 24.4591C66.5549 25.1733 67.4912 26.0778 68.1466 27.2681C68.802 28.4583 69.1297 29.7437 69.1297 31.172V38.7418C69.1297 40.0273 68.0997 41.0747 66.8358 41.0747C65.5718 41.0747 64.5418 40.0273 64.5418 38.7418V31.172C64.5418 30.4579 64.3546 29.839 64.0269 29.2676C63.6992 28.6963 63.231 28.2202 62.6693 27.887C62.1075 27.5537 61.4989 27.3633 60.7967 27.3633C60.0945 27.3633 59.4859 27.5537 58.9241 27.887C58.3623 28.2202 57.8942 28.6963 57.5665 29.2676C57.2388 29.839 57.0515 30.4579 57.0515 31.172V31.9814C57.192 33.2668 56.162 34.3142 54.898 34.3142Z" fill="#3A9CED"/>
<defs>
<filter id="filter0_ddd" x="0" y="0" width="88" height="89" filterUnits="userSpaceOnUse" color-interpolation-filters="sRGB">
<feFlood flood-opacity="0" result="BackgroundImageFix"/>
<feColorMatrix in="SourceAlpha" type="matrix" values="0 0 0 0 0 0 0 0 0 0 0 0 0 0 0 0 0 0 127 0"/>
<feOffset dy="5"/>
<feGaussianBlur stdDeviation="2.5"/>
<feColorMatrix type="matrix" values="0 0 0 0 0.0068 0 0 0 0 0.0102133 0 0 0 0 0.0132 0 0 0 0.04 0"/>
<feBlend mode="normal" in2="BackgroundImageFix" result="effect1_dropShadow"/>
<feColorMatrix in="SourceAlpha" type="matrix" values="0 0 0 0 0 0 0 0 0 0 0 0 0 0 0 0 0 0 127 0"/>
<feOffset dy="3"/>
<feGaussianBlur stdDeviation="7"/>
<feColorMatrix type="matrix" values="0 0 0 0 0.0068 0 0 0 0 0.0102133 0 0 0 0 0.0132 0 0 0 0.02 0"/>
<feBlend mode="normal" in2="effect1_dropShadow" result="effect2_dropShadow"/>
<feColorMatrix in="SourceAlpha" type="matrix" values="0 0 0 0 0 0 0 0 0 0 0 0 0 0 0 0 0 0 127 0"/>
<feOffset dy="8"/>
<feGaussianBlur stdDeviation="5"/>
<feColorMatrix type="matrix" values="0 0 0 0 0.0068 0 0 0 0 0.0102325 0 0 0 0 0.0132 0 0 0 0.03 0"/>
<feBlend mode="normal" in2="effect2_dropShadow" result="effect3_dropShadow"/>
<feBlend mode="normal" in="SourceGraphic" in2="effect3_dropShadow" result="shape"/>
</filter>
</defs>
</svg>
