<svg width="331" height="275" viewBox="0 0 331 275" fill="none" xmlns="http://www.w3.org/2000/svg">
<g clip-path="url(#clip0)">
<path d="M210.284 136.769C218.49 133.539 227.832 137.654 231.091 145.934L233.143 151.147C236.764 160.347 237.896 169.465 236.658 178.807C235.421 188.148 231.636 196.368 225.24 204.198C219.148 211.908 210.267 217.883 199.022 222.309C187.776 226.736 177.205 228.417 167.492 226.928C157.779 225.438 149.407 222.004 142.134 216.012C134.861 210.02 129.475 202.577 125.853 193.377L123.801 188.164C120.542 179.884 124.573 170.505 132.78 167.275C140.986 164.045 150.328 168.16 153.587 176.44L155.639 181.653C157.45 186.253 160.235 189.762 163.811 192.604C167.387 195.447 171.633 197.317 176.125 198.028C180.618 198.739 185.052 198.411 189.611 196.616C194.17 194.822 197.638 192.04 200.44 188.458C203.243 184.876 205.075 180.613 205.754 176.095C206.433 171.578 206.08 167.112 204.269 162.512L202.217 157.299C198.046 149.378 202.077 139.999 210.284 136.769Z" fill="#A7D9FD"/>
<path d="M59.5546 211.326C51.3483 214.556 42.1268 210.748 38.8677 202.468L19.6753 153.707C16.054 144.507 14.9225 135.39 16.16 126.048C17.3974 116.707 21.1827 108.487 27.5784 100.657C33.6701 92.9467 42.5512 86.9718 53.7968 82.5455C65.0425 78.1191 75.6134 76.4376 85.3264 77.9272C95.0394 79.4169 103.412 82.851 110.684 88.8429C117.957 94.8348 123.344 102.277 126.965 111.478L129.017 116.691C132.276 124.971 128.245 134.35 120.039 137.58C111.832 140.81 102.49 136.695 99.2312 128.415L97.1792 123.201C95.3686 118.601 92.5836 115.093 89.0076 112.251C85.4316 109.408 81.1851 107.538 76.6929 106.826C72.2007 106.115 67.7667 106.444 63.2077 108.238C58.6486 110.033 55.1803 112.815 52.378 116.397C49.5757 119.979 47.7434 124.242 47.0643 128.76C46.3852 133.277 46.7387 137.742 48.5493 142.342L67.7417 191.103C71.6087 199.144 67.4569 208.216 59.5546 211.326Z" fill="#A7D9FD"/>
<path d="M198.455 106.715C190.248 109.945 180.906 105.83 177.647 97.5498L175.595 92.3364C171.974 83.1363 170.842 74.0188 172.08 64.6772C173.317 55.3356 177.103 47.1162 183.498 39.2861C189.59 31.5756 198.471 25.6007 209.717 21.1744C220.962 16.748 231.533 15.0665 241.246 16.5562C250.959 18.0458 259.331 21.4799 266.604 27.4718C273.877 33.4637 279.264 40.9064 282.885 50.1065L302.077 98.8671C305.336 107.147 301.305 116.526 293.099 119.756C284.893 122.986 275.551 118.871 272.292 110.591L253.099 61.8304C251.289 57.2303 248.504 53.7222 244.928 50.8795C241.351 48.0369 237.105 46.1665 232.613 45.4554C228.121 44.7443 223.687 45.0728 219.128 46.8673C214.569 48.6617 211.1 51.4436 208.298 55.0259C205.496 58.6082 203.663 62.8712 202.984 67.3886C202.305 71.9061 202.659 76.3713 204.469 80.9714L206.521 86.1848C210.692 94.106 206.661 103.485 198.455 106.715Z" fill="#A7D9FD"/>
</g>
<defs>
<clipPath id="clip0">
<rect width="283.191" height="183.241" fill="white" transform="translate(0 103.72) rotate(-21.4849)"/>
</clipPath>
</defs>
</svg>
