<?xml version="1.0" encoding="UTF-8" standalone="no"?>
<svg
   xmlns:dc="http://purl.org/dc/elements/1.1/"
   xmlns:cc="http://creativecommons.org/ns#"
   xmlns:rdf="http://www.w3.org/1999/02/22-rdf-syntax-ns#"
   xmlns:svg="http://www.w3.org/2000/svg"
   xmlns="http://www.w3.org/2000/svg"
   xmlns:sodipodi="http://sodipodi.sourceforge.net/DTD/sodipodi-0.dtd"
   xmlns:inkscape="http://www.inkscape.org/namespaces/inkscape"
   data-name="Layer 1"
   width="245.00002"
   height="245"
   viewBox="0 0 245.00002 245"
   version="1.1"
   id="svg38"
   sodipodi:docname="undraw_conference_speaker_re_1rna.svg"
   inkscape:version="0.92.5 (2060ec1f9f, 2020-04-08)">
  <metadata
     id="metadata44">
    <rdf:RDF>
      <cc:Work
         rdf:about="">
        <dc:format>image/svg+xml</dc:format>
        <dc:type
           rdf:resource="http://purl.org/dc/dcmitype/StillImage" />
        <dc:title />
      </cc:Work>
    </rdf:RDF>
  </metadata>
  <defs
     id="defs42" />
  <sodipodi:namedview
     pagecolor="#ffffff"
     bordercolor="#666666"
     borderopacity="1"
     objecttolerance="10"
     gridtolerance="10"
     guidetolerance="10"
     inkscape:pageopacity="0"
     inkscape:pageshadow="2"
     inkscape:window-width="1920"
     inkscape:window-height="1021"
     id="namedview40"
     showgrid="false"
     fit-margin-top="0"
     fit-margin-left="0"
     fit-margin-right="0"
     fit-margin-bottom="0"
     inkscape:zoom="0.34911243"
     inkscape:cx="-164.70327"
     inkscape:cy="338.00028"
     inkscape:window-x="0"
     inkscape:window-y="32"
     inkscape:window-maximized="1"
     inkscape:current-layer="svg38" />
  <path
     d="m 244.99994,122.49994 a 122.30158,122.30158 0 0 1 -6.4693,39.38845 q -0.36971,1.08728 -0.75747,2.16731 a 122.64231,122.64231 0 0 1 -19.48764,34.811 q -3.74023,4.69161 -7.92626,8.99542 -4.18601,4.31105 -8.78882,8.20169 a 121.86498,121.86498 0 0 1 -60.08297,27.47188 h -0.003 q -4.24038,0.6578 -8.56412,1.02567 -5.14826,0.43491 -10.41975,0.43853 A 122.11577,122.11577 0 0 1 34.825542,208.05057 q -1.201442,-1.22862 -2.366641,-2.49349 -2.903031,-3.14767 -5.584983,-6.49104 -1.505879,-1.88099 -2.939274,-3.81998 A 122.03387,122.03387 0 0 1 9.3506262,169.52108 120.41739,120.41739 0 0 1 5.1102434,157.61901 C 5.0232614,157.3327 4.9399033,157.0464 4.8565453,156.76007 Q 4.5847259,155.83588 4.3310278,154.90082 A 122.63767,122.63767 0 0 1 3.8411848e-5,122.49994 C 3.8411848e-5,54.84591 54.845948,0 122.49999,0 190.15404,0 244.99994,54.84591 244.99994,122.49994 Z"
     id="path2"
     inkscape:connector-curvature="0"
     style="fill:#e8f5ff;stroke-width:0.36242586;fill-opacity:1"
     inkscape:export-xdpi="300"
     inkscape:export-ydpi="300" />
  <path
     d="m 155.96277,232.32223 -2.47899,8.72359 a 122.36569,122.36569 0 0 1 -11.9963,2.48987 h -0.003 q -4.24038,0.6578 -8.56412,1.02567 l 8.06397,-11.52152 1.14527,-0.10148 z"
     id="path4"
     inkscape:connector-curvature="0"
     style="fill:#2f2e41;stroke-width:0.36242586"
     inkscape:export-xdpi="300"
     inkscape:export-ydpi="300" />
  <path
     d="m 218.28553,198.8667 q -3.74023,4.69161 -7.92626,8.99542 l -9.56079,0.007 -51.41736,0.058 -9.25636,0.0109 -6.15399,0.007 -9.15488,0.007 -7.04193,0.007 -13.00747,0.0145 -7.672556,0.0109 -16.15695,0.0145 -7.712422,0.0109 -21.372252,0.0217 -13.424255,0.0145 -3.602513,0.003 q -1.201442,-1.22862 -2.366641,-2.49349 -2.903031,-3.14767 -5.584983,-6.49104 l 7.458725,-0.007 5.081211,-0.003 11.764344,-0.0145 22.702355,-0.0217 7.67256,-0.007 3.102362,-0.003 h 0.01086 l 2.435505,-0.003 1.090899,-0.003 2.794305,-0.003 h 1.181509 l 8.285057,-0.007 17.87122,-0.0217 7.86464,-0.007 7.53122,-0.007 7.06005,-0.007 10.1298,-0.0109 54.10294,-0.0544 z"
     id="path6"
     inkscape:connector-curvature="0"
     style="fill:#cccccc;stroke-width:0.36242586"
     inkscape:export-xdpi="300"
     inkscape:export-ydpi="300" />
  <ellipse
     cx="88.439133"
     cy="202.55379"
     rx="7.2964778"
     ry="2.3286624"
     id="ellipse8"
     style="fill:#3f3d56;stroke-width:0.36242586"
     inkscape:export-xdpi="300"
     inkscape:export-ydpi="300" />
  <ellipse
     cx="88.439133"
     cy="201.00136"
     rx="7.2964778"
     ry="2.3286624"
     id="ellipse10"
     style="fill:#3f3d56;stroke-width:0.36242586"
     inkscape:export-xdpi="300"
     inkscape:export-ydpi="300" />
  <path
     d="m 87.156283,202.56186 1.087277,-0.0163 -0.29996,-20.30258 a 18.939623,18.939623 0 0 1 9.194434,-16.49038 l 20.752256,-12.40442 -0.55779,-0.93331 -20.752265,12.40479 a 20.029528,20.029528 0 0 0 -9.723912,17.43962 z"
     id="path12"
     inkscape:connector-curvature="0"
     style="fill:#3f3d56;stroke-width:0.36242586"
     inkscape:export-xdpi="300"
     inkscape:export-ydpi="300" />
  <rect
     x="-119.99073"
     y="-162.50081"
     width="5.2783017"
     height="21.734192"
     rx="2.639149"
     transform="scale(-1)"
     id="rect14"
     style="fill:#6c63ff;stroke-width:0.36242586"
     inkscape:export-xdpi="300"
     inkscape:export-ydpi="300" />
  <path
     d="m 117.25943,114.91923 28.45949,33.63106 24.26452,10.38687 6.46751,-12.57167 c -5.93341,-7.0595 -25.29339,-15.53278 -25.29339,-15.53278 l -26.28809,-23.57909 c -0.0471,-0.17347 -0.0978,-0.34673 -0.16072,-0.51868 a 6.2450039,6.2450039 0 1 0 -7.44932,8.1843 z"
     id="path16"
     inkscape:connector-curvature="0"
     style="fill:#a0616a;stroke-width:0.36242586"
     inkscape:export-xdpi="300"
     inkscape:export-ydpi="300" />
  <path
     d="m 173.91484,142.54465 -6.27743,16.07159 0.006,0.0625 c 0.62577,6.17455 10.27189,11.89189 18.25379,15.60062 a 11.451295,11.451295 0 0 0 14.85384,-4.87644 v 0 a 11.476538,11.476538 0 0 0 -0.73303,-12.09291 l -6.33752,-8.87489 z"
     id="path18"
     inkscape:connector-curvature="0"
     style="fill:#6c63ff;stroke-width:0.36242586"
     inkscape:export-xdpi="300"
     inkscape:export-ydpi="300" />
  <path
     d="m 210.30129,172.98224 -3.33794,12.01442 -1.94986,13.88454 -0.60163,4.26937 -0.0145,0.0906 -3.70762,3.52278 0.10873,1.1054 0.28994,2.94652 0.48203,5.24793 a 121.95051,121.95051 0 0 1 -60.08296,27.47188 c -0.003,0.003 -0.003,0 -0.003,0 -2.96103,-0.84807 -5.28418,-1.76864 -6.21924,-2.43912 -0.36967,-0.26095 -0.53638,-0.4929 -0.52914,-0.72848 0.0399,-1.56931 4.49408,-7.2014 5.1682,-8.04586 l 1.76863,-7.321 3.60977,-1.4352 -0.89157,-5.15008 4.82751,-5.0957 0.13773,-5.24431 0.0254,-0.14859 1.52943,-8.99179 3.05163,-17.90746 0.31169,-1.83387 -0.28269,-14.14186 -0.0834,-4.28388 -0.0979,-4.8855 a 20.082569,20.082569 0 0 1 0.27545,-3.75111 19.321899,19.321899 0 0 1 0.66686,-2.75443 20.022265,20.022265 0 0 1 9.93047,-11.70273 c 0.18483,-0.0942 0.36967,-0.18484 0.55814,-0.27545 0,0 0,-0.003 0.003,0 a 19.899414,19.899414 0 0 1 4.54844,-1.51131 l 0.45666,-0.81184 4.47233,-7.94438 13.70693,0.35156 8.17633,12.79726 6.82448,6.77374 a 26.570062,26.570062 0 0 1 6.87161,25.92794 z"
     id="path20"
     inkscape:connector-curvature="0"
     style="fill:#6c63ff;stroke-width:0.36242586"
     inkscape:export-xdpi="300"
     inkscape:export-ydpi="300" />
  <circle
     cx="180.37921"
     cy="105.04897"
     r="18.158842"
     id="circle22"
     style="fill:#a0616a;stroke-width:0.36242586"
     inkscape:export-xdpi="300"
     inkscape:export-ydpi="300" />
  <path
     d="m 178.16397,123.45079 a 49.386141,49.386141 0 0 0 8.40127,-0.58713 c 2.75415,-0.56007 8.91548,-5.07512 10.63306,-7.79208 v 0 c 1.27607,-2.01867 2.09208,-5.17097 2.55202,-7.45982 a 22.076937,22.076937 0 0 0 -3.86118,-17.52623 6.9748611,6.9748611 0 0 0 -2.81719,-2.40446 c -0.10092,-0.0395 -0.20478,-0.0744 -0.30972,-0.10433 a 8.6056831,8.6056831 0 0 1 -4.28088,-2.64892 7.097328,7.097328 0 0 0 -0.71165,-0.73242 10.600355,10.600355 0 0 0 -4.42259,-2.22069 c -2.62902,-0.70361 -6.43378,-0.005 -11.30836,2.07791 -2.449,1.04659 -5.12732,0.66783 -7.18772,0.22089 a 0.67417376,0.67417376 0 0 0 -0.63474,0.21745 4.7592028,4.7592028 0 0 1 -3.2346,1.28939 c -0.73645,0.0323 -1.50911,1.05204 -2.44305,2.38176 -0.2119,0.30185 -0.45919,0.65414 -0.63755,0.8684 l -0.024,-0.41165 -0.41652,0.45924 a 5.7751913,5.7751913 0 0 0 2.60735,9.40896 11.262903,11.262903 0 0 0 2.26519,0.36097 c 0.46361,0.0417 0.94316,0.0849 1.40271,0.16459 a 8.7071151,8.7071151 0 0 1 6.47032,5.65028 2.2770747,2.2770747 0 0 0 3.43688,1.10552 3.7622199,3.7622199 0 0 1 3.42818,-0.62426 2.4975855,2.4975855 0 0 1 1.10395,1.25218 3.2547077,3.2547077 0 0 0 1.23503,1.44088 c 1.86639,0.96226 1.99502,5.22513 1.32471,8.77874 -0.64613,3.42537 -1.92339,5.90333 -3.10599,6.02582 -0.91042,0.0942 -1.01452,0.15885 -1.08044,0.31986 l -0.0589,0.14414 0.10227,0.13483 a 3.7187542,3.7187542 0 0 0 1.57207,0.21018 z"
     id="path24"
     inkscape:connector-curvature="0"
     style="fill:#2f2e41;stroke-width:0.36242586"
     inkscape:export-xdpi="300"
     inkscape:export-ydpi="300" />
  <path
     d="m 166.40181,173.64702 -7.00157,-13.95901 c -10.16276,0.69419 -30.33309,12.44474 -30.33309,12.44474 l -38.162989,8.09136 a 6.8945977,6.8945977 0 1 0 1.879699,11.78177 l 48.54561,-3.47974 z"
     id="path26"
     inkscape:connector-curvature="0"
     style="fill:#a0616a;stroke-width:0.36242586"
     inkscape:export-xdpi="300"
     inkscape:export-ydpi="300" />
  <path
     d="m 163.57788,175.93905 18.28577,-13.58897 3.221,-11.60745 a 12.678361,12.678361 0 0 0 -3.81319,-12.82779 v 0 a 12.648406,12.648406 0 0 0 -17.26016,0.55688 c -6.88123,6.86842 -14.72966,16.45051 -13.04375,23.09495 l 0.0171,0.0674 z"
     id="path28"
     inkscape:connector-curvature="0"
     style="fill:#6c63ff;stroke-width:0.36242586"
     inkscape:export-xdpi="300"
     inkscape:export-ydpi="300" />
  <path
     d="m 31.342629,158.05755 c -0.02175,0.0326 -0.04349,0.0652 -0.06886,0.10148 a 17.413013,17.413013 0 0 0 -2.174555,-0.003 q -0.619727,0.0381 -1.239496,0.1196 a 2.60183,2.60183 0 0 0 -1.116272,4.71878 l 0.04349,0.029 c 0.03262,0.0217 0.05799,0.0399 0.09061,0.0616 A 25.562028,25.562028 0 0 1 9.3506262,169.52137 120.41739,120.41739 0 0 1 5.1102434,157.6193 15.762145,15.762145 0 0 1 12.115936,153.81021 c 5.255175,-1.2685 11.119226,0.16309 16.378025,-0.3588 2.529733,-0.25008 4.287499,2.50798 2.848668,4.60643 z"
     id="path30"
     inkscape:connector-curvature="0"
     style="fill:#ffffff;stroke-width:0.36242586"
     inkscape:export-xdpi="300"
     inkscape:export-ydpi="300" />
  <path
     d="m 35.941813,117.67605 c -0.01449,0.0399 -0.02898,0.0834 -0.04711,0.12685 -0.413166,0.0254 -0.826331,0.0689 -1.239497,0.12323 a 2.5994272,2.5994272 0 0 0 -1.116271,4.71516 l 0.04349,0.0326 a 25.697634,25.697634 0 0 1 -2.297781,3.1821 26.640691,26.640691 0 0 1 -19.212196,9.25273 c -0.239201,0.007 -0.471153,0.0145 -0.70673,0.0145 a 63.272014,63.272014 0 0 1 -3.9286975,15.95403 58.073674,58.073674 0 0 1 -2.5804725,5.68284 q -0.2718195,-0.92418 -0.5255176,-1.85924 c 0.043491,-0.0834 0.083358,-0.16308 0.1232248,-0.24645 a 58.691861,58.691861 0 0 0 2.5333571,-6.07789 q 0.8969822,-2.54966 1.5656799,-5.16457 a 61.78012,61.78012 0 0 0 0.3769226,-28.89984 16.440396,16.440396 0 0 1 -3.0661229,-9.36146 12.557593,12.557593 0 0 1 0.4675294,-3.58077 c 0.2790679,0.18484 0.5726328,0.35881 0.8625737,0.5219 0.090606,0.0507 0.1848373,0.10147 0.2790676,0.15222 l 0.032618,0.0181 a 1.8982744,1.8982744 0 0 0 2.7508124,-2.1057 C 10.205953,99.93531 10.15159,99.71423 10.10085,99.49315 10.02112,99.15248 9.9377581,98.81179 9.8616485,98.47111 a 0.56781626,0.56781626 0 0 1 -0.028996,-0.1051 C 9.7420465,97.97821 9.6478152,97.59404 9.5572089,97.20625 a 5.4790313,5.4790313 0 0 1 2.3811381,-0.78284 c 2.903032,-0.23196 5.584983,2.19992 6.226477,5.03771 0.652366,2.84143 -0.431287,5.86406 -2.236168,8.14734 -1.547558,1.95348 -3.580768,3.4503 -5.697335,4.78402 0.04711,0.21746 0.101479,0.43129 0.148595,0.64512 a 62.499565,62.499565 0 0 1 1.362721,12.07965 c 1.290236,-3.84896 4.08454,-7.88276 6.614273,-10.13342 2.881285,-2.56235 6.679508,-4.05917 10.216786,-5.76982 4.244006,-2.05496 8.948294,2.01509 7.368117,6.46205 z"
     id="path32"
     inkscape:connector-curvature="0"
     style="fill:#ffffff;stroke-width:0.36242586"
     inkscape:export-xdpi="300"
     inkscape:export-ydpi="300" />
  <path
     d="m 230.83634,173.77234 c 0.60525,0.76834 1.23224,1.53305 1.85924,2.3014 a 121.45698,121.45698 0 0 1 -7.27026,12.87337 q -0.299,-0.212 -0.598,-0.42404 a 0.76800585,0.76800585 0 0 1 -0.0906,-0.058 c -0.74297,-0.52914 -1.48959,-1.05104 -2.23254,-1.5802 v -0.003 a 25.370899,25.370899 0 0 1 -1.01842,-6.41494 1.9165081,1.9165081 0 0 0 0.44578,-3.57352 c -0.0978,-0.17034 -0.16671,-0.29356 -0.26457,-0.46753 0.003,-0.0435 0.0109,-0.0906 0.0145,-0.13409 0.56901,-4.52668 6.33884,-6.10686 9.15489,-2.51884 z"
     id="path34"
     inkscape:connector-curvature="0"
     style="fill:#ffffff;stroke-width:0.36242586"
     inkscape:export-xdpi="300"
     inkscape:export-ydpi="300" />
  <path
     d="m 237.34188,158.2605 q 0.65237,1.79401 1.18876,3.62789 -0.36971,1.08728 -0.75747,2.16731 -0.14679,-0.57083 -0.30444,-1.14165 a 58.6968,58.6968 0 0 0 -2.12019,-6.23372 q -1.01117,-2.50617 -2.23979,-4.90725 a 61.741547,61.741547 0 0 0 -18.83165,-21.92676 16.436043,16.436043 0 0 1 -8.49164,-4.99424 12.633366,12.633366 0 0 1 -2.01871,-2.99363 c 0.33343,-0.0471 0.66686,-0.11235 0.99305,-0.18122 0.10147,-0.0217 0.20658,-0.0471 0.30805,-0.0688 l 0.0399,-0.007 a 1.8996263,1.8996263 0 0 0 0.67048,-3.39955 c -0.18483,-0.1341 -0.37329,-0.26457 -0.55813,-0.39505 -0.28269,-0.20658 -0.56901,-0.40229 -0.85533,-0.60525 a 0.90200914,0.90200914 0 0 1 -0.087,-0.0616 c -0.32618,-0.23194 -0.65237,-0.45666 -0.97493,-0.69223 a 5.5071193,5.5071193 0 0 1 1.26487,-2.16006 c 2.02596,-2.0912 5.64298,-2.04409 8.00599,-0.34069 2.36664,1.70341 3.5554,4.68617 3.70762,7.59283 0.1341,2.48986 -0.40229,4.95436 -1.10903,7.35725 0.17759,0.13048 0.36243,0.25369 0.54002,0.38779 a 62.093111,62.093111 0 0 1 9.00991,8.1582 c -1.57656,-3.74023 -2.14919,-8.61848 -1.73965,-11.97817 0.46753,-3.82721 2.32678,-7.46235 3.84896,-11.08298 1.82301,-4.34912 8.04224,-4.4071 9.79638,-0.029 0.0181,0.0435 0.0362,0.0834 0.0507,0.12685 q -0.44035,0.44034 -0.84808,0.91331 a 2.6004057,2.6004057 0 0 0 2.27966,4.27663 l 0.0544,-0.007 a 26.129384,26.129384 0 0 1 0.38418,3.91057 26.641112,26.641112 0 0 1 -8.29231,19.64349 c -0.17397,0.16309 -0.3443,0.32256 -0.52189,0.47841 a 61.850717,61.850717 0 0 1 4.5122,7.49133 62.498532,62.498532 0 0 1 3.09511,7.07456 z"
     id="path36"
     inkscape:connector-curvature="0"
     style="fill:#ffffff;stroke-width:0.36242586"
     inkscape:export-xdpi="300"
     inkscape:export-ydpi="300" />
</svg>
